<?xml version="1.0" encoding="utf-8"?>
<!-- Generator: Adobe Illustrator 16.0.0, SVG Export Plug-In . SVG Version: 6.00 Build 0)  -->
<!DOCTYPE svg PUBLIC "-//W3C//DTD SVG 1.1//EN" "http://www.w3.org/Graphics/SVG/1.1/DTD/svg11.dtd">
<svg version="1.1" id="Capa_1" xmlns="http://www.w3.org/2000/svg" xmlns:xlink="http://www.w3.org/1999/xlink" x="0px" y="0px"
	 width="512px" height="512px" viewBox="0 0 512 512" enable-background="new 0 0 512 512" xml:space="preserve">
<g>
	<g>
		<path fill="#FFFFFF" d="M0,256c0,141.154,114.845,256,256,256c141.154,0,256-114.846,256-256C512,114.845,397.154,0,256,0
			C114.845,0,0,114.845,0,256z M486.421,256c0,127.061-103.36,230.421-230.421,230.421S25.579,383.061,25.579,256
			S128.939,25.579,256,25.579S486.421,128.939,486.421,256z"/>
		<path fill="#FFFFFF" d="M246.917,135.727l-71.935,71.934c-5.012,5.012-5.012,13.051,0,18.062c5.011,5.012,13.05,5.012,18.062,0
			l50.114-50.114V367.19c0,7.1,5.742,12.842,12.842,12.842s12.842-5.742,12.842-12.842V175.713l50.114,50.114
			c5.011,5.011,13.05,5.011,18.062,0s5.012-13.051,0-18.062l-71.935-71.936c-2.505-2.506-5.742-3.758-9.083-3.758
			S249.422,133.221,246.917,135.727z"/>
	</g>
</g>
</svg>
