<?xml version="1.0" encoding="utf-8"?>
<!-- Generator: Adobe Illustrator 16.0.0, SVG Export Plug-In . SVG Version: 6.00 Build 0)  -->
<!DOCTYPE svg PUBLIC "-//W3C//DTD SVG 1.1//EN" "http://www.w3.org/Graphics/SVG/1.1/DTD/svg11.dtd">
<svg version="1.1" id="Layer_1" xmlns="http://www.w3.org/2000/svg" xmlns:xlink="http://www.w3.org/1999/xlink" x="0px" y="0px"
	 width="297px" height="337px" viewBox="0 0 297 337" enable-background="new 0 0 297 337" xml:space="preserve">
<polygon fill="#1673B6" points="27.142,303.279 0.071,-0.341 297.521,-0.341 270.425,303.23 148.614,337 "/>
<polygon fill="#35A9DB" points="148.798,311.188 247.225,283.9 270.382,24.485 148.798,24.485 "/>
<g>
	<polygon fill="#FFFFFF" points="148.797,134.485 198.072,134.485 201.475,96.354 148.797,96.354 148.797,59.114 148.926,59.114 
		242.172,59.114 241.279,69.105 232.127,171.722 148.797,171.722 	"/>
	<polygon fill="#EBEBEB" points="149.02,231.193 148.857,231.239 107.385,220.04 104.733,190.343 84.582,190.343 67.354,190.343 
		72.57,248.81 148.848,269.985 149.02,269.938 	"/>
	<polygon fill="#FFFFFF" points="194.907,170.146 190.423,220.015 148.891,231.226 148.891,269.967 225.23,248.81 225.79,242.52 
		232.268,170.146 	"/>
	<polygon fill="#EBEBEB" points="148.926,59.114 148.926,82.242 148.926,96.261 148.926,96.354 59.098,96.354 59.098,96.354 
		58.979,96.354 58.232,87.983 56.535,69.105 55.645,59.114 	"/>
	<polygon fill="#EBEBEB" points="148.797,134.489 148.797,157.618 148.797,171.636 148.797,171.728 107.969,171.728 
		107.969,171.728 107.85,171.728 107.104,163.358 105.406,144.48 104.516,134.489 	"/>
</g>
</svg>
