<?xml version="1.0" encoding="utf-8"?>
<!-- Generator: Adobe Illustrator 16.0.0, SVG Export Plug-In . SVG Version: 6.00 Build 0)  -->
<!DOCTYPE svg PUBLIC "-//W3C//DTD SVG 1.1//EN" "http://www.w3.org/Graphics/SVG/1.1/DTD/svg11.dtd">
<svg version="1.1" id="Layer_1" xmlns="http://www.w3.org/2000/svg" xmlns:xlink="http://www.w3.org/1999/xlink" x="0px" y="0px"
	 width="297px" height="337px" viewBox="0 0 297 337" enable-background="new 0 0 297 337" xml:space="preserve">
<polygon fill="#E45126" points="27.383,303.266 0.313,-0.354 297.763,-0.354 270.665,303.217 148.856,336.986 "/>
<polygon fill="#F1682B" points="149.038,311.175 247.465,283.887 270.623,24.471 149.038,24.471 "/>
<polygon fill="#EBEBEB" points="149.038,137.08 99.763,137.08 96.359,98.948 149.038,98.948 149.038,61.709 148.909,61.709 
	55.663,61.709 56.555,71.7 65.707,174.316 149.038,174.316 "/>
<polygon fill="#EBEBEB" points="149.038,233.788 148.875,233.834 107.403,222.635 104.751,192.938 84.6,192.938 67.371,192.938 
	72.588,251.404 148.866,272.58 149.038,272.532 "/>
<polygon fill="#FFFFFF" points="148.909,137.08 148.909,174.316 194.764,174.316 190.441,222.609 148.909,233.82 148.909,272.562 
	225.249,251.404 225.809,245.114 234.559,147.079 235.467,137.08 225.434,137.08 "/>
<polygon fill="#FFFFFF" points="148.909,61.709 148.909,84.837 148.909,98.856 148.909,98.948 238.736,98.948 238.736,98.948 
	238.855,98.948 239.604,90.578 241.299,71.7 242.189,61.709 "/>
</svg>
