<svg xmlns="http://www.w3.org/2000/svg" xmlns:xlink="http://www.w3.org/1999/xlink" viewBox="0 0 448 300"><defs><style>.cls-1{fill:url(#Безымянный_градиент_11);}.cls-2{fill:#fff;}.cls-3{fill:url(#Безымянный_градиент_13);}.cls-4{fill:url(#Безымянный_градиент_13-2);}.cls-5{fill:url(#Безымянный_градиент_14);}.cls-6{fill:url(#Безымянный_градиент_15);}.cls-7{fill:url(#Безымянный_градиент_16);}.cls-8{fill:url(#Безымянный_градиент_17);}.cls-9{fill:url(#Безымянный_градиент_18);}.cls-10{fill:url(#Безымянный_градиент_19);}.cls-11{fill:url(#Безымянный_градиент_20);}.cls-12{fill:url(#Безымянный_градиент_21);}.cls-13{fill:url(#Безымянный_градиент_22);}.cls-14{fill:url(#Безымянный_градиент_23);}.cls-15{fill:url(#Безымянный_градиент_24);}.cls-16{fill:url(#Безымянный_градиент_27);}.cls-17{fill:url(#Безымянный_градиент_28);}.cls-18{fill:none;}</style><linearGradient id="Безымянный_градиент_11" x1="316.68" y1="264.47" x2="318.66" y2="212.72" gradientTransform="matrix(1.11, 0, 0, -1.12, -39.81, 356.13)" gradientUnits="userSpaceOnUse"><stop offset="0" stop-color="#fff"/><stop offset="1" stop-color="#e1bfbf"/></linearGradient><radialGradient id="Безымянный_градиент_13" cx="412.19" cy="-208.04" r="22.03" gradientTransform="matrix(-0.49, 0.66, 2.64, 1.99, 1062.73, 177.64)" gradientUnits="userSpaceOnUse"><stop offset="0" stop-color="#eff5f9"/><stop offset="1" stop-color="#c7dbeb"/></radialGradient><radialGradient id="Безымянный_градиент_13-2" cx="290.29" cy="-912.34" r="47.22" gradientTransform="matrix(2.26, 0.47, 0.06, -0.3, -298.44, -354.03)" xlink:href="#Безымянный_градиент_13"/><linearGradient id="Безымянный_градиент_14" x1="314.25" y1="-508.05" x2="314.25" y2="-445.16" gradientTransform="matrix(1, 0, 0, -1.15, 0, -461.9)" gradientUnits="userSpaceOnUse"><stop offset="0" stop-color="#e2bfbf"/><stop offset="0.38" stop-color="#739ec5"/><stop offset="1" stop-color="#d2e0eb"/></linearGradient><radialGradient id="Безымянный_градиент_15" cx="42.65" cy="-410.71" r="26.4" gradientTransform="matrix(-0.18, -0.68, -1.92, 0.52, -338.61, 283.85)" gradientUnits="userSpaceOnUse"><stop offset="0" stop-color="#b7cfe7"/><stop offset="1" stop-color="#e1ecf4"/></radialGradient><linearGradient id="Безымянный_градиент_16" x1="297.74" y1="-520.72" x2="297.74" y2="-511.72" gradientTransform="matrix(1.11, 0, 0, -1.12, -39.81, -486.38)" gradientUnits="userSpaceOnUse"><stop offset="0" stop-color="#80a7ca"/><stop offset="1" stop-color="#abc6da"/></linearGradient><linearGradient id="Безымянный_градиент_17" x1="276.4" y1="-488.34" x2="276.67" y2="-471.9" gradientTransform="matrix(1.97, 0, 0, -1.32, -198.15, -547.69)" gradientUnits="userSpaceOnUse"><stop offset="0" stop-color="#80a7ca"/><stop offset="1" stop-color="#aec7dd"/></linearGradient><linearGradient id="Безымянный_градиент_18" x1="323.5" y1="-614.67" x2="323.13" y2="-620.58" gradientTransform="matrix(1.39, 0, 0, -0.7, -121.64, -352.14)" gradientUnits="userSpaceOnUse"><stop offset="0" stop-color="#d3e1f0"/><stop offset="1" stop-color="#9bbad5"/></linearGradient><linearGradient id="Безымянный_градиент_19" x1="260.04" y1="-503.11" x2="214.84" y2="-502.8" gradientTransform="matrix(1.06, 0.09, 0.08, -0.93, -19.12, -389.16)" gradientUnits="userSpaceOnUse"><stop offset="0" stop-color="#e4edf4"/><stop offset="1" stop-color="#a7c3da"/></linearGradient><linearGradient id="Безымянный_градиент_20" x1="261.71" y1="-455.35" x2="302.8" y2="-447.37" gradientTransform="matrix(1.28, 0.11, 0.09, -1.12, -81.74, -441.5)" gradientUnits="userSpaceOnUse"><stop offset="0" stop-color="#bad0e2"/><stop offset="1" stop-color="#ffe5c3"/></linearGradient><linearGradient id="Безымянный_градиент_21" x1="254.89" y1="-449.87" x2="271.3" y2="-446.1" gradientTransform="matrix(1.28, 0.11, 0.09, -1.12, -81.74, -441.5)" gradientUnits="userSpaceOnUse"><stop offset="0" stop-color="#bad0e2"/><stop offset="1" stop-color="#fbfcfd"/></linearGradient><linearGradient id="Безымянный_градиент_22" x1="257.8" y1="-502.69" x2="236.58" y2="-509.15" gradientTransform="matrix(1.06, 0.09, 0.08, -0.93, -19.12, -389.16)" gradientUnits="userSpaceOnUse"><stop offset="0" stop-color="#eef3f8"/><stop offset="1" stop-color="#d8e5ef"/></linearGradient><linearGradient id="Безымянный_градиент_23" x1="270.42" y1="-507.57" x2="250.51" y2="-507.76" gradientTransform="matrix(1.06, 0.09, 0.08, -0.93, -19.12, -389.16)" gradientUnits="userSpaceOnUse"><stop offset="0" stop-color="#fff"/><stop offset="1" stop-color="#eef3f8"/></linearGradient><linearGradient id="Безымянный_градиент_24" x1="231.6" y1="-490.69" x2="230.99" y2="-497.15" gradientTransform="matrix(1.06, 0.09, 0.08, -0.93, -19.73, -389.79)" gradientUnits="userSpaceOnUse"><stop offset="0" stop-color="#fff"/><stop offset="1" stop-color="#b9cfe2"/></linearGradient><linearGradient id="Безымянный_градиент_27" x1="142.9" y1="-521.54" x2="137.59" y2="-530.64" gradientTransform="matrix(1.38, 0, 0, -1.21, -53.94, -526.14)" gradientUnits="userSpaceOnUse"><stop offset="0" stop-color="#fff"/><stop offset="1" stop-color="#c5d4e5"/></linearGradient><linearGradient id="Безымянный_градиент_28" x1="133.55" y1="-535.14" x2="141.37" y2="-524.29" gradientTransform="matrix(1.38, 0, 0, -1.21, -53.94, -526.14)" gradientUnits="userSpaceOnUse"><stop offset="0" stop-color="#a5bcd5"/><stop offset="1" stop-color="#dbe5ef"/></linearGradient></defs><title>clouds1_1</title><g id="Layer_2" data-name="Layer 2"><g id="Layer_3" data-name="Layer 3"><g id="g4653"><g id="g5154"><path id="path4447" class="cls-1" d="M236.86,70c-1.4,0-2.15.91-3.48,2.71a14.4,14.4,0,0,0-1.11,3c.08.08.15.13.24.21-.34.91-.41,1.17-.87,2.35.21-.87.41-1.72.63-2.56-1.78-1.63-2.43-.86-4.4-.67-1.51-1.29-2.85-.76-4.63-.58-.39-3.15-2-1.21-2.9-1.76-2.39-.84-1.46.74-2.89,1.46-4.82-5.68-9.06-2.92-12.75,2.06-5.47.71-9.82,4.24-10.72,8.79a17.72,17.72,0,0,0-.29,4.68c2.71,1.5,7.08.87,9.85.59-3.18,1.15-.79,2.4-1.16,3.51-4.13,0-6.61-1.59-5.91,1.93L194,98.75c-3.48-1.57-14.6-1.34-16,.84-2.92,1.26-1.9,3.6-1.45,5.86-.56,7.77,18.68,5.2,23.87,4.72,4.26,1.33,8.66-.43,13-1.17,1.41,5,6.47,3.52,11.3,3.52,1.76,3.75,7.08,2.34,11,2.34a22.57,22.57,0,0,0,11-3.22c3.33,1.82,7.14,2.12,10.72,3.51,6.76,3.26,14.83,2.51,22,1.47,1.64,1.77,4.18,1.68,6.37,2a22.31,22.31,0,0,0,7.82-1.76c7.59,3,18.29,2.21,25.2-.58,16.34-9.21,53.52-12.15,70.1-4.69,17.39,8.2,39.55,8.88,59.07,7.53V80.28c-28.72-4.65-58.74-10.43-88.32-9.66-7.23.19-14.18,3.22-21.15,3.22-8.67,2.63-26.68-1.5-38.53,0l-59.67-2.63A9.31,9.31,0,0,0,236.86,70Z"/><path id="path4394" class="cls-2" d="M415.84,29.16c-3.29-.89-5.33-1.65-9,.2-1.5,1-1.6,2.13-2.2,3.64-2.3-.84-4.08.11-5.79,1.62-.4,1.2,0,1.89.2,3-3.67.17-6.62,2.52-8.8,5.46-4.28-5.08-9.19,1.66-9.19,6.26-2.41-.51-4.86.86-7,1.82-.18-2.95-.17-4.62-3.4-3.64-1.13-2.75-2.62-2.7-4-.2a5.23,5.23,0,0,0-7.39,5.25c-4.1-1.27-8.23.59-9,4.45-.42,2.23.85,3.72,2.19,5.46-1.84.6-1.59,2.88-1.59,4.85,4.63,4,12.52,3.63,18.38,3.63,6.19,4.12,13.44,3.24,20.57,3.24,2.71,4.66,10.15,3.27,15,2.83,5.67,2.61,12.3,1.17,18.18-.61,7.77,3.67,17.11,3.69,25,2.67V17.17c-1.15-.43-2.07.35-3.19,1.48-1.76-1.81-2.52-1.32-3.8.41-2.55-1.07-2.59-.62-3.39,1.21-2.39.27-3.23.65-4.4,2.43-1.2-1.38-2.26-.41-3.6.6-8.1-8.34-12.69.57-13.78,5.86Z"/><path id="path4208" class="cls-2" d="M362,70.87c1.55.7,5.14,2.86,6.27-1.15-.4-4.06-4-6.18-7.41-3.46-.53-.81-1-2.46-2.27-3.46,0-1.92,1-2.62-1.71-3.45,1.95-1.1,2.57.18,2.28-3.17.59-3-.32-4.93-2.85-1.73-1.17-.5-.63-2.43-3.42-1.44-.39-1,.09-2.13-1.14-2.88,1.68-1.28,2.55-.89,2-3.75.4,0,1.13,2,3.14.29.73-3.72-.26-6.28-4.56-4.32-.83-1.9.31-3.29-3.71-2.31a33.59,33.59,0,0,0-11.11-.86c-.86.19,0-3.27-2.56.57-.69.54-2.46-1-2.56,2-1.14-2.6-.48-3.08-3.71-1.73-1.33-1.34-1.39-2.75-4.27-1.15-.38-1-1.07-1.69-1.14-2.88,2.47-1.87,3-2.53.86-6.63-1.34-3-1.51-5.4-5.7-5.76-1.29-1-1.82-2.25-4.28-2.6-.72-3.67-2.38-6.34-4.84-3.45-2-1.11-5.14-2.92-8.26.28-9.23,5.77-8.39,17.24-12.53,24.78-2.93.11-2.33.46-3.14,3.17-2.78-2.94-4.4-3.59-6,0-4.51-3.69-8-3.07-7.41,2.89-.5,1.14.91,1.37,1.14,1.72-3,1.47-2.51,2.59-2,5.19-2.93.36-2.57.79-2.57,3.75-2.61-.89-3.27.25-4.84,1.44,3.17,2.68,5.15,3,8-.29a12.08,12.08,0,0,0,7.69.86l1.71,3.17c-4.11,4.41,3.95,5.23,8,1.16,1.1-.76,2.26-.58,3.41-.87-.15,4.65,3.5,5,7.13,4.61,3.6,3.81,7,1.75,11.11,0,3.83,1.38,8.9,2.87,14.52,1.73,3.22-1.65,1.21-2.55.86-3.75,2.35-1.11,3.67-.15,5.13.29,2,5.51,6,3.63,9.11.87-.36-4.47,3.44-2.6,6.84-2.6.7,1.57,0,2.42,0,3.75,2.95,2.06,4.32.81,6.27-.29,2.86,2.51,5.29,2.43,8.54,1.44Z"/><path id="path4187" class="cls-3" d="M301.92,17.57c2.48.2,3,1.81,4,2.59-1.34.66-2,2.2-2.56,2.88,1.15,3,1.92.39,2.85.58,1,1.74,2.48,2,4,2.3,2.83-1.83,2.58-1.13,4.27,1.15,3.61.91,1.53,2.42.85,3.46,4.7,2.82.39,2.25,1.14,4-4.38-2.69-6.11.15-6.55,4.61.32,1.43,3.61.86,5.7.86-4.08,5.13.45,7.71,5.41,7.2,1.05-.49,1.79-2,2.28-2.59,1.44,3.23,1.94,3.75,5.41,3.75,1.34-.84,2.77-1.4,4-2,1.9,2.22,3.55,2,6.27,2a15,15,0,0,0,3.42,2.88c-1.19,1.25-.74,2-1.14,3.17-2.66,1-2.18,1.48-2.85,3.74-.53-1-1.51-.38-2.28-.57.8-4.14-.85-2.65-2.56-2.31-2.18-1.42-2.17-.53-4,.29-3-3.24-5.84-2.81-8.26,0,1.8.41.38,1.35.57,2-2.59-1-3.39-.88-6,.57.91-3.4-.51-2.46-2.56-2.88-2.41-.82-4.67-.53-7.12-.29-.06-2.42-.34-3.72-1.43-5.18-1.69-2.26-2.81-1.15-4-1.15-.57-3.61-.6-2.58-2.85-.87-3,.09-4-1.56-5.7-2.88-.11-3.93-2.34-3.16-5.13-2.88-.64-3.11.81-4.31,2.57-6.34-2.85,1.43-4.15,2.78-5.7-1.15,1.8-3.51,5.23-4.58,8.26-5.19-1.13-4.21-.81-6.59,2.28-8.93,2.55-2.28,3.87-2.53,7.4-2.88Z"/><path id="path4226" class="cls-4" d="M286.12,43.34a16.43,16.43,0,0,0-.72,2.47c-2.78-3-4.4-3.6-6,0-4.51-3.7-8-3.07-7.41,2.88-.5,1.14.91,1.37,1.14,1.72-3,1.47-2.51,2.59-2,5.19-2.93.36-2.57.79-2.57,3.75-2.61-.89-3.27.25-4.84,1.44,3.17,2.68,5.15,3,8-.29a12.08,12.08,0,0,0,7.69.86l1.71,3.17c-4.11,4.41,3.95,5.23,8,1.16,1.11-.76,2.27-.58,3.43-.87-.15,4.66,3.49,5,7.12,4.61,3.59,3.81,7,1.75,11.11,0,3.83,1.38,8.9,2.87,14.52,1.73,3.22-1.65,1.21-2.55.86-3.75,2.35-1.11,3.67-.15,5.13.29,2,5.51,6,3.63,9.11.87-.36-4.47,3.44-2.6,6.84-2.6.71,1.57,0,2.42,0,3.75,2.95,2.06,4.32.81,6.27-.29,2.86,2.51,5.29,2.43,8.54,1.44,1.55.7,5.14,2.86,6.27-1.15-.4-4.06-4-6.18-7.41-3.46-.36-.55-.72-1.47-1.28-2.32a23,23,0,0,0-3,2.9c-.65-1.5-1.57-2.19-2-4-1.27.75-2.62-1-3.42,2-.9-.83-2.66-1.8-3.42-3.17-4.37-.44-6.79.84-10.26,2.31-1.56-.32-2.32-1-4,0V61.07c-1.71-2.59-2.37-4.18-6.27-2.3-1.95-1.48-1.9-2.6-5.41-.86-1.73.58-5.22,1.71-6.27,4.89-.76-.19-1.77,1.43-2.28-.57-.22-.88-3.1-.6-.85-3.46-2.17-1-4.51-2.17-7.7,1.15,0,1.13.61,3.44-.57,5.48-1.09-1-2.71-1.78-3.13-3.75-.38-4.22-2-5.16-5.13-2.59-1.95-.88-2.9-1.86-4.84.57-2.06-.2-2.9.23-4.56-1.72,1.5-2.74,2.44-3.72,5.7-1.73.37,0,2.08-.93,2.85,0,1-.55,1.71-2,4-2-.54-1.62-.94-5-4.56-5.47-2.06-2.79-5.18-4.62-8.83-1.73a22.72,22.72,0,0,0,.43-3.62Z"/><path id="path4331" class="cls-5" d="M367.35,48.45a4.74,4.74,0,0,0-2.61.93c-1,.2-2.68-.8-3.35,1.54-2.54-1.93-5.92-1.19-5.16,4.61-3.81,1.69-2.61,2.4.61,3.38.48,3.86,2.42,4.06,6.07,3.69.89-4.63,2.45-1.24,3-1.54-.51,2.15,1.23,2.08,1.82,3.07-3-1.56-3.94-.07-5.46.62-3.23-2.11-2.86.62-4.26.92-3.19-1.55-4.55-.58-6.68.61-1.64-3.6-4-1-7,.31-2.68.92-4.45-.33-7.6.31-3-1.6-5.68-1.84-9.11-1.84-3.42-1.36-6.73,0-8.51.92-1.8-2.74-2.87-.67-4-.92-3.61-.54-5.84-1.1-10.33.92-2.46-1.19-4.09-3.84-5.47-5.23-1.05.46-.4,1.43-.6,2.15-2.57,1.21-5.46.8-7.9,1.54-1.62,1.11-.25,1.5-.3,1.84-3.91.43-4.85-1-5.17-4.3-2-4-3.19-3.24-5.77-2.76-4-2.95-6.37-.94-8.81,1.84-2.8,1.38-.82,2.15-1.52,4a25.89,25.89,0,0,0-5.78-2.16c-3.16-.58-1.43,1.28-2.43,2.16-1.37-3.47-2.8-1.85-4.25-1.85-1.32-4.26-4.07-3.12-6.38,0-1,1.73-.44,3.24-.3,4.61-.71.14-1.5,1.26-1.83,1.54-1.52-4.69-7.12-5-9.42-.31-.72,3-.46,2.64,2.13,4.61l1.52-.31c1.79,1.76,2.84,1.44,4.86,1.85a24.08,24.08,0,0,1-7,0l-1.52.3c-3.52-2.94-6.07-4.09-6.07.31,1.5,1.71,2.51,1.62,4.25,2.15,2.11,2.5,3.68,2.13,7,2.46,1.86.26,2.54.88,4.25,1.84a13.87,13.87,0,0,0-8.81-.92,17.33,17.33,0,0,0-9.11-1.23c-2.46-2.43-4.82-2.3-7.29-1.84a9.74,9.74,0,0,0-6.08-.31c-3.23.29-6.68.92-9.72.92-1.13-1.55-.91-2.81-.91-4.61-3.59.37-3.41,2.47-3.65,4.92a19.1,19.1,0,0,0,9.72,2.15c2.47-1.18,4.72.76,7.3,1.54-1.07.31-2,.41-3,.61-4.2,1.74-8,.59-11.85-.31a7.66,7.66,0,0,0-7-2.45c-2.18.09-2.81,1.74-4.25,3.68-4-.92-4.56,1.11-4.56,4.92a59.12,59.12,0,0,0,6.68,1.23,26.66,26.66,0,0,1,4.86-.31,17,17,0,0,0,9.42-1.53c3.36,1.65,8.89,2,12.76,2.76,1,1.27-.5,1.53-.6,1.85a25.2,25.2,0,0,0-10.33-1.85c-3.4.37-6.3,1.84-9.73,2.15,2.43,1.68,4.38,1.83,7.6,2.15a18.27,18.27,0,0,1-6.69.93c-4.4-2.63-4.88-.56-6.07,2.15,26.62,3.16,17.11.47,10.63,3.38-3.74-2.63-8-2.87-11.24,0-2.7,1.25-13.34,1.18-15.9.62-.58,3.2,8.51,2.25,11.34,3.68-1.09,1-2.4.41-3.64.62,2.47,3.83,6.2,2,10.33.92,3.36,4,9,2.32,13.67,1.23,3.16-1.58,6.43-.83,9.66,0a4.08,4.08,0,0,1,1,.25l-1-.25c-1.73-.24-1.79,1.33-3,1.79,3.52,2.15,7.19,1.82,10.94.31A55.41,55.41,0,0,0,239,109c1.91,1.19,4.54.37,6.39,0-.14-1.73-.48-2.71-1.22-3.4a12.54,12.54,0,0,1-3.34-1.52,8.63,8.63,0,0,1,3.34,1.52c3.61,1.07,7.58.7,11.24.33.64,4.52,3.38,4.3,7.6,4.3,1.81-2.33,3-2.12,3.34,1.53-.79,2.79-.36,1.85,1.82,3.08,3.29-.39,6.09-1.38,9.42-2.15,3.14,2.93,7.19,2.76,11.24,2.76,1.66-1.34,3-2.71,4.56-4,1.83.77,3.21,0,4.86-.31,5.07,3.65,12.75-1.06,17.88.5a7.37,7.37,0,0,1-1.34,1.58c-4-1.45-6.29-.44-9.63,1.59,2.19,2.75,4,2.94,7.39,2.94a41.18,41.18,0,0,0,4.7-1.58,21.68,21.68,0,0,0,14.11-.91c1.53.82,2.71-.26,3.35-.45-.13-1.19.28-1.66.45-2.72,1.75-.73,3.55-.41,5.37-.22.26,2.72,1.7,2.68,4.26,2.94,2.66,4.15,11.52,2.09,15.67.23a11.74,11.74,0,0,0,8.28.22c-.65,1.31.05,2.51.23,3.4,4.69,2.12,9.76,0,14.11-1.59a6.14,6.14,0,0,1,2.24.46c.76,3.25,2.65,5.17,5.59,6.79,6.37,3.28,41.71,4.72,57.14-.22V113.33a17.87,17.87,0,0,0-7,.58c-5-4.38-15.66-5.25-22.84-3.17-1.11-1-2.08-1.94-3.14-2.94-2.58-.71-7.1-.44-10.3-1.13.15-.53-.33-1.25.45-1.59,4.52,0,8.81-.23,13-2,1.45,2,1.71,2.22,5.15,1.59,5.54-1.12,11.53,1.63,17-.46-.75-.59-1.55-.62-2-1.58-4.57,0-9.61,0-13.43-1.81a6.86,6.86,0,0,0-6.72-.45c-1.53-1.55-3.26-2.66-5.15.68a17.32,17.32,0,0,0-4.26.22c-2.43,0-4.13.31-5.37-2.26-1.81-1.83-2.93-2-6.49-.46-2.65,0-4.86.13-6.94,2-2.65-2-7.34-1.41-11.65-.22a12.11,12.11,0,0,0-8.06,0c-.17-1,.22-1.72-.44-2.5-2.12-.21-4-1-4.71,1.36a6.7,6.7,0,0,1-2.68,3.17,45.41,45.41,0,0,0-10.08-.9c-1-2.43-1.53-4.31-4.25-4.53,1.84-1.86,2.28-3.94-1.12-4.53a19.7,19.7,0,0,1,2.24-2.26,14.29,14.29,0,0,0,14.77,2c3.37,1.89,9.06,1.49,13,.46.64,1.45.5,2.37,2.34,3.16,4.53-.33,10-.42,13.67-4.62A43,43,0,0,0,400.28,93c3.38-.34,5.85-2.09,8.81-1.85.06.25-2,3,.61,2.77,1.65.33,5.69,1,8.81-.92,3.29,0,6.63-.81,9.42-.62,1.23,1.67.12,2.53,3.34,3.08,3.51,2,5.85,2.64,9.12,0,2.49,1.4,5.26,1.09,7.61,2.3V54.09a7.67,7.67,0,0,0-4.58,1.75c-3.28-.34-6.88.54-8.81,4.61-2.29-.47-5.11-.91-7.9.3-2.26-1.27-3.47-2.2-6.68-1.23-3,1.09-5.55,2.47-8.81,1.54a16.33,16.33,0,0,0-7.9,1.84c-.74-.22-3.15-1.66-5.16-1.23,3.78-3.82,5.38-.49,10.32-2.45,2.38,1.06,3.43,1.94,6.08-.62,2,.18,3.87,1.25,5.47-2.76,4.57-3.47-.07-4.08-4.25-2.16-3.1-2.35-2.18-4.1-5.47-2.15-1.39-1.05-2.79-2.89-5.77-2.45-3.15-.64-5.05-1.34-5.47,3.38-.66.06-3.79-.61-6.08,1.84-.64-1.68-.17-2.54-1.52-4-4.06-1.83-3.56.19-7,2.76-1.35-1.83-1-3-4.25-2.15-.72-.07-1.32-2.82-3.34-.31-1.59.16-3.19-1.21-3.95,2.46a20.19,20.19,0,0,0-3.34-2.76c-1.05-.8-1.34-1.75-2.25-1.86Z"/><path id="path4409" class="cls-6" d="M444.83,21.49c-1.8-.07-3.3.94-5,2.63-3-1-4.22,0-6.38,1-2.45-2.23-4.18-.8-5.73-.65-4.34-4.5-8.68-2.07-10.52,2.58-1,1.43,1,2.46,1.28,3.22-4-.47-4.46.32-6.69,3.23-.84-4.17-2.87-3.19-5.74-2.9-3.56-1-5.21.33-7.33,1.93a25.43,25.43,0,0,0-1.27,4.19c-3.78-1.78-4.72.43-5.74,4.19,3.95,1.54,7.68.13,11.47-1,0,3.54,1.62,4.32,3.51,5.8-3.28-1.26-3.34-.37-4.78,2.26-4.47-1-5.23.1-7.65,2.9a3.34,3.34,0,0,0,2.23,2.26c3,.91,5.37-.89,8-1.94,2.68,4.87,9.54,4.19,15,4.19a18,18,0,0,0,2.87,2.26A21.89,21.89,0,0,1,427.11,56c-1.57-2.43-3.69-2.41-5.42-2.58,1.67-3.87,6.3-4,9.88-3.22-.05,1.28-.21,2.29-.32,3.54,1.31-1.68,2.63-1.24,4.46-1.61,1.27-5.28,9.77-6.47,12.29-2V22.58a6.86,6.86,0,0,0-3.17-1.09Z"/><path id="path4472" class="cls-7" d="M342.22,86.2c-6.56,0-14.21,2.17-19.49-1.75a46.46,46.46,0,0,1-10-.88c-3.82,0-5.61-.21-8.23,2.63-4,1.47-7.05,2.85-10.4,4.38-3.88,0-6.8-1-10.39-1.75-3.08.31-4.26.19-6.93,1.75h-8.23c-2.87,0-5.55.09-8.23-1.31-1.3.29-2.88-.65-3.9.87-4.73-.43-9.41-.56-13.86-2.62h-10c2.09,5.32,7.46,3.5,13,3.5A39.9,39.9,0,0,0,256,94.09c1.38-.9,2.89-.29,4.33-.44,3.68,4.94,9.87,5.26,16,5.26,4-1,8.13-1.53,12.12-2.63,3.35,2.14,6,2.63,10,2.63,2.16-1.75,3.6-1.4,5.63-2.19,3.17,2.84,6.86,2.19,10.83,2.19,7.6-.86,15.72-2.74,22.95-7,7.36,1.23,13.86-4.73,4.33-5.7Z"/><path id="path4484" class="cls-8" d="M246.74,70.48c0,.71-3.46,1.89,0,4.13,3.73,6.45,9.55,5.16,18.49,5.16,5.87,3.75,14.72,2.58,23.12,2.58C295.12,87,302.81,87,312.24,87a21.41,21.41,0,0,0-1.54,2.58c8.11,5.57,24,2.58,36.21,2.58,5.17-2.71,7.81,3.33,14,2.91,10.85,1.91,27.24-2,38-3.2C410,90.43,435,94.55,448,91.57V71.26C419.11,75.13,269.65,82.41,246.74,70.48Z"/><path id="path4560" class="cls-9" d="M357.91,80.08c-3.76.52-5.89,1.25-10.23.52-6.76.31-15.23,1.38-19.44-1.81-5.09.64-10.05,1.91-15.35,2.06-1.24-.23-2.2-1.08-4.09-.77-3.15,0-6.29.18-9.21-.52-1.56.16-3.32.41-5.11.52-5.25.48-7.93.71-8.7-2.32,5.44-2.16,9.86-1.51,14.32-.26,2.27-1.29,5.87-.42,7.17-.51,2.19-.3,3.43.76,4.6,1,4.18-1.7,7.49-1.57,12.28-1.81a35.13,35.13,0,0,1,7.16.78c2.65.28,5.09.34,7.67.51,5-2.83,9.39-2,13.82-1.29,4.18-.44,1.44,1.09,2,1.55,5.21-.84,8.44.57,12.28,1.8-3.8,1.55-5.34.91-9.21.52Z"/></g><g id="g5137"><g id="g4977"><path id="path4174" class="cls-2" d="M269.74,104.2c0-2.48-.39-5.22-2.73-7-1.63-2.56-4.63-4.53-7.32-1.57a17.86,17.86,0,0,0-2.94,2.17c-.83-.86-2.95-.3-2.79-2.89,2.54,0,2.81.81,3.19-1.91-1.07-1.49-2.51-3.84-6-3.65-1.35.64-3.18,1.29-3.53,2.61A7.27,7.27,0,0,0,246,90.61c-3.2-.27-6-.33-8.11,1.26-2.17-1.06-4.39-2.63-7.57-1.84,1.35-1.78,2.58-2.21-.57-3.19-.86-1.84-3.21-7-5.55-2.88a9.17,9.17,0,0,0-7.53-2.32c-1.22-1.68-3-3.81-3.9.4-1.88-.92-3.13-2.25-5.48-.45-1.42-2-4.09-4.56-6.81-1-2.31-1.81-5.32-1.79-3.76,2.1-2.53,1-2.71,2.5-3.44,4.8-2.67,3-1.77,3.39-.14,5.07,1.47-.45,2.12.95,2.66,1.19-1.13,2.63-.2,3,1,4.68a13.84,13.84,0,0,0,6.89.09c3.75.75,6.73,1.68,10.37,1.34a13.55,13.55,0,0,0,7.67.64c3.06,2.16,4,2.53,7.85,1.86,3.73,3,6.64,3.6,11.61,3.15,1.51-.59,1.05-1.68,1.58-2.53,3.12,1,6.13,1.65,9.11,0,2.36,1.52,4.07.8,6,.5-.34-1.46.92-2.07,1.35-3a14.46,14.46,0,0,0,3.82.56c.81,3.51,2.7,4.38,6.63,3.22Z"/><path id="path4285" class="cls-10" d="M228.11,106.57c-3.19,1.09-5.76,2.76-9,.7-3.35.25-6.14-.23-8.45,2.48-2.23.87-3.22,1.68-6,.66A26.48,26.48,0,0,1,200,112c-2.93-.25-4.53-.35-5.68-3.08l-5.24-.43c-2.29-.19-3.95-.09-5.8-1.64-.15-.39-3.09-.81-.81-2.09l-3-.25c-3.37-.28-3.88-.36-4.34-3.25-2.54,1.19-6.17-.14-5.61-1.59-3.59,1.76-4.91-1.64-3.57-4,1.67-1.42,4-1.62,7.41-.89,2.1-1.35,2.68-1.91,5.41-1.57,1.42-1-.05-3.18,3.48-2.32,2.09-.9,2.52.83,3.54,1.16,2.94-.46,5.86-.14,8.58-.15,1.78,1,2.46,3.1,2.94,4.29,3.21-.55,6.11,0,9.19.48,1.3,1.6,3.48,2.33,4.7,3a20.38,20.38,0,0,1,14.71,1.51c5.75.91,10.26,4.65,2.19,5.39Z"/><path id="path4195" class="cls-11" d="M196.65,82.36c0,.09.06.18.11.28-2.53,1-2.71,2.5-3.44,4.8-2.68,3-1.76,3.39-.14,5.07,1.48-.45,2.12.95,2.66,1.19-1.13,2.63-4.48,3-3.29,4.61,2.26.45,8.78.87,11.17.16,3.75.75,6.73,1.68,10.37,1.34a13.55,13.55,0,0,0,7.67.64c3.06,2.16,4,2.53,7.85,1.86,3.73,3,6.64,3.6,11.61,3.14,1.51-.58,1.05-1.67,1.58-2.52,3.12,1,6.13,1.65,9.11,0,2.36,1.52,4.07.8,6,.5-.34-1.46.92-2.06,1.35-3a14.46,14.46,0,0,0,3.82.56c.81,3.52,2.7,4.38,6.63,3.22,0-2.48-.39-5.22-2.73-7-1.63-2.56-4.63-4.53-7.32-1.57a17.86,17.86,0,0,0-2.94,2.17,1.54,1.54,0,0,0-.32-.23,11.58,11.58,0,0,0-1.82,2.72c-2.26-.39-3.51-.47-5.1-1.64-3,1.17-5.1,1.88-8.11,1.27-1.19-2.93-.13-3.55,5.31-4.16.13-.39-.32-.9.38-1.18-3.51.91-5.47,1-6.75-1.77a21.9,21.9,0,0,1-3.37.69,30.8,30.8,0,0,1-.7,5c-3.54.63-6.43-.07-4.63-4-2.17,0-4.15-.34-6.3-.53A10.57,10.57,0,0,1,221.69,98c-3.35-.28-4.69-.17-5.79-3.39-.53.59-1.31,1.34-1.82,2-7-.58-7.52-6.75-.37-5.6-3.13-1.11-4.25-1.2-3.49-4.4-3.2,0-4.43-.15-5.28-2.86-.69.8-2.58-.31-2.14,2.48-3.26.3-5.52.07-5.77-3.62-.13-.12-.25-.2-.38-.31Z"/><path id="path4269" class="cls-12" d="M197.69,81.8c2,3.58,2.26,1.46,4.38,1.27,3.69-3.94,2.59.22,3.77.31,2.62-1.41,4.34-.21,5.86.19.93.76.79,1.7,1.17,2.52,1.9-3.5,3.32-2,5.32-1.68,2.72.2,1.78,2.07,2.52,2.93,3.58-1.18,1.33,1.22,2.56,2.34-1.25,1.68-2,1.42-4.6,1.43-3.52-.31-3.48.54-5,2.61-1.11-2.23-3.09-.76-3.72-.91-1.8,3.38-4.39,2.19-5.37,2.27-.36-1.8-2.72-2.31-3.55-3-4.25-1.28-5.86-2.6-4.64-6.44-2-1.85,1-2.83,1.35-3.82Z"/><path id="path4305" class="cls-13" d="M209.1,101.23c-.35,2-2,.6-3,.9-3.64-1.74-4.1.6-5.15,2.47-3.62-1.39-5.32-.07-7,.57,0,0-7.65,6.33,8.15,5,1.1-1.75,4.51-3.59,5.95-4.13,1.29-1.71,2.65-1.57,4.8-2.21,2.63,1.68,3.38.67,5.57.47,0-2.52,2.28-1.88,3.18-2.63-2.25-2.74-4.25-2.51-7-.73-3.25-2.28-3.19-1.41-5.47.27Z"/><path id="path4317" class="cls-14" d="M232.78,108.42c-1.87-.66-3.39-1-5.47-.28-.57-.53-1.46-.26-1.7-1.57a5.24,5.24,0,0,0-3.17-1c-1.69-.28-2.78-.57-4.51.51a11.62,11.62,0,0,0-3.59-.83c-1.49.79-3.14,1.64-4.66,2.29-2-.38-1.81,0-2.54,1.21,1.92,1.47,4.05,1.31,6.43.89,2.16,1.39,4.15,1.14,6.63.91a10.46,10.46,0,0,0,3.74-.94c2,1.11,4,1.09,6.44.72,3.13.63,5,.07,2.4-1.94Z"/><path id="path4281" class="cls-15" d="M187,89.36c-1.76-.27-2.09.77-2.72,1-3.86-.33-3.75.49-4.85,2.77,2.38,1.37,4.46,1,6.82,1.29a25.82,25.82,0,0,1,3.15-2.2c2,1.58,3.08,1.4,6.53.75.92.17,1.17-.86.46-1.61C193.09,87.55,189.85,88.31,187,89.36Z"/></g><g id="g4969"><g id="g4542"><path id="path4499" class="cls-16" d="M169,123.68a13.91,13.91,0,0,1-9.2.82,11.88,11.88,0,0,1-9-.16c-2.95.78-6.24.84-8.63-1.15-2.11.16-3.83.07-5.26-1.32-1.77-.16-2.87,0-4.13-1.48a8.59,8.59,0,0,1-4.69,0c-1.16.68-2.19,1.34-3.94.66-.25.37-.75,2.77-3.38,1.31a6.37,6.37,0,0,1-5.25.17,8.16,8.16,0,0,1-2.07.33c-2.19.38-4.48.76-6.38-.83-2.25,0-3.44,0-5.06-1.31-2.15.37-3.51.76-4.32-1.15,1.67-2.94,4.11-2.43,6.94-3.3.55-1.07.56-1.65,2.44-1.48.66-1,.8-1.73,2.44-2.14,0-.15-.83-1-.37-1.64-1.18-1-1.9-1.84-.57-3.3-.44,0-1.72-.44-2.44,0-1.63.15-2.7.18-3.94-.82-1.78-.16-2.07.11-2.44-1.64a4.43,4.43,0,0,1,4.51-.66,6.37,6.37,0,0,0,1.87-.83c.53-1.54,0-1.58,1.88-1.64s.74-1.85,3.38,0c.83-2.47,3.16-2.21,4.5-2,2.81-2.14,5.76-.94,7.7.33,4.29-3.51,8.57-3.21,13.14-1,.91,1.24.34,1.69,0,2.8a7.76,7.76,0,0,0-2.07.17c3.31-.27,3.95.69,4.51,3.12,1.66-.58,2.06.1,3,.83,2.69,0,4.05-.13,6,1.15a4.12,4.12,0,0,1-.56,4.28,8.07,8.07,0,0,1,3.57,2.14,7.58,7.58,0,0,1,6.75.33,13.63,13.63,0,0,1,4.7-.33c1.2-.26,1.23.76,1.87,1.15,2.09-1.5,4.83-1.16,6.76-.66a12.07,12.07,0,0,1,8.44.83c1.37,1.21.1,1.88-.37,2.63,2.64,2.39-1.1,3.88-4.32,3.62-1.81,1.47-3.71,1.54-6,2.14Z"/><path id="path4507" class="cls-17" d="M119,99a5.43,5.43,0,0,0-3.16,1.17c-1.34-.23-3.67-.49-4.5,2-2.64-1.85-1.56,0-3.38,0s-1.35.1-1.87,1.64a6.53,6.53,0,0,1-1.88.83,4.45,4.45,0,0,0-4.51.65c.37,1.75.66,1.49,2.44,1.65,1.24,1,2.31,1,3.95.82.71-.44,2,0,2.44,0-1.34,1.46-.62,2.26.56,3.3-.46.66.34,1.49.37,1.64-1.63.41-1.78,1.1-2.44,2.14-1.88-.17-1.9.41-2.44,1.48-2.83.87-5.27.36-6.94,3.3.81,1.91,2.17,1.52,4.32,1.15,1.62,1.34,2.81,1.31,5.06,1.31,1.9,1.59,4.19,1.21,6.38.83a8.16,8.16,0,0,0,2.07-.33,6.41,6.41,0,0,0,5.25-.16c2.62,1.45,3.12-1,3.38-1.32,1.75.68,2.78,0,3.94-.66a8.59,8.59,0,0,0,4.69,0c1.26,1.45,2.36,1.32,4.13,1.48,1.43,1.39,3.15,1.49,5.26,1.32,2.39,2,5.68,1.92,8.63,1.15a11.88,11.88,0,0,0,9,.16,13.94,13.94,0,0,0,9.19-.82c2.3-.6,4.2-.67,6-2.14a8.57,8.57,0,0,0,3.65-.48,3.37,3.37,0,0,1-2.33-3.14,15.57,15.57,0,0,1-6.2,1.48c-3,.78-5.4,1.13-7.88-.82a8.76,8.76,0,0,0-1.5,1.32c-3.19,1.12-6,.58-6.57-2.47-1.48.21-3.76.68-4.69,2.63-3.91,0-10-2.65-4.13-4a6.67,6.67,0,0,1,.19-2.31c-.72,0-1.69-.55-2.44.17-1.72-1.12-2.61-1.67-1.5-3.62-.63.11-1.36-.25-1.88.33-2.15,1.46-3,1.5-5.44.66l-1.32,1.15c-2.86.45-5.45.36-4.69-2.8a6.7,6.7,0,0,1-2.44-.33c.9-.89,1.66-2,3-2.14a17.68,17.68,0,0,1,5.45-.82c-1.31-.35-2.67-.47-3.76-1.48-2.61.68-5,0-3.75-3.46-1.79.28-3.34.51-4.5,2-.73-.2-1.24-1.12-2.63-.33-1.5-1.51-2.17-2.41.37-3a7,7,0,0,0,.7-1A6.16,6.16,0,0,0,119,99Zm-2,8.25a6.76,6.76,0,0,0,1.5,1.32c-1,.49-.37,1.27-.56,2,1.57.68,3.23,0,4.5-.33,1.53,2.3,2,3.19-.09,4.45-.25,0-.4,1.06-1.41.66-2.87.68-6.16.31-4.88-3.3-.57-.8-1.81-.93-1.69-2.38-.23-1.11,1.93-1.83,2.63-2.39Z"/></g></g></g></g><rect class="cls-18" width="448" height="300"/></g></g></svg>