<svg xmlns="http://www.w3.org/2000/svg" xmlns:xlink="http://www.w3.org/1999/xlink" viewBox="0 0 422.58 111.27"><defs><style>.cls-1{fill:url(#Безымянный_градиент_11);}.cls-2{fill:#fff;}.cls-3{fill:url(#Безымянный_градиент_13);}.cls-4{fill:url(#Безымянный_градиент_13-2);}.cls-5{fill:url(#Безымянный_градиент_14);}.cls-6{fill:url(#Безымянный_градиент_15);}.cls-7{fill:url(#Безымянный_градиент_16);}.cls-8{fill:url(#Безымянный_градиент_17);}.cls-9{fill:url(#Безымянный_градиент_18);}.cls-10{fill:url(#Безымянный_градиент_19);}.cls-11{fill:url(#Безымянный_градиент_20);}.cls-12{fill:url(#Безымянный_градиент_21);}.cls-13{fill:url(#Безымянный_градиент_22);}.cls-14{fill:url(#Безымянный_градиент_23);}.cls-15{fill:url(#Безымянный_градиент_24);}.cls-16{fill:url(#Безымянный_градиент_25);}.cls-17{fill:url(#Безымянный_градиент_26);}.cls-18{fill:url(#Безымянный_градиент_27);}.cls-19{fill:url(#Безымянный_градиент_28);}.cls-20{fill:url(#Безымянный_градиент_29);}.cls-21{fill:url(#Безымянный_градиент_30);}.cls-22{fill:url(#Безымянный_градиент_31);}.cls-23{fill:url(#Безымянный_градиент_32);}.cls-24{fill:#d9e3ec;}.cls-25{fill:url(#Безымянный_градиент_33);}.cls-26{fill:url(#Безымянный_градиент_34);}.cls-27{fill:url(#Безымянный_градиент_35);}</style><linearGradient id="Безымянный_градиент_11" x1="291.26" y1="248.42" x2="293.24" y2="196.67" gradientTransform="matrix(1.11, 0, 0, -1.12, -37.09, 322.11)" gradientUnits="userSpaceOnUse"><stop offset="0" stop-color="#fff"/><stop offset="1" stop-color="#e1bfbf"/></linearGradient><radialGradient id="Безымянный_градиент_13" cx="386.77" cy="-224.09" r="22.03" gradientTransform="matrix(-0.49, 0.66, 2.64, 1.99, 1067.35, 210.32)" gradientUnits="userSpaceOnUse"><stop offset="0" stop-color="#eff5f9"/><stop offset="1" stop-color="#c7dbeb"/></radialGradient><radialGradient id="Безымянный_градиент_13-2" cx="264.86" cy="-928.39" r="47.22" gradientTransform="matrix(2.26, 0.47, 0.06, -0.3, -265.37, -362.98)" xlink:href="#Безымянный_градиент_13"/><linearGradient id="Безымянный_градиент_14" x1="288.83" y1="-524.1" x2="288.83" y2="-461.21" gradientTransform="matrix(1, 0, 0, -1.15, 0, -496.46)" gradientUnits="userSpaceOnUse"><stop offset="0" stop-color="#e2bfbf"/><stop offset="0.38" stop-color="#739ec5"/><stop offset="1" stop-color="#d2e0eb"/></linearGradient><radialGradient id="Безымянный_градиент_15" cx="17.23" cy="-426.76" r="26.4" gradientTransform="matrix(-0.18, -0.68, -1.92, 0.52, -399.37, 258.88)" gradientUnits="userSpaceOnUse"><stop offset="0" stop-color="#b7cfe7"/><stop offset="1" stop-color="#e1ecf4"/></radialGradient><linearGradient id="Безымянный_градиент_16" x1="272.32" y1="-536.76" x2="272.32" y2="-527.77" gradientTransform="matrix(1.11, 0, 0, -1.12, -37.09, -520.4)" gradientUnits="userSpaceOnUse"><stop offset="0" stop-color="#80a7ca"/><stop offset="1" stop-color="#abc6da"/></linearGradient><linearGradient id="Безымянный_градиент_17" x1="250.98" y1="-504.38" x2="251.25" y2="-487.95" gradientTransform="matrix(1.97, 0, 0, -1.32, -173.5, -584.9)" gradientUnits="userSpaceOnUse"><stop offset="0" stop-color="#80a7ca"/><stop offset="1" stop-color="#aec7dd"/></linearGradient><linearGradient id="Безымянный_градиент_18" x1="298.08" y1="-630.72" x2="297.71" y2="-636.63" gradientTransform="matrix(1.39, 0, 0, -0.7, -111.83, -379.4)" gradientUnits="userSpaceOnUse"><stop offset="0" stop-color="#d3e1f0"/><stop offset="1" stop-color="#9bbad5"/></linearGradient><linearGradient id="Безымянный_градиент_19" x1="234.62" y1="-519.16" x2="189.42" y2="-518.85" gradientTransform="matrix(1.06, 0.09, 0.08, -0.93, -16.22, -417.95)" gradientUnits="userSpaceOnUse"><stop offset="0" stop-color="#e4edf4"/><stop offset="1" stop-color="#a7c3da"/></linearGradient><linearGradient id="Безымянный_градиент_20" x1="236.29" y1="-471.4" x2="277.38" y2="-463.42" gradientTransform="matrix(1.28, 0.11, 0.09, -1.12, -73.25, -472.8)" gradientUnits="userSpaceOnUse"><stop offset="0" stop-color="#bad0e2"/><stop offset="1" stop-color="#ffe5c3"/></linearGradient><linearGradient id="Безымянный_градиент_21" x1="229.47" y1="-465.92" x2="245.88" y2="-462.15" gradientTransform="matrix(1.28, 0.11, 0.09, -1.12, -73.25, -472.8)" gradientUnits="userSpaceOnUse"><stop offset="0" stop-color="#bad0e2"/><stop offset="1" stop-color="#fbfcfd"/></linearGradient><linearGradient id="Безымянный_градиент_22" x1="232.38" y1="-518.74" x2="211.16" y2="-525.19" gradientTransform="matrix(1.06, 0.09, 0.08, -0.93, -16.22, -417.95)" gradientUnits="userSpaceOnUse"><stop offset="0" stop-color="#eef3f8"/><stop offset="1" stop-color="#d8e5ef"/></linearGradient><linearGradient id="Безымянный_градиент_23" x1="245" y1="-523.62" x2="225.09" y2="-523.81" gradientTransform="matrix(1.06, 0.09, 0.08, -0.93, -16.22, -417.95)" gradientUnits="userSpaceOnUse"><stop offset="0" stop-color="#fff"/><stop offset="1" stop-color="#eef3f8"/></linearGradient><linearGradient id="Безымянный_градиент_24" x1="206.18" y1="-506.74" x2="205.56" y2="-513.2" gradientTransform="matrix(1.06, 0.09, 0.08, -0.93, -16.83, -418.57)" gradientUnits="userSpaceOnUse"><stop offset="0" stop-color="#fff"/><stop offset="1" stop-color="#b9cfe2"/></linearGradient><linearGradient id="Безымянный_градиент_25" x1="152.76" y1="-598.6" x2="163.41" y2="-578.17" gradientTransform="matrix(1.07, 0, 0, -0.94, -26.92, -452.87)" gradientUnits="userSpaceOnUse"><stop offset="0" stop-color="#a5bcd5"/><stop offset="1" stop-color="#fff"/></linearGradient><linearGradient id="Безымянный_градиент_26" x1="167.7" y1="-592.28" x2="168.13" y2="-587.34" gradientTransform="matrix(1.07, 0, 0, -0.94, -23.91, -454.85)" gradientUnits="userSpaceOnUse"><stop offset="0" stop-color="#b5c8dd"/><stop offset="1" stop-color="#eff3f7"/></linearGradient><linearGradient id="Безымянный_градиент_27" x1="117.48" y1="-537.58" x2="112.17" y2="-546.69" gradientTransform="matrix(1.38, 0, 0, -1.21, -44.18, -561.66)" gradientUnits="userSpaceOnUse"><stop offset="0" stop-color="#fff"/><stop offset="1" stop-color="#c5d4e5"/></linearGradient><linearGradient id="Безымянный_градиент_28" x1="108.13" y1="-551.19" x2="115.95" y2="-540.34" gradientTransform="matrix(1.38, 0, 0, -1.21, -44.18, -561.66)" gradientUnits="userSpaceOnUse"><stop offset="0" stop-color="#a5bcd5"/><stop offset="1" stop-color="#dbe5ef"/></linearGradient><linearGradient id="Безымянный_градиент_29" x1="174.82" y1="-582.76" x2="175.74" y2="-578.85" gradientTransform="matrix(1.07, 0, 0, -0.94, -23.91, -454.85)" gradientUnits="userSpaceOnUse"><stop offset="0" stop-color="#dee6ef"/><stop offset="1" stop-color="#f5f7fa"/></linearGradient><linearGradient id="Безымянный_градиент_30" x1="34.45" y1="-642.35" x2="30.93" y2="-655.03" gradientTransform="matrix(1.29, -0.08, -0.07, -1.13, -35.06, -668.29)" gradientUnits="userSpaceOnUse"><stop offset="0" stop-color="#fff"/><stop offset="1" stop-color="#b4c8da"/></linearGradient><linearGradient id="Безымянный_градиент_31" x1="29.07" y1="-527.59" x2="30.3" y2="-519.95" gradientTransform="matrix(1.29, -0.08, -0.07, -1.13, -21.28, -523.93)" gradientUnits="userSpaceOnUse"><stop offset="0" stop-color="#8fb7db"/><stop offset="1" stop-color="#dce6ee"/></linearGradient><linearGradient id="Безымянный_градиент_32" x1="1.67" y1="117.66" x2="9.54" y2="110.49" gradientTransform="matrix(1.29, -0.08, -0.07, -1.13, 19.39, 185.54)" gradientUnits="userSpaceOnUse"><stop offset="0" stop-color="#d9e3ec"/><stop offset="1" stop-color="#b4c8da"/></linearGradient><linearGradient id="Безымянный_градиент_33" x1="23.75" y1="-665.03" x2="14.96" y2="-673.13" gradientTransform="matrix(1.16, -0.07, -0.07, -1.02, -38.62, -615.75)" gradientUnits="userSpaceOnUse"><stop offset="0" stop-color="#eef2f6"/><stop offset="1" stop-color="#d1dde8"/></linearGradient><linearGradient id="Безымянный_градиент_34" x1="34.77" y1="-648.92" x2="27.59" y2="-642.9" gradientTransform="matrix(1.44, -0.09, -0.07, -1.13, -34.61, -668.48)" gradientUnits="userSpaceOnUse"><stop offset="0" stop-color="#c5d4e5"/><stop offset="1" stop-color="#d5e0ea"/></linearGradient><linearGradient id="Безымянный_градиент_35" x1="23.16" y1="-485.94" x2="9.23" y2="-481.89" gradientTransform="matrix(1.4, -0.09, -0.08, -1.29, -20.44, -571.05)" gradientUnits="userSpaceOnUse"><stop offset="0" stop-color="#d5e0ea"/><stop offset="1" stop-color="#fff"/></linearGradient></defs><title>clouds</title><g id="Layer_2" data-name="Layer 2"><g id="Layer_3" data-name="Layer 3"><g id="g4653"><g id="g5154"><path id="path4447" class="cls-1" d="M211.44,53.92c-1.4-.06-2.15.91-3.48,2.7a14.4,14.4,0,0,0-1.11,3l.24.22c-.34.91-.41,1.17-.87,2.34.21-.86.41-1.71.63-2.56-1.78-1.63-2.43-.86-4.4-.66-1.51-1.3-2.85-.77-4.63-.59-.39-3.15-2-1.21-2.9-1.76-2.39-.84-1.46.74-2.89,1.47-4.82-5.69-9.06-2.92-12.75,2-5.47.71-9.82,4.24-10.72,8.79a17.77,17.77,0,0,0-.29,4.69c2.71,1.5,7.08.86,9.85.58-3.18,1.15-.79,2.4-1.16,3.52-4.14,0-6.61-1.59-5.92,1.92l-2.48,3.06c-3.48-1.56-14.61-1.34-16.05.84-2.91,1.27-1.89,3.6-1.44,5.86-.56,7.77,18.68,5.2,23.87,4.73,4.26,1.32,8.66-.44,13-1.18,1.41,5,6.47,3.52,11.3,3.52,1.76,3.75,7.08,2.34,11,2.34a22.61,22.61,0,0,0,11-3.22c3.33,1.82,7.14,2.13,10.72,3.52,6.76,3.25,14.83,2.5,22,1.46,1.64,1.78,4.18,1.68,6.37,2.05a22.31,22.31,0,0,0,7.82-1.76c7.58,3,18.29,2.21,25.2-.58,16.34-9.21,53.51-12.15,70.1-4.69,17.39,8.21,39.55,8.88,59.07,7.53V64.23c-28.72-4.64-58.74-10.42-88.33-9.66-7.22.19-14.17,3.22-21.14,3.22-8.67,2.64-26.68-1.5-38.53,0l-59.67-2.63a9.07,9.07,0,0,0-3.47-1.24Z"/><path id="path4394" class="cls-2" d="M390.42,13.12c-3.29-.89-5.33-1.65-9,.2-1.5.95-1.6,2.13-2.2,3.64-2.3-.85-4.08.1-5.8,1.61-.39,1.21,0,1.89.21,3-3.67.17-6.62,2.52-8.8,5.46-4.28-5.07-9.19,1.66-9.19,6.26-2.41-.51-4.86.87-7,1.82-.18-2.94-.17-4.61-3.4-3.63-1.13-2.76-2.62-2.71-4-.21a5.24,5.24,0,0,0-7.4,5.26c-4.09-1.27-8.22.59-9,4.44-.43,2.23.85,3.72,2.19,5.46-1.84.6-1.6,2.89-1.6,4.85C330.12,55.37,338,55,343.86,55c6.2,4.12,13.45,3.23,20.58,3.23,2.7,4.67,10.15,3.28,15,2.83,5.67,2.61,12.3,1.18,18.18-.61,7.77,3.67,17.11,3.69,25,2.67V1.13c-1.15-.44-2.07.34-3.19,1.48-1.76-1.82-2.52-1.32-3.8.4C413,1.94,413,2.4,412.2,4.22c-2.4.27-3.23.66-4.4,2.43-1.21-1.38-2.26-.41-3.6.61-8.1-8.35-12.69.57-13.78,5.86Z"/><path id="path4208" class="cls-2" d="M336.61,54.83c1.55.69,5.14,2.85,6.27-1.16-.4-4.06-4-6.18-7.41-3.46-.53-.81-1-2.45-2.28-3.45,0-1.92,1-2.62-1.7-3.46,1.94-1.1,2.57.18,2.27-3.17.6-3-.31-4.93-2.84-1.73-1.18-.49-.63-2.43-3.42-1.44-.39-1,.09-2.12-1.14-2.88,1.68-1.28,2.55-.89,2-3.75.4,0,1.12,2,3.14.29.73-3.71-.26-6.28-4.56-4.32-.84-1.9.31-3.28-3.71-2.31a33.59,33.59,0,0,0-11.11-.86c-.86.19,0-3.27-2.56.58-.69.54-2.46-1-2.56,2-1.15-2.59-.49-3.08-3.71-1.73-1.33-1.34-1.39-2.75-4.27-1.15-.38-.95-1.07-1.69-1.14-2.88,2.47-1.87,3-2.52.85-6.63-1.33-3-1.5-5.4-5.69-5.76-1.29-1-1.82-2.25-4.28-2.59-.72-3.68-2.39-6.34-4.84-3.46-2-1.11-5.14-2.92-8.26.29-9.23,5.76-8.39,17.23-12.54,24.78-2.92.1-2.32.45-3.13,3.17-2.79-3-4.4-3.6-6,0-4.51-3.7-8-3.07-7.41,2.88-.5,1.14.91,1.38,1.14,1.73-3,1.47-2.51,2.58-2,5.18-2.93.36-2.57.8-2.57,3.75-2.61-.89-3.27.25-4.84,1.44,3.17,2.68,5.15,3,8-.29a12.09,12.09,0,0,0,7.69.87l1.71,3.17c-4.11,4.4,4,5.22,8,1.15,1.11-.76,2.27-.57,3.42-.87-.15,4.66,3.5,5,7.12,4.61,3.6,3.81,7,1.76,11.11,0,3.84,1.38,8.91,2.87,14.53,1.73,3.22-1.65,1.21-2.55.86-3.74,2.35-1.12,3.67-.16,5.13.29,2,5.5,6,3.63,9.11.86-.36-4.47,3.44-2.59,6.84-2.59.7,1.56,0,2.41,0,3.74,2.95,2.06,4.32.81,6.27-.29,2.86,2.52,5.29,2.43,8.54,1.44Z"/><path id="path4187" class="cls-3" d="M276.5,1.52c2.48.2,3,1.81,4,2.59-1.34.66-2,2.21-2.56,2.88,1.15,3,1.92.39,2.85.58,1,1.74,2.48,2,4,2.31C287.6,8.05,287.35,8.74,289,11c3.61.91,1.53,2.41.85,3.46,4.7,2.82.39,2.24,1.14,4-4.38-2.69-6.11.15-6.55,4.61.32,1.43,3.61.86,5.7.86-4.09,5.13.45,7.71,5.41,7.21,1.05-.5,1.79-2,2.28-2.6,1.44,3.23,1.94,3.75,5.41,3.75,1.34-.84,2.76-1.4,4-2,1.9,2.23,3.54,2,6.27,2A15,15,0,0,0,317,35.23c-1.19,1.25-.74,2.06-1.14,3.17-2.66,1-2.18,1.48-2.85,3.75-.53-1-1.52-.39-2.28-.58.79-4.14-.85-2.65-2.56-2.3-2.18-1.43-2.18-.53-4,.28-3-3.24-5.84-2.8-8.26,0,1.8.41.38,1.35.57,2-2.59-1-3.39-.88-6,.58.91-3.4-.51-2.47-2.56-2.88-2.41-.83-4.67-.54-7.12-.29-.06-2.43-.34-3.73-1.43-5.19-1.69-2.26-2.81-1.15-4-1.15-.56-3.6-.59-2.58-2.84-.87-3,.09-4-1.56-5.7-2.88-.11-3.92-2.34-3.16-5.13-2.88-.64-3.11.81-4.31,2.56-6.34-2.84,1.43-4.14,2.78-5.69-1.15,1.79-3.5,5.22-4.57,8.26-5.19-1.13-4.2-.81-6.59,2.28-8.93,2.55-2.28,3.86-2.52,7.4-2.88Z"/><path id="path4226" class="cls-4" d="M260.7,27.29a16.43,16.43,0,0,0-.72,2.47c-2.78-2.94-4.4-3.6-6,0-4.51-3.7-8-3.07-7.41,2.88-.5,1.14.91,1.38,1.14,1.73-3,1.47-2.51,2.58-2,5.18-2.94.36-2.57.8-2.57,3.75-2.61-.89-3.27.25-4.84,1.44,3.17,2.68,5.15,3,8-.29a12.15,12.15,0,0,0,7.69.87l1.71,3.17c-4.11,4.41,4,5.22,8,1.15,1.11-.76,2.27-.57,3.42-.86-.15,4.65,3.5,5,7.12,4.6,3.6,3.81,7,1.76,11.12,0,3.83,1.38,8.9,2.87,14.52,1.73,3.22-1.65,1.21-2.55.86-3.74,2.35-1.12,3.67-.16,5.13.29,2,5.5,6,3.63,9.11.86-.36-4.47,3.44-2.59,6.84-2.59.7,1.56,0,2.41,0,3.74,2.95,2.06,4.32.81,6.27-.29,2.86,2.52,5.29,2.43,8.54,1.44,1.55.7,5.14,2.86,6.27-1.15-.4-4.06-4-6.18-7.41-3.45-.36-.55-.72-1.48-1.29-2.33a22.93,22.93,0,0,0-3,2.9c-.66-1.49-1.58-2.18-2-4-1.27.74-2.62-1-3.42,2-.91-.84-2.66-1.8-3.42-3.18-4.37-.44-6.79.84-10.26,2.31-1.56-.32-2.32-1-4,0V45c-1.71-2.6-2.38-4.18-6.27-2.31-1.95-1.48-1.9-2.6-5.41-.86-1.74.58-5.22,1.71-6.27,4.9-.76-.2-1.77,1.42-2.28-.58-.22-.88-3.1-.59-.86-3.46-2.16-1-4.5-2.17-7.69,1.16,0,1.12.6,3.43-.57,5.47-1.09-1-2.71-1.77-3.13-3.75-.38-4.22-2-5.15-5.13-2.59-1.95-.88-2.9-1.86-4.84.58-2.06-.21-2.9.22-4.56-1.73,1.5-2.73,2.44-3.72,5.7-1.73.37,0,2.08-.93,2.85,0,1-.55,1.71-2,4-2-.53-1.62-.93-5-4.55-5.47-2.07-2.78-5.18-4.62-8.83-1.73a22.72,22.72,0,0,0,.43-3.62Z"/><path id="path4331" class="cls-5" d="M341.92,32.41a4.62,4.62,0,0,0-2.61.93c-1,.19-2.67-.81-3.34,1.53-2.54-1.92-5.93-1.19-5.16,4.61-3.81,1.7-2.61,2.41.61,3.38.48,3.87,2.42,4.06,6.07,3.69.89-4.63,2.44-1.24,3-1.54-.52,2.15,1.23,2.08,1.82,3.08-3-1.57-3.94-.08-5.47.61-3.22-2.11-2.85.62-4.25.92-3.2-1.54-4.55-.58-6.68.62-1.64-3.61-4-1.06-7,.3-2.68.92-4.46-.32-7.6.31-3-1.6-5.69-1.84-9.11-1.84-3.42-1.36-6.73,0-8.51.92-1.8-2.73-2.87-.67-3.95-.92-3.61-.53-5.84-1.1-10.33.92-2.46-1.19-4.09-3.84-5.47-5.22-1.05.46-.4,1.43-.6,2.15-2.57,1.2-5.46.79-7.9,1.53-1.62,1.11-.25,1.51-.31,1.85-3.9.42-4.84-1.05-5.16-4.3-2-4-3.19-3.25-5.77-2.77-4-3-6.37-.94-8.81,1.84-2.8,1.38-.82,2.15-1.53,4a25.13,25.13,0,0,0-5.77-2.15c-3.17-.59-1.43,1.27-2.43,2.15-1.37-3.46-2.8-1.85-4.25-1.85-1.32-4.26-4.07-3.11-6.38,0-1,1.73-.44,3.24-.3,4.61-.72.14-1.5,1.26-1.83,1.54-1.52-4.69-7.12-5-9.42-.31-.72,3-.46,2.65,2.13,4.61l1.52-.31C219,59.07,220,58.74,222,59.15a23.73,23.73,0,0,1-7,0l-1.52.31c-3.53-3-6.07-4.1-6.07.3,1.5,1.72,2.51,1.63,4.25,2.15,2.11,2.51,3.68,2.13,7,2.46,1.86.26,2.54.88,4.25,1.85a13.94,13.94,0,0,0-8.81-.93A17.33,17.33,0,0,0,205,64.06c-2.46-2.43-4.82-2.29-7.29-1.84a9.74,9.74,0,0,0-6.08-.31c-3.24.29-6.68.93-9.72.93-1.13-1.56-.91-2.82-.91-4.61-3.59.36-3.41,2.46-3.65,4.91a19,19,0,0,0,9.72,2.15c2.47-1.17,4.71.76,7.29,1.54-1.06.31-2,.42-3,.62-4.2,1.74-8,.58-11.85-.31a7.64,7.64,0,0,0-7-2.46c-2.19.09-2.81,1.74-4.25,3.69-4-.92-4.56,1.1-4.56,4.91a57,57,0,0,0,6.68,1.23,27.6,27.6,0,0,1,4.86-.3,17.07,17.07,0,0,0,9.42-1.54c3.36,1.66,8.88,2,12.76,2.77,1,1.26-.5,1.52-.61,1.84a25.12,25.12,0,0,0-10.32-1.84c-3.4.36-6.31,1.83-9.73,2.15,2.43,1.68,4.37,1.82,7.6,2.15a18.47,18.47,0,0,1-6.69.92c-4.4-2.63-4.88-.55-6.07,2.15,26.62,3.17,17.11.47,10.63,3.38-3.74-2.62-8-2.86-11.24,0-2.7,1.25-13.34,1.18-15.9.63-.58,3.2,8.51,2.24,11.34,3.67-1.09,1.05-2.4.41-3.64.62,2.47,3.83,6.2,2,10.33.92,3.36,4.06,9,2.32,13.67,1.23,3.16-1.57,6.43-.83,9.66,0a4.16,4.16,0,0,1,1,.26l-1-.26c-1.73-.23-1.79,1.33-3,1.79,3.52,2.16,7.19,1.83,10.94.31A55.41,55.41,0,0,0,213.53,93c1.91,1.19,4.54.38,6.38,0-.13-1.72-.47-2.71-1.21-3.39A13.2,13.2,0,0,1,215.36,88a8.34,8.34,0,0,1,3.34,1.52c3.61,1.06,7.57.69,11.24.32.64,4.52,3.38,4.3,7.6,4.3,1.81-2.32,3-2.11,3.34,1.54-.79,2.78-.36,1.84,1.82,3.07,3.29-.39,6.09-1.37,9.42-2.15,3.14,2.93,7.19,2.76,11.24,2.76,1.66-1.34,3-2.71,4.56-4,1.83.77,3.21,0,4.86-.31,5.07,3.66,12.75-1,17.88.5a7.44,7.44,0,0,1-1.34,1.59c-4-1.46-6.29-.44-9.63,1.58,2.19,2.75,4,3,7.39,3a41.23,41.23,0,0,0,4.7-1.59,21.71,21.71,0,0,0,14.1-.9c1.54.81,2.72-.26,3.36-.46-.14-1.19.28-1.66.45-2.72,1.75-.73,3.55-.41,5.37-.22.25,2.72,1.7,2.68,4.26,2.94,2.66,4.15,11.52,2.09,15.67.23a11.74,11.74,0,0,0,8.28.23c-.65,1.3.05,2.5.23,3.39,4.68,2.12,9.76,0,14.1-1.58a6,6,0,0,1,2.24.45c.77,3.25,2.66,5.17,5.6,6.79,6.37,3.29,41.71,4.72,57.14-.22V97.28a17.76,17.76,0,0,0-7,.59c-4.95-4.39-15.65-5.25-22.83-3.17-1.11-1-2.08-2-3.14-3-2.58-.71-7.1-.44-10.3-1.13.15-.53-.33-1.25.45-1.59,4.52,0,8.81-.23,13-2,1.45,2,1.7,2.23,5.15,1.59,5.54-1.12,11.53,1.64,17-.45-.75-.6-1.55-.63-2-1.59-4.57,0-9.61,0-13.44-1.81a6.84,6.84,0,0,0-6.71-.45c-1.54-1.55-3.26-2.66-5.15.68a17.32,17.32,0,0,0-4.26.22c-2.43,0-4.13.31-5.37-2.26-1.81-1.83-2.93-2-6.49-.45-2.65,0-4.86.12-6.94,2-2.65-2-7.34-1.41-11.65-.22a12.11,12.11,0,0,0-8.06,0c-.18-1,.22-1.72-.45-2.49-2.12-.22-4-1-4.7,1.36A6.79,6.79,0,0,1,337,86.32a45.4,45.4,0,0,0-10.08-.91c-1-2.42-1.53-4.31-4.25-4.53C324.51,79,325,77,321.56,76.35a18.91,18.91,0,0,1,2.24-2.26,14.25,14.25,0,0,0,14.77,2c3.37,1.9,9.06,1.5,13,.46.64,1.45.5,2.38,2.34,3.16,4.53-.33,10-.42,13.67-4.61A43,43,0,0,0,374.86,77c3.38-.34,5.85-2.08,8.81-1.84.06.25-2,3,.61,2.76,1.64.34,5.69,1,8.81-.92,3.29,0,6.63-.8,9.42-.61,1.23,1.66.12,2.52,3.34,3.07,3.51,2,5.84,2.64,9.12,0,2.49,1.4,5.26,1.09,7.61,2.3V38A7.65,7.65,0,0,0,418,39.79c-3.28-.33-6.88.55-8.81,4.61-2.29-.47-5.11-.9-7.9.31-2.26-1.28-3.47-2.2-6.68-1.23-3,1.08-5.55,2.46-8.81,1.53a16.22,16.22,0,0,0-7.9,1.85c-.74-.23-3.15-1.67-5.17-1.23,3.78-3.83,5.39-.5,10.33-2.46,2.37,1.06,3.43,1.94,6.08-.62,2,.19,3.87,1.25,5.47-2.76,4.57-3.47-.08-4.07-4.25-2.15-3.11-2.35-2.18-4.11-5.47-2.15-1.4-1.06-2.79-2.9-5.77-2.46-3.15-.64-5.06-1.34-5.48,3.38-.65.06-3.78-.6-6.07,1.84-.64-1.68-.17-2.54-1.52-4-4.06-1.83-3.56.19-7,2.76-1.35-1.83-1-3-4.25-2.15-.72-.06-1.32-2.82-3.34-.31-1.59.17-3.2-1.2-4,2.46a20.72,20.72,0,0,0-3.34-2.76c-1.05-.79-1.34-1.75-2.26-1.85Z"/><path id="path4409" class="cls-6" d="M419.4,5.44c-1.79-.06-3.3.95-5,2.63-3-1-4.22,0-6.38,1-2.45-2.23-4.18-.8-5.73-.64C398,3.9,393.65,6.32,391.81,11c-1,1.44,1,2.47,1.28,3.23-4-.47-4.46.31-6.69,3.22-.84-4.17-2.87-3.19-5.74-2.9-3.56-1-5.21.33-7.33,1.93a24.77,24.77,0,0,0-1.27,4.19c-3.78-1.78-4.72.44-5.74,4.19,3.95,1.55,7.67.13,11.47-1,0,3.53,1.62,4.31,3.51,5.8-3.28-1.27-3.34-.38-4.78,2.25-4.47-1-5.23.11-7.65,2.9a3.29,3.29,0,0,0,2.23,2.26c3,.91,5.37-.88,8-1.94,2.68,4.87,9.54,4.2,15,4.2a17.93,17.93,0,0,0,2.87,2.25A21.89,21.89,0,0,1,401.69,40c-1.57-2.43-3.69-2.4-5.42-2.58,1.67-3.87,6.29-3.95,9.88-3.22,0,1.28-.21,2.29-.32,3.54,1.31-1.67,2.63-1.24,4.46-1.61,1.27-5.27,9.77-6.47,12.29-2V6.53a6.86,6.86,0,0,0-3.18-1.09Z"/><path id="path4472" class="cls-7" d="M316.8,70.15c-6.56,0-14.21,2.17-19.49-1.75a47.11,47.11,0,0,1-10-.87c-3.82,0-5.61-.22-8.23,2.62-4,1.47-7.05,2.86-10.4,4.39-3.88,0-6.8-1.05-10.39-1.76-3.08.31-4.26.2-6.93,1.76h-8.23c-2.88,0-5.55.08-8.23-1.32-1.3.29-2.89-.65-3.9.88-4.74-.44-9.41-.56-13.86-2.63h-10c2.09,5.32,7.46,3.5,13,3.5,3.32,1.69,6.88,2.36,10.4,3.07,1.38-.9,2.89-.29,4.33-.44,3.67,4.94,9.86,5.26,16,5.26,4-1,8.14-1.53,12.13-2.63,3.35,2.14,6,2.63,10,2.63,2.17-1.74,3.61-1.4,5.64-2.19,3.17,2.84,6.86,2.19,10.82,2.19,7.61-.86,15.73-2.74,23-7,7.36,1.23,13.86-4.73,4.33-5.7Z"/><path id="path4484" class="cls-8" d="M221.32,54.44c0,.71-3.46,1.88,0,4.12,3.73,6.45,9.55,5.16,18.49,5.16,5.87,3.75,14.72,2.58,23.12,2.58,6.77,4.66,14.46,4.64,23.89,4.64a22.89,22.89,0,0,0-1.55,2.58c8.12,5.57,24,2.58,36.22,2.58,5.17-2.71,7.81,3.33,14,2.91,10.85,1.91,27.24-2,38-3.2,11.12-1.43,36.06,2.69,49.08-.28V55.22C393.69,59.08,244.23,66.36,221.32,54.44Z"/><path id="path4560" class="cls-9" d="M332.49,64c-3.77.52-5.89,1.25-10.23.52-6.77.31-15.23,1.38-19.44-1.81-5.09.65-10.05,1.92-15.35,2.07-1.24-.24-2.2-1.09-4.09-.78-3.15,0-6.29.19-9.21-.51-1.56.16-3.32.4-5.11.51-5.25.48-7.93.71-8.7-2.32,5.44-2.16,9.86-1.51,14.32-.26,2.26-1.28,5.87-.42,7.17-.51,2.19-.3,3.42.77,4.6,1,4.18-1.69,7.49-1.56,12.28-1.8a34.53,34.53,0,0,1,7.16.77c2.65.28,5.09.34,7.67.51,5-2.83,9.39-2,13.82-1.28,4.17-.45,1.44,1.08,2,1.54,5.21-.84,8.44.58,12.28,1.81-3.8,1.54-5.34.9-9.21.51Z"/></g><g id="g5137"><g id="g4977"><path id="path4174" class="cls-2" d="M244.32,88.15c0-2.48-.39-5.22-2.73-7-1.63-2.56-4.63-4.54-7.32-1.58a17.49,17.49,0,0,0-2.94,2.18c-.83-.87-3-.31-2.79-2.9,2.54,0,2.8.81,3.19-1.91-1.07-1.49-2.51-3.84-6-3.65-1.36.65-3.18,1.29-3.53,2.61a8,8,0,0,0-1.55-1.34c-3.19-.26-6-.33-8.1,1.27-2.17-1.06-4.39-2.64-7.58-1.84,1.36-1.79,2.59-2.22-.56-3.2-.86-1.84-3.21-7-5.55-2.88a9.23,9.23,0,0,0-7.54-2.32c-1.21-1.68-3-3.8-3.89.41-1.88-.92-3.13-2.26-5.48-.46-1.42-2-4.09-4.56-6.81-1.05-2.31-1.81-5.33-1.78-3.77,2.11-2.52,1-2.7,2.49-3.43,4.79-2.68,3-1.77,3.39-.14,5.07,1.47-.45,2.12,1,2.66,1.19-1.13,2.64-.2,3,1,4.68a13.84,13.84,0,0,0,6.89.09c3.75.76,6.73,1.68,10.37,1.35a13.63,13.63,0,0,0,7.67.63c3.06,2.16,4,2.54,7.85,1.87,3.73,3,6.64,3.59,11.6,3.14,1.52-.59,1.06-1.68,1.59-2.53,3.12,1,6.13,1.65,9.11,0,2.36,1.53,4.07.8,6,.5-.34-1.45.92-2.06,1.35-3a15.33,15.33,0,0,0,3.82.56c.81,3.51,2.7,4.37,6.63,3.21Z"/><path id="path4285" class="cls-10" d="M202.69,90.52c-3.2,1.1-5.76,2.76-9,.7-3.35.26-6.14-.23-8.45,2.48-2.23.87-3.22,1.68-6,.66A26.48,26.48,0,0,1,174.54,96c-2.93-.24-4.53-.35-5.68-3.07l-5.24-.44c-2.29-.19-4-.09-5.8-1.64-.15-.39-3.09-.81-.81-2.09l-2.95-.24c-3.37-.28-3.88-.37-4.34-3.26-2.54,1.19-6.17-.14-5.61-1.58-3.59,1.75-4.91-1.65-3.57-4,1.67-1.43,4-1.63,7.41-.9,2.1-1.35,2.68-1.91,5.4-1.57,1.42-.94,0-3.17,3.49-2.31,2.09-.91,2.51.82,3.53,1.16,2.95-.47,5.87-.14,8.59-.16,1.78,1,2.46,3.1,2.94,4.3,3.21-.56,6.11-.06,9.19.47,1.3,1.6,3.48,2.33,4.7,3a20.38,20.38,0,0,1,14.71,1.51c5.75.91,10.26,4.66,2.19,5.39Z"/><path id="path4195" class="cls-11" d="M171.23,66.31c0,.1.06.19.1.29-2.52,1-2.7,2.49-3.43,4.79-2.68,3-1.77,3.39-.14,5.07,1.47-.45,2.12,1,2.66,1.19-1.13,2.64-4.49,3-3.29,4.62,2.26.45,8.78.86,11.17.15,3.75.76,6.73,1.68,10.37,1.35a13.63,13.63,0,0,0,7.67.63c3.06,2.16,4,2.54,7.85,1.87,3.73,3,6.64,3.59,11.6,3.14,1.52-.59,1.06-1.68,1.59-2.53,3.12,1,6.13,1.65,9.11,0,2.36,1.53,4.07.8,6,.5-.34-1.45.92-2.06,1.35-3a15.33,15.33,0,0,0,3.82.56c.8,3.51,2.7,4.37,6.63,3.21,0-2.48-.39-5.22-2.73-7-1.63-2.56-4.63-4.54-7.32-1.58a17.86,17.86,0,0,0-2.94,2.17,1.54,1.54,0,0,0-.32-.23,12,12,0,0,0-1.82,2.72c-2.26-.39-3.51-.47-5.1-1.64-3,1.17-5.1,1.88-8.11,1.27-1.19-2.93-.13-3.55,5.31-4.16.13-.39-.32-.9.38-1.18-3.51.92-5.48,1-6.76-1.77a20.33,20.33,0,0,1-3.37.69,29.86,29.86,0,0,1-.69,5c-3.54.62-6.43-.08-4.63-4-2.17,0-4.15-.33-6.3-.52a10.7,10.7,0,0,1-3.65,4c-3.35-.28-4.7-.17-5.79-3.39-.53.59-1.31,1.35-1.82,2-7-.58-7.52-6.75-.37-5.6-3.13-1.11-4.25-1.2-3.49-4.4-3.2,0-4.43-.15-5.28-2.86-.7.8-2.58-.3-2.14,2.48-3.27.3-5.52.08-5.77-3.62-.13-.12-.25-.2-.38-.31Z"/><path id="path4269" class="cls-12" d="M172.27,65.75c2,3.59,2.26,1.47,4.38,1.27,3.69-3.93,2.59.22,3.77.32,2.62-1.42,4.34-.22,5.86.18.93.77.79,1.7,1.17,2.52,1.9-3.5,3.32-2,5.32-1.68,2.72.2,1.78,2.08,2.52,2.94,3.57-1.18,1.33,1.21,2.56,2.33-1.25,1.68-2,1.42-4.6,1.43-3.52-.31-3.49.54-5.05,2.61-1.11-2.22-3.09-.76-3.73-.91-1.79,3.38-4.39,2.19-5.36,2.28-.36-1.81-2.72-2.31-3.55-3-4.25-1.29-5.86-2.61-4.64-6.44-2-1.86,1-2.84,1.35-3.83Z"/><path id="path4305" class="cls-13" d="M183.68,85.18c-.36,2-2,.61-3,.91-3.64-1.75-4.1.59-5.15,2.46-3.62-1.38-5.33-.06-7,.58,0,0-7.65,6.32,8.15,5,1.1-1.75,4.51-3.59,6-4.13,1.29-1.7,2.65-1.56,4.8-2.2,2.63,1.67,3.38.66,5.57.46-.05-2.52,2.27-1.88,3.18-2.63-2.25-2.74-4.25-2.51-7-.73-3.24-2.27-3.18-1.41-5.46.27Z"/><path id="path4317" class="cls-14" d="M207.36,92.37a7.27,7.27,0,0,0-5.47-.28c-.57-.52-1.46-.25-1.7-1.56a5.18,5.18,0,0,0-3.17-1c-1.69-.28-2.78-.56-4.51.52a11.92,11.92,0,0,0-3.59-.84c-1.49.79-3.14,1.64-4.66,2.29-2-.38-1.81,0-2.54,1.22,1.92,1.46,4.05,1.31,6.43.89,2.16,1.38,4.15,1.13,6.63.9a10.66,10.66,0,0,0,3.74-.93c2,1.11,4,1.08,6.44.71,3.13.64,5,.07,2.4-1.94Z"/><path id="path4281" class="cls-15" d="M161.59,73.31c-1.76-.27-2.1.78-2.72,1-3.86-.32-3.75.49-4.85,2.78,2.38,1.37,4.46.94,6.82,1.28a25.82,25.82,0,0,1,3.15-2.2c2,1.58,3.08,1.4,6.53.75.92.17,1.17-.86.46-1.6C167.66,71.5,164.43,72.26,161.59,73.31Z"/></g><g id="g4969"><path id="path4546" class="cls-16" d="M171.66,100.8a3.13,3.13,0,0,1-2.82,1.72c-1.49,1-5.6,1.48-6.69-.06-2.51,1.11-7.66,1.61-9.58-.49a29.09,29.09,0,0,1-9.86-.68c-11.34,1.55-32.7,1.13-25-14.46.17-1.58,2-1.65,2.82-1.53.44-.15.52.12.76.18a2.59,2.59,0,0,1,3.17-.43,2.38,2.38,0,0,1,3,.25,2.47,2.47,0,0,0,1.65.3c.53-.21.37-.57.55-.86.22-1.16,2-.71,3-.12a2.58,2.58,0,0,0,1.8.74,3.17,3.17,0,0,1,3.65,1.77,9.71,9.71,0,0,1,4.76.8,10.86,10.86,0,0,1,3.37.18,4.62,4.62,0,0,1,3.59-.42c-1.8-3.12,3.71-5.17,5.44-2.52a1.93,1.93,0,0,1,3.18.68c1.33-1.24,3.41-2.65,4.2-.31-.08.34-.07.64-.14,1a2,2,0,0,0,2.07-.06c.68-.94.64-2.29,1.45-3,.5-.7,1.64-.7,2.34-.74.29-1.86,2.82-3.09,3.79-.92.16.8-.67,1.09-1.31,1.35,1.06,1.26.92,2.38-.48,3.25,1.59.47,3,1.06,3.65,2.33,2.71-.41,5.2,2.86,1.93,3.92-.94,1.56-2.84,1.59-4.61,1.47a3,3,0,0,1,1.86,3.25c.53,1.6-.39,2.36-1.59,3.43Z"/><path id="path4570" class="cls-17" d="M150.2,97.09c2.3,1.41,5.16.81,7.72,0a23.34,23.34,0,0,1,2.18-1.85c.19,2.11,2.22,1.74,4.2,1.59a6.15,6.15,0,0,0,2.18-.8c.18,1.84,2.17,1.91,4,2.12,1.06.23,1.47-.67,2-.93.1,2,.21,3.46-2.52,4.1a16.14,16.14,0,0,1-1.85-1.19c-.31,2.92-2.42,4-5.7,4-3.28-.53-6,1.3-8.9.53-3.55-3.1-11.87,1.18-12.6-4.5a4.5,4.5,0,0,1-2.35-4c3.45,2,9.28,2.74,11.59.92Z"/><g id="g4542"><path id="path4499" class="cls-18" d="M143.55,107.63a14,14,0,0,1-9.2.83,11.93,11.93,0,0,1-9-.17c-3,.78-6.24.84-8.63-1.15-2.11.17-3.83.07-5.26-1.32-1.77-.15-2.88,0-4.13-1.48a8.5,8.5,0,0,1-4.69,0c-1.16.68-2.19,1.34-3.94.66-.26.37-.75,2.77-3.38,1.32a6.41,6.41,0,0,1-5.25.16,7.74,7.74,0,0,1-2.07.33c-2.2.39-4.48.77-6.38-.82-2.25,0-3.44,0-5.07-1.32-2.14.38-3.5.76-4.31-1.15,1.67-2.94,4.11-2.43,6.94-3.29.54-1.07.56-1.66,2.44-1.48.66-1,.8-1.73,2.44-2.14,0-.15-.83-1-.37-1.65-1.18-1-1.9-1.83-.57-3.29-.44,0-1.72-.45-2.44,0-1.63.14-2.7.18-3.94-.83-1.78-.15-2.07.11-2.44-1.64a4.45,4.45,0,0,1,4.51-.66,6.43,6.43,0,0,0,1.87-.82c.53-1.55-.06-1.59,1.88-1.65s.74-1.85,3.38,0c.83-2.46,3.16-2.21,4.5-2,2.81-2.15,5.76-.95,7.7.32,4.29-3.51,8.57-3.21,13.13-1,.92,1.23.35,1.69,0,2.8a7.73,7.73,0,0,0-2.06.16c3.31-.27,4,.69,4.5,3.13,1.67-.58,2.06.1,3,.82,2.69,0,4.05-.13,6,1.15a4.12,4.12,0,0,1-.56,4.28,8.07,8.07,0,0,1,3.57,2.14,7.58,7.58,0,0,1,6.75.33,13.84,13.84,0,0,1,4.69-.33c1.21-.26,1.24.76,1.88,1.15,2.09-1.49,4.83-1.16,6.76-.65a12,12,0,0,1,8.44.82c1.37,1.21.1,1.88-.37,2.63,2.64,2.39-1.1,3.88-4.32,3.62-1.81,1.47-3.71,1.54-6,2.14Z"/><path id="path4507" class="cls-19" d="M93.59,82.92a5.42,5.42,0,0,0-3.16,1.18c-1.34-.24-3.67-.5-4.5,2-2.64-1.85-1.56,0-3.38,0s-1.35.1-1.88,1.65a6.43,6.43,0,0,1-1.87.82,4.43,4.43,0,0,0-4.51.66c.37,1.75.66,1.49,2.44,1.64,1.24,1,2.31,1,3.94.83.72-.45,2,0,2.44,0-1.33,1.46-.61,2.26.57,3.29-.46.67.34,1.5.37,1.64-1.64.42-1.78,1.11-2.44,2.15-1.88-.18-1.9.4-2.44,1.48-2.83.86-5.27.35-6.94,3.29.81,1.91,2.17,1.53,4.32,1.15C78.17,106,79.36,106,81.61,106c1.9,1.58,4.18,1.21,6.38.82a7.74,7.74,0,0,0,2.07-.33,6.41,6.41,0,0,0,5.25-.16c2.62,1.46,3.12-.95,3.38-1.32,1.75.68,2.78,0,3.94-.66a8.5,8.5,0,0,0,4.69,0c1.25,1.46,2.36,1.33,4.13,1.48,1.43,1.39,3.15,1.49,5.26,1.32,2.39,2,5.68,1.93,8.63,1.15a11.93,11.93,0,0,0,9,.17,13.94,13.94,0,0,0,9.19-.83c2.3-.6,4.2-.67,6-2.14a8.46,8.46,0,0,0,3.65-.48,3.37,3.37,0,0,1-2.33-3.14,15.44,15.44,0,0,1-6.2,1.48c-3,.79-5.4,1.13-7.88-.82a8.76,8.76,0,0,0-1.5,1.32c-3.19,1.12-6,.59-6.57-2.47-1.48.22-3.76.68-4.69,2.63-3.92,0-10-2.64-4.13-4a6.59,6.59,0,0,1,.19-2.3c-.72,0-1.7-.56-2.45.16-1.71-1.12-2.61-1.67-1.5-3.62-.62.11-1.35-.25-1.87.33-2.15,1.46-3,1.51-5.44.66l-1.32,1.15c-2.86.46-5.45.36-4.69-2.8a6.3,6.3,0,0,1-2.44-.33c.9-.89,1.66-2,3-2.14a17.68,17.68,0,0,1,5.45-.82c-1.32-.34-2.67-.46-3.76-1.48-2.61.68-5-.05-3.75-3.46-1.79.29-3.34.52-4.51,2-.72-.19-1.23-1.12-2.62-.33-1.5-1.5-2.18-2.41.37-3a8.76,8.76,0,0,0,.7-1,5.84,5.84,0,0,0-1.67-.21Zm-2,8.25a6.51,6.51,0,0,0,1.5,1.32c-1,.49-.37,1.28-.57,2,1.57.69,3.24,0,4.51-.32,1.53,2.29,2,3.19-.09,4.44-.25,0-.4,1.06-1.41.66-2.87.68-6.16.31-4.88-3.29-.57-.81-1.81-.94-1.69-2.39-.23-1.11,1.93-1.83,2.63-2.39Z"/></g><path id="path4580" class="cls-20" d="M169.23,90.26c.56.18,2.25.49,2.82,1.36a27.45,27.45,0,0,0,5-.57c-1.42,1.87-3.5,2.65-5.91,3.27a17.72,17.72,0,0,0-4.87-2,23,23,0,0,0-4.63.56,12.36,12.36,0,0,0-1.92-.9c-1.34-.09-2.7.18-4.11.23-.67-.33-1-.78-2.05-.68-.59-.45-2.45-2.21-4.5-1,1.32-2,5.08-1.58,6.94-.68a7.75,7.75,0,0,1,4.49-1.35c1.85-.18,3.63,0,5.52,0,1.38-.06,2.59,1.18,3.21,1.8Z"/></g></g><g id="g4245"><path id="path4167" class="cls-21" d="M101.75,61.79c-1-2.34-1.74-3.38-4.89-2.29-.16-2.55-1.06-4.73-4.15-3.2.07-1.38.34-1.77-1.35-2.51-.94-3.19-3.15-4.37-5.62-1.38-1.41-.58-1.63-1.37-2.56.16a13.17,13.17,0,0,0-5-.54c-2.65-1.33-6.7-1.54-8.73,2.63-2.52.16-3.58.62-3.56,3a6.32,6.32,0,0,0-3.14.37c-.42-1.12-.26-1.62-1.16-2.69a4.42,4.42,0,0,0-1.14-5.48,7,7,0,0,0-.22-3.45c3.75-2.52.11-6.35-4-3.73l-.1-1.55c-2.49-1.92-5.56-3.43-7.49.3a4.45,4.45,0,0,1-1.78-.06c-.85-3.11-5.85-4.92-6.38-1a9.87,9.87,0,0,1-2.35.32c-1.22-.38-1.81-.94-3.57-.11-2.83.43-4.48,1.53-4.06,4.41-2.09-.66-4.31-1.11-5.68.89a5.52,5.52,0,0,0-2.51-2.27c.56-.76.13-1.45,1.86-1.68.15.2,1.12.58.87,1.16,9.79,3.12.78-12-3.36-3.08-.55,0-1.82-.62-2.78-.17-1.12-2.94-3.09-2-6.63-1.83C10.2,35.87,9.55,36.46,7,38.2c-3.6.23-6.12.78-4.66,4.28C0,43.79-1,44.67,1.23,47.23c-.21,3.11.59,4.36,2.93,5.53-2.84,5.68,1.93,6,5.65,8.13.57.56-.24,1.49-.28,1.75-.14,1.93,1.19,2.11,2.35,2.8-.66,1.89.35,1.7.95,2.54,1.74.58,3.61,0,5.11-.5-.16,5.07,5.43,6.24,9.75,4.23,3.59,1.88,8.64,4.9,12.25,3a39.09,39.09,0,0,1,5.46-1.21c3.6,1.79,8.17.79,11.28.32,4.74.81,9.77-.81,14.06-2.63,1.24,1.33,3,1,5.79,1a9.26,9.26,0,0,0,4.06-1.47,10.53,10.53,0,0,0,6.25-1.09c4.6,2.88,8.47,1.77,11.66,0,2.83,1.2,4.83.69,7.51,0,4.42,3.66,10.36-3.45,4.45-4.61-1.19-3.21-3.91-3.1-6.45-2-.66-1.45-1.06-.86-2.26-1.24Z"/><path id="path4169" class="cls-22" d="M0,44.92a4.15,4.15,0,0,0,1.24,2.31c-.22,3.11.58,4.36,2.92,5.53-2.84,5.68,1.93,6,5.65,8.13.57.57-.24,1.49-.28,1.75-.14,1.93,1.19,2.11,2.35,2.8-.66,1.89.35,1.7.95,2.54,1.74.58,3.61,0,5.11-.5-.16,5.07,5.43,6.24,9.75,4.23,3.59,1.88,8.64,4.9,12.25,3a40.83,40.83,0,0,1,5.45-1.21c3.61,1.79,8.18.79,11.29.32,4.74.81,9.77-.81,14.06-2.63,1.24,1.33,3,1,5.79,1a9.4,9.4,0,0,0,4.06-1.48,10.53,10.53,0,0,0,6.25-1.09c4.6,2.88,8.47,1.77,11.66,0,2.83,1.2,4.83.69,7.51,0,4.07,3.37,9.42-2.4,5.59-4.23-1.09,3.24-5.17,4-6.82.5-.62-1.5-.33-1.85-2.51-2.27.11.2,1.31.7.88,1.51-2.54,2.22-8.36,2.5-7.83-1.93-1.57,1.37-2.92,2.32-5.39,2.25-2.58.16-4.46.12-5.83-1.71-4.37,4.35-14.9,5.74-13.2-2.45C67.84,63.07,62,66,59.7,62.39c-1.57,2.53-10.75,6-12.4,5.3-5.67,6.11-12.53-.1-5.9-4.13a14.69,14.69,0,0,1-4.6-.92c-1.19,2.77-5.53,1.59-4.14,6.33-1.59,0-2.1.42-3-1-5.9,3-9.54-3-2.34-2.63.1-.26-.61-.86.33-.88-1.81-2-3.32-3.08-1.34-5.64-5.05.32-4.36,3.35-8.4,4.7.35-1.28.87-2,.78-3.34-1.86-.33-4.39-1.52-4.23-4.24a8.14,8.14,0,0,1,4.23-1.83c-1.7-.7-4.17-1.61-6.73-.26-3.85,1.18-5.13,0-5-3.67-2.32-.74-4-1.14-3.62-4.1C1.91,45.66.77,45.7,0,44.92Z"/><path id="path4186" class="cls-23" d="M2.22,47.49a6.72,6.72,0,0,0-1,.16c-.11,2.8.71,4,2.94,5.11-2.84,5.68,1.93,6,5.65,8.13.57.57-.24,1.49-.28,1.75-.14,1.93,1.19,2.11,2.35,2.8-.66,1.89.35,1.7.95,2.54,1.74.58,3.61,0,5.11-.5a4.53,4.53,0,0,0,2.44,4.44,4.84,4.84,0,0,1,3.77-3.49c-1.91-2.64-2.36-5.08,2.66-5.45-.15-.25-1.69-.77-1.35-2.29,1.08-1.23.88-2.34,3.71-3.13-.86-1.05.11-2.53-2.28-2.76-.34-1.16-1.4-2.72-.58-4.45,1.32-1.76,1.44-2.54,4.35-2.38a21.37,21.37,0,0,1-9.11-1.53C20.21,48.22,20,48.9,17.2,49.09c-1,.15-2.06-.06-3,.45C12,53.65,4.32,54.77,4.49,47.79a6.27,6.27,0,0,0-2.27-.3Z"/><path id="path4201" class="cls-24" d="M6.5,46.34c1.87,4.47,6,1.19,8.67-.81a13.23,13.23,0,0,1,2.73.35c1.48-.34,1-.83,1.71-1.43,1.6,1,2.64.78,4.3,1.31-2.74,5-5.17,5.08-11.08,5.45C10.69,61.45-2.91,46.94,6.5,46.34Z"/><path id="path4203" class="cls-25" d="M25.76,60.62c2,3.09.24,2.89-1.68,3.19-1.72,1.41-.56,2-.66,2.41-1.91.31-2,.76-3.42,1.4.34,2,1.19,1.87,3.12,2.41.2-1,.71-2.28.9-2.9,2.26.32,2.27-.79,3.4-1.64a27,27,0,0,0,6.7-.9,18.42,18.42,0,0,0,1.4-3.41c-.29-6.24-7.17-3.51-9.76-.56Z"/><path id="path4213" class="cls-26" d="M37.83,64.92c.6-3.91,3.21-3.43,5.78-3.8,1.59.93,2.81.9,4.11,1.32.38-1.63,2.3-2.69,3.11-3.63,2.25-.92,5.36-.28,6.69-.16.27-1.81,1.84-1.86,2.52-2.53,2.79-.27,2.9.77,4.45,1.56,1.89,2,3-.19,3.34-.22-.27-3,0-1.67,2.85-2.55C72,53.8,73.54,54,74.61,53.6c.86,3.83-.94,4.64-4.62,6.36,2.59.49,2.65,1.4,3.86,2.66,0,2.82-.11,2.37-3.49,3.12-1.59-.68-1.29,3.12-2.57,2.55a17.5,17.5,0,0,0-4.7-1c-.21,3.87-4.08-1.67-8.44-1-10,1.16-5.9,4.33-9.75,4.57.16-1.53-.68-2.27-.85-2.84-4.84,5.09-6-.09-6.22-3Z"/><path id="path4235" class="cls-27" d="M51.27,60.05c-4,1.9-5.37,3.21-9.82,3.49-4.88-1.71-4.61-2.47-4.15-5.47.28-2.23-3.62-2.63-3.63-2.64-6.56-2.66-4-5.51.95-6.75,1.13-.76-.13-2-.33-2.53,2.85-2.74,4.16-3.14,8.26-3.4a15.15,15.15,0,0,1,1.18,2.16c2-2.24,2.73-1.13,4.77-1.26,2.66-3.7,5.13-2.47,7.58-.49-2.09,1.06-3.6,2.91-4.93,4.14A10.55,10.55,0,0,0,54,49c-6.48-1.44-13.63,4.74-3.4,6.43-3.55,3.93.55,3.94.64,4.59Z"/></g></g></g></g></svg>