<svg xmlns="http://www.w3.org/2000/svg" xmlns:xlink="http://www.w3.org/1999/xlink" viewBox="0 0 449 300"><defs><style>.cls-1{fill:url(#Безымянный_градиент_30);}.cls-2{fill:url(#Безымянный_градиент_31);}.cls-3{fill:url(#Безымянный_градиент_32);}.cls-4{fill:#d9e3ec;}.cls-5{fill:url(#Безымянный_градиент_33);}.cls-6{fill:url(#Безымянный_градиент_34);}.cls-7{fill:url(#Безымянный_градиент_35);}.cls-8{fill:url(#Безымянный_градиент_25);}.cls-9{fill:url(#Безымянный_градиент_26);}.cls-10{fill:url(#Безымянный_градиент_29);}.cls-11{fill:none;}</style><linearGradient id="Безымянный_градиент_30" x1="59.88" y1="-626.31" x2="56.35" y2="-638.98" gradientTransform="matrix(1.29, -0.08, -0.07, -1.13, -41.37, -631.94)" gradientUnits="userSpaceOnUse"><stop offset="0" stop-color="#fff"/><stop offset="1" stop-color="#b4c8da"/></linearGradient><linearGradient id="Безымянный_градиент_31" x1="54.49" y1="-511.54" x2="55.72" y2="-503.91" gradientTransform="matrix(1.29, -0.08, -0.07, -1.13, -27.59, -487.57)" gradientUnits="userSpaceOnUse"><stop offset="0" stop-color="#8fb7db"/><stop offset="1" stop-color="#dce6ee"/></linearGradient><linearGradient id="Безымянный_градиент_32" x1="27.09" y1="133.71" x2="34.96" y2="126.53" gradientTransform="matrix(1.29, -0.08, -0.07, -1.13, 13.07, 221.89)" gradientUnits="userSpaceOnUse"><stop offset="0" stop-color="#d9e3ec"/><stop offset="1" stop-color="#b4c8da"/></linearGradient><linearGradient id="Безымянный_градиент_33" x1="49.18" y1="-648.98" x2="40.38" y2="-657.08" gradientTransform="matrix(1.16, -0.07, -0.07, -1.02, -41.71, -581.46)" gradientUnits="userSpaceOnUse"><stop offset="0" stop-color="#eef2f6"/><stop offset="1" stop-color="#d1dde8"/></linearGradient><linearGradient id="Безымянный_градиент_34" x1="60.19" y1="-632.87" x2="53.01" y2="-626.85" gradientTransform="matrix(1.44, -0.09, -0.07, -1.13, -44.66, -631.89)" gradientUnits="userSpaceOnUse"><stop offset="0" stop-color="#c5d4e5"/><stop offset="1" stop-color="#d5e0ea"/></linearGradient><linearGradient id="Безымянный_градиент_35" x1="48.59" y1="-469.89" x2="34.65" y2="-465.84" gradientTransform="matrix(1.4, -0.09, -0.08, -1.29, -29.3, -532.04)" gradientUnits="userSpaceOnUse"><stop offset="0" stop-color="#d5e0ea"/><stop offset="1" stop-color="#fff"/></linearGradient><linearGradient id="Безымянный_градиент_25" x1="178.18" y1="-582.55" x2="188.83" y2="-562.13" gradientTransform="matrix(1.07, 0, 0, -0.94, -28.67, -421.78)" gradientUnits="userSpaceOnUse"><stop offset="0" stop-color="#a5bcd5"/><stop offset="1" stop-color="#fff"/></linearGradient><linearGradient id="Безымянный_градиент_26" x1="193.12" y1="-576.24" x2="193.55" y2="-571.3" gradientTransform="matrix(1.07, 0, 0, -0.94, -25.66, -423.76)" gradientUnits="userSpaceOnUse"><stop offset="0" stop-color="#b5c8dd"/><stop offset="1" stop-color="#eff3f7"/></linearGradient><linearGradient id="Безымянный_градиент_29" x1="200.24" y1="-566.72" x2="201.16" y2="-562.8" gradientTransform="matrix(1.07, 0, 0, -0.94, -25.66, -423.76)" gradientUnits="userSpaceOnUse"><stop offset="0" stop-color="#dee6ef"/><stop offset="1" stop-color="#f5f7fa"/></linearGradient></defs><title>clouds2_1</title><g id="Layer_2" data-name="Layer 2"><g id="Layer_4" data-name="Layer 4"><g id="g4245"><path id="path4167" class="cls-1" d="M127.17,77.84c-1-2.34-1.74-3.38-4.88-2.29-.17-2.55-1.07-4.74-4.16-3.2.07-1.38.34-1.78-1.35-2.52-.94-3.19-3.15-4.36-5.62-1.37-1.41-.58-1.63-1.37-2.56.16a13.37,13.37,0,0,0-5-.55c-2.65-1.33-6.7-1.53-8.72,2.64-2.53.16-3.59.62-3.57,3a6.27,6.27,0,0,0-3.13.37c-.43-1.12-.27-1.62-1.16-2.7a4.43,4.43,0,0,0-1.14-5.47,7.19,7.19,0,0,0-.22-3.45c3.74-2.53.1-6.35-4-3.73l-.1-1.56c-2.49-1.91-5.56-3.43-7.49.31a4.45,4.45,0,0,1-1.78-.06c-.85-3.11-5.85-4.92-6.38-1a9.87,9.87,0,0,1-2.35.32c-1.21-.38-1.81-.94-3.57-.12-2.83.43-4.48,1.54-4.06,4.42-2.09-.66-4.31-1.11-5.68.88a5.56,5.56,0,0,0-2.51-2.26c.56-.76.13-1.45,1.87-1.68.15.2,1.11.57.86,1.16,9.8,3.11.78-12-3.36-3.08-.55,0-1.82-.62-2.77-.17-1.13-2.95-3.1-2-6.64-1.83-2.1-2.16-2.75-1.58-5.33.16-3.6.23-6.12.79-4.66,4.29-2.3,1.3-3.29,2.18-1.08,4.75-.22,3.11.58,4.35,2.92,5.53-2.84,5.67,1.93,6,5.65,8.13.57.56-.24,1.48-.28,1.75-.14,1.93,1.19,2.11,2.35,2.8-.66,1.89.35,1.7,1,2.54,1.74.57,3.61,0,5.11-.5-.16,5.07,5.43,6.24,9.75,4.23,3.59,1.88,8.64,4.89,12.25,3a40.84,40.84,0,0,1,5.46-1.22c3.6,1.79,8.17.8,11.28.32,4.74.82,9.77-.81,14.06-2.62,1.24,1.33,3,1,5.79,1A9.26,9.26,0,0,0,106,86.81a10.61,10.61,0,0,0,6.25-1.09c4.6,2.88,8.47,1.76,11.66,0,2.83,1.2,4.83.69,7.51,0,4.42,3.65,10.36-3.46,4.45-4.62-1.19-3.2-3.91-3.09-6.45-2-.66-1.45-1.06-.86-2.26-1.24Z"/><path id="path4169" class="cls-2" d="M25.43,61a4.06,4.06,0,0,0,1.23,2.31c-.22,3.11.58,4.35,2.92,5.53-2.84,5.67,1.93,6,5.65,8.13.57.56-.24,1.48-.28,1.75-.14,1.93,1.19,2.11,2.35,2.8-.66,1.89.35,1.7,1,2.54,1.74.57,3.61,0,5.11-.5-.16,5.07,5.43,6.24,9.75,4.23,3.59,1.88,8.64,4.89,12.25,3a39.32,39.32,0,0,1,5.46-1.22c3.6,1.79,8.17.8,11.28.32,4.74.82,9.77-.81,14.06-2.62,1.24,1.33,3,1,5.8,1A9.27,9.27,0,0,0,106,86.81a10.61,10.61,0,0,0,6.25-1.09c4.6,2.88,8.47,1.76,11.66,0,2.83,1.2,4.83.69,7.51,0,4.07,3.37,9.43-2.41,5.59-4.24-1.09,3.25-5.17,4-6.81.5-.62-1.49-.34-1.84-2.52-2.26.12.2,1.31.69.89,1.5-2.55,2.23-8.37,2.51-7.83-1.92-1.57,1.37-2.93,2.32-5.39,2.25-2.59.16-4.47.12-5.84-1.71-4.37,4.35-14.9,5.74-13.2-2.45-3.06,1.74-8.87,4.7-11.2,1.06-1.56,2.53-10.75,6-12.4,5.3-5.67,6.11-12.53-.1-5.9-4.14a14.69,14.69,0,0,1-4.6-.91C61,81.46,56.69,80.28,58.08,85c-1.59,0-2.1.43-3-1-5.9,3.05-9.54-2.94-2.34-2.62.1-.26-.61-.86.34-.89-1.82-2-3.33-3.08-1.35-5.63-5.05.32-4.36,3.34-8.4,4.69.35-1.28.87-2,.78-3.34-1.86-.32-4.39-1.51-4.22-4.23a8.07,8.07,0,0,1,4.23-1.83c-1.71-.7-4.18-1.61-6.74-.27-3.85,1.19-5.13,0-5-3.67-2.33-.73-4-1.13-3.63-4.1C27.33,61.7,26.19,61.75,25.43,61Z"/><path id="path4186" class="cls-3" d="M27.64,63.54a5.63,5.63,0,0,0-1,.16c-.11,2.79.71,4,2.94,5.11-2.84,5.67,1.93,6,5.65,8.13.57.56-.24,1.48-.28,1.75-.14,1.93,1.19,2.11,2.35,2.8-.66,1.89.35,1.7,1,2.54,1.74.57,3.61,0,5.11-.5A4.52,4.52,0,0,0,45.8,88a4.87,4.87,0,0,1,3.77-3.49c-1.91-2.63-2.35-5.07,2.66-5.44-.14-.25-1.69-.78-1.35-2.29,1.08-1.23.88-2.34,3.71-3.14-.86-1,.11-2.52-2.28-2.75-.34-1.16-1.4-2.72-.58-4.45,1.32-1.76,1.45-2.55,4.35-2.39A21.22,21.22,0,0,1,47,62.49c-1.34,1.78-1.57,2.45-4.35,2.65-1,.15-2-.07-3,.45-2.25,4.11-9.91,5.23-9.74-1.75a6.27,6.27,0,0,0-2.27-.3Z"/><path id="path4201" class="cls-4" d="M31.93,62.39c1.86,4.47,6,1.19,8.66-.82a13.23,13.23,0,0,1,2.73.36c1.48-.34,1-.83,1.72-1.43,1.59,1,2.63.78,4.29,1.31-2.74,5-5.17,5.07-11.08,5.45C36.11,77.5,22.51,63,31.93,62.39Z"/><path id="path4203" class="cls-5" d="M51.18,76.67c2,3.09.24,2.89-1.68,3.18-1.72,1.41-.56,2-.66,2.41-1.91.32-2,.77-3.42,1.41.34,2,1.19,1.86,3.12,2.4.2-.94.71-2.27.9-2.9,2.26.33,2.27-.78,3.41-1.63a27.48,27.48,0,0,0,6.69-.9,17.76,17.76,0,0,0,1.4-3.41c-.29-6.25-7.17-3.51-9.76-.56Z"/><path id="path4213" class="cls-6" d="M63.25,81c.6-3.9,3.21-3.43,5.78-3.79,1.59.93,2.82.9,4.11,1.32.38-1.64,2.3-2.7,3.11-3.63,2.25-.93,5.37-.29,6.69-.16.27-1.81,1.85-1.86,2.52-2.54,2.8-.26,2.9.78,4.45,1.56,1.89,2,3-.19,3.34-.21-.27-3,0-1.68,2.85-2.55C97.39,69.85,99,70,100,69.65c.86,3.83-.94,4.64-4.61,6.36,2.59.49,2.64,1.4,3.85,2.66,0,2.82-.11,2.36-3.49,3.12-1.59-.69-1.29,3.11-2.57,2.54a17.47,17.47,0,0,0-4.7-1c-.21,3.87-4.07-1.67-8.43-1-10,1.17-5.91,4.34-9.76,4.58.16-1.53-.68-2.27-.85-2.85-4.84,5.09-6-.09-6.22-3Z"/><path id="path4235" class="cls-7" d="M76.69,76.09c-4,1.91-5.37,3.22-9.81,3.5-4.89-1.72-4.62-2.47-4.16-5.47.28-2.23-3.62-2.63-3.63-2.64-6.56-2.66-4-5.51.95-6.76,1.13-.75-.12-2-.33-2.53,2.85-2.74,4.16-3.13,8.26-3.39A15.08,15.08,0,0,1,69.15,61c1.95-2.24,2.73-1.13,4.77-1.26,2.67-3.69,5.13-2.46,7.58-.48-2.09,1.06-3.6,2.91-4.93,4.14a11.08,11.08,0,0,0,2.88,1.73c-6.48-1.44-13.63,4.74-3.39,6.43-3.56,3.93.54,3.94.63,4.58Z"/></g><path id="path4546" class="cls-8" d="M197.08,116.85a3.12,3.12,0,0,1-2.82,1.71c-1.49,1-5.6,1.49-6.69-.06-2.51,1.12-7.66,1.61-9.58-.49a29.09,29.09,0,0,1-9.86-.67c-11.34,1.55-32.7,1.12-25-14.47.17-1.57,2-1.64,2.83-1.53.43-.14.51.13.75.19a2.59,2.59,0,0,1,3.17-.43,2.39,2.39,0,0,1,3,.24,2.41,2.41,0,0,0,1.65.31c.53-.21.37-.57.55-.86.22-1.16,2-.71,3-.12a2.49,2.49,0,0,0,1.79.73,3.19,3.19,0,0,1,3.65,1.78,9.71,9.71,0,0,1,4.76.8,10.64,10.64,0,0,1,3.38.18,4.6,4.6,0,0,1,3.58-.43c-1.8-3.12,3.71-5.16,5.45-2.51a1.92,1.92,0,0,1,3.17.67c1.33-1.24,3.41-2.64,4.2-.3-.08.34-.07.64-.14,1a2,2,0,0,0,2.07-.06c.68-.94.64-2.29,1.45-3,.5-.69,1.64-.69,2.34-.73.29-1.87,2.82-3.09,3.79-.92.16.8-.67,1.09-1.31,1.35,1.06,1.25.92,2.38-.48,3.25,1.59.47,3,1.06,3.66,2.32,2.7-.41,5.19,2.87,1.93,3.93-1,1.56-2.85,1.59-4.62,1.47a3,3,0,0,1,1.86,3.25c.53,1.59-.39,2.36-1.59,3.43Z"/><path id="path4570" class="cls-9" d="M175.62,113.14c2.3,1.41,5.16.81,7.72,0a21.86,21.86,0,0,1,2.19-1.85c.18,2.11,2.22,1.74,4.19,1.59a6.41,6.41,0,0,0,2.19-.8c.17,1.84,2.16,1.91,4,2.12,1.05.23,1.46-.68,2-.93.1,2,.21,3.46-2.52,4.1a15,15,0,0,1-1.84-1.19c-.32,2.91-2.42,4-5.71,4-3.28-.53-5.95,1.3-8.9.53-3.55-3.11-11.87,1.18-12.59-4.5a4.5,4.5,0,0,1-2.35-4c3.44,2,9.28,2.74,11.58.93Z"/><path id="path4580" class="cls-10" d="M194.65,106.31c.56.18,2.25.49,2.82,1.35a27.35,27.35,0,0,0,5-.56c-1.42,1.87-3.5,2.65-5.9,3.27-1.37-.67-3.16-1.79-4.88-2a22.11,22.11,0,0,0-4.62.56,13,13,0,0,0-1.93-.9,38.75,38.75,0,0,0-4.11.23c-.67-.33-1-.78-2-.68-.59-.46-2.44-2.21-4.5-1,1.32-2,5.08-1.59,6.94-.68a7.75,7.75,0,0,1,4.49-1.35c1.85-.18,3.63,0,5.52,0,1.38-.07,2.59,1.18,3.21,1.8Z"/><rect class="cls-11" width="449" height="300"/></g></g></svg>