<svg xmlns="http://www.w3.org/2000/svg" xmlns:xlink="http://www.w3.org/1999/xlink" viewBox="0 0 450.01 195.38"><defs><style>.cls-1{fill:url(#Безымянный_градиент_38);}.cls-2{fill:#64913b;}.cls-3{fill:url(#Безымянный_градиент_39);}.cls-4{fill:url(#Безымянный_градиент_40);}.cls-5{fill:#a7bf34;}.cls-6{fill:#90b23f;}.cls-7{fill:#8caa45;}.cls-8{fill:#94b63d;}.cls-9{fill:url(#Безымянный_градиент_41);}.cls-10{fill:#e2e173;}.cls-11{fill:url(#Безымянный_градиент_42);}.cls-12{fill:#bdd645;}.cls-13{fill:#718d2d;}.cls-14{fill:#7c983e;}.cls-15{fill:url(#Безымянный_градиент_43);}.cls-16{fill:url(#Безымянный_градиент_44);}.cls-17{fill:url(#Безымянный_градиент_45);}.cls-18{fill:#5c6a8b;}.cls-19{fill:url(#Безымянный_градиент_46);}.cls-20{fill:url(#Безымянный_градиент_47);}.cls-21{fill:url(#Безымянный_градиент_59);}.cls-22{fill:url(#Безымянный_градиент_59-2);}.cls-23{fill:url(#Безымянный_градиент_50);}.cls-24{fill:url(#Безымянный_градиент_52);}.cls-25{fill:url(#Безымянный_градиент_53);}.cls-26{fill:#c0c93b;}.cls-27{fill:#e1d972;}.cls-28{fill:url(#Безымянный_градиент_54);}.cls-29{fill:#d3a6ad;}.cls-30{fill:#7b7d9f;}.cls-31{fill:url(#Безымянный_градиент_62);}.cls-32{fill:url(#Безымянный_градиент_59-3);}.cls-33{fill:url(#Безымянный_градиент_59-4);}.cls-34{fill:url(#Безымянный_градиент_59-5);}.cls-35{fill:url(#Безымянный_градиент_59-6);}.cls-36{fill:url(#Безымянный_градиент_62-2);}.cls-37{fill:url(#Безымянный_градиент_62-3);}.cls-38{fill:url(#Безымянный_градиент_62-4);}.cls-39{fill:url(#Безымянный_градиент_63);}.cls-40{fill:#60992d;}.cls-41{fill:#66a02f;}.cls-42{fill:#669f2f;}.cls-43{fill:#c6cc2e;}.cls-44{fill:#d6dc3d;}.cls-45{fill:#74a928;}.cls-46{fill:#cbd8a8;}.cls-47{fill:url(#Безымянный_градиент_64);}.cls-48{fill:#dcdfe3;}.cls-49{fill:#d8dcda;}.cls-50{fill:#b9ca89;}.cls-51{fill:#d4dace;}.cls-52{fill:#bed1a0;}.cls-53{fill:#c2cfa0;}.cls-54{fill:#4d8741;}.cls-55{fill:#bdc31c;}.cls-56{fill:#467b3e;}.cls-57{fill:#b7bc2a;}.cls-58{fill:#dce32a;}.cls-59{fill:#71a427;}.cls-60{fill:#e2d973;}.cls-61{fill:url(#Безымянный_градиент_65);}.cls-62{fill:url(#Безымянный_градиент_66);}</style><linearGradient id="Безымянный_градиент_38" x1="149.72" y1="14.61" x2="346.9" y2="26.58" gradientTransform="matrix(1, 0, 0, -1, 0.09, 151.88)" gradientUnits="userSpaceOnUse"><stop offset="0" stop-color="#93b248"/><stop offset="1" stop-color="#c5cb3a"/></linearGradient><linearGradient id="Безымянный_градиент_39" x1="205.11" y1="-681.99" x2="293.84" y2="-706.63" gradientTransform="matrix(1, 0, 0, -1, 0, -600.48)" gradientUnits="userSpaceOnUse"><stop offset="0" stop-color="#b1ca3b"/><stop offset="1" stop-color="#cee273"/></linearGradient><linearGradient id="Безымянный_градиент_40" x1="142.16" y1="-680.08" x2="211.17" y2="-701.91" gradientTransform="matrix(1, 0, 0, -1, 0, -600.48)" gradientUnits="userSpaceOnUse"><stop offset="0" stop-color="#a7bf34"/><stop offset="1" stop-color="#b9d242"/></linearGradient><linearGradient id="Безымянный_градиент_41" x1="222.84" y1="-674.99" x2="328.24" y2="-685.47" gradientTransform="matrix(1, 0, 0, -1, 0, -600.48)" gradientUnits="userSpaceOnUse"><stop offset="0" stop-color="#b1ca3b"/><stop offset="1" stop-color="#e2d973"/></linearGradient><linearGradient id="Безымянный_градиент_42" x1="270.09" y1="77.82" x2="139.73" y2="79" gradientTransform="matrix(1.02, 0, 0, -1.2, 0.89, 194.01)" gradientUnits="userSpaceOnUse"><stop offset="0" stop-color="#86a63b"/><stop offset="1" stop-color="#718d2d"/></linearGradient><linearGradient id="Безымянный_градиент_43" x1="364.84" y1="87.42" x2="195.13" y2="3.32" gradientTransform="matrix(1, 0, 0, -1.03, 0, 151.19)" gradientUnits="userSpaceOnUse"><stop offset="0" stop-color="#c79bb0"/><stop offset="0.23" stop-color="#ab95bf"/><stop offset="0.74" stop-color="#9a8db6"/><stop offset="1" stop-color="#66759a"/></linearGradient><linearGradient id="Безымянный_градиент_44" x1="-0.5" y1="-48.19" x2="445.13" y2="-47.48" gradientTransform="matrix(1, 0, 0, -1, 0, 92.75)" gradientUnits="userSpaceOnUse"><stop offset="0" stop-color="#586685"/><stop offset="0.54" stop-color="#66759a"/><stop offset="1" stop-color="#c79bb0"/></linearGradient><linearGradient id="Безымянный_градиент_45" x1="302.99" y1="-629.86" x2="78.92" y2="-642.95" gradientTransform="matrix(1.15, 0, 0, -1.15, 11.01, -613.36)" gradientUnits="userSpaceOnUse"><stop offset="0" stop-color="#a291ba"/><stop offset="1" stop-color="#5a6989"/></linearGradient><linearGradient id="Безымянный_градиент_46" x1="156.28" y1="162.9" x2="50.65" y2="20.16" gradientTransform="matrix(1, 0, 0, -1.03, 0, 151.19)" gradientUnits="userSpaceOnUse"><stop offset="0" stop-color="#c79bb0"/><stop offset="0.23" stop-color="#ab95bf"/><stop offset="0.46" stop-color="#9a8db6"/><stop offset="1" stop-color="#66759a"/></linearGradient><linearGradient id="Безымянный_градиент_47" x1="300.53" y1="-663.6" x2="403.35" y2="-665.25" gradientTransform="matrix(1, 0, 0, -1, 0, -540.62)" gradientUnits="userSpaceOnUse"><stop offset="0" stop-color="#7b7d9f"/><stop offset="1" stop-color="#988cb3"/></linearGradient><linearGradient id="Безымянный_градиент_59" x1="399.65" y1="49.45" x2="94.56" y2="8.44" gradientTransform="matrix(1, 0, 0, -0.91, 0, 133.54)" gradientUnits="userSpaceOnUse"><stop offset="0" stop-color="#f5eaff"/><stop offset="1" stop-color="#abb1c4"/></linearGradient><linearGradient id="Безымянный_градиент_59-2" x1="405.9" y1="-76.69" x2="100.81" y2="-117.7" gradientTransform="matrix(1, 0, 0, -0.62, 0, 87.92)" xlink:href="#Безымянный_градиент_59"/><linearGradient id="Безымянный_градиент_50" x1="341.89" y1="133.73" x2="172.17" y2="49.63" gradientTransform="matrix(1, 0, 0, -1.03, 0, 151.19)" gradientUnits="userSpaceOnUse"><stop offset="0" stop-color="#c79bb0"/><stop offset="0.23" stop-color="#ab95bf"/><stop offset="0.74" stop-color="#9a8db6"/><stop offset="1" stop-color="#53607e"/></linearGradient><linearGradient id="Безымянный_градиент_52" x1="397.07" y1="-574.23" x2="319.34" y2="-598.12" gradientTransform="matrix(1.17, 0, 0, -0.95, -58.09, -513.45)" gradientUnits="userSpaceOnUse"><stop offset="0" stop-color="#494a86"/><stop offset="1" stop-color="#244a53"/></linearGradient><linearGradient id="Безымянный_градиент_53" x1="290.21" y1="-550.35" x2="243.93" y2="-556.27" gradientTransform="matrix(1.72, 0, 0, -1.37, -183.57, -716.34)" gradientUnits="userSpaceOnUse"><stop offset="0" stop-color="#2e5e69"/><stop offset="1" stop-color="#5182a9"/></linearGradient><linearGradient id="Безымянный_градиент_54" x1="445.79" y1="-656.81" x2="311.28" y2="-651.88" gradientTransform="matrix(1, 0, 0, -1, 0, -540.62)" gradientUnits="userSpaceOnUse"><stop offset="0" stop-color="#d9b1b7"/><stop offset="1" stop-color="#b898b8"/></linearGradient><linearGradient id="Безымянный_градиент_62" x1="78.13" y1="-2050.86" x2="48.39" y2="-2106.56" gradientTransform="matrix(1, 0, 0, -0.07, 0.38, -33.32)" gradientUnits="userSpaceOnUse"><stop offset="0" stop-color="#c5c5d9"/><stop offset="1" stop-color="#aaa296"/></linearGradient><linearGradient id="Безымянный_градиент_59-3" x1="402.55" y1="-93.68" x2="97.46" y2="-134.69" gradientTransform="matrix(1, 0, 0, -0.53, 0, 63.6)" xlink:href="#Безымянный_градиент_59"/><linearGradient id="Безымянный_градиент_59-4" x1="403.93" y1="-103.98" x2="98.84" y2="-144.99" gradientTransform="matrix(1, 0, 0, -0.53, 0, 63.6)" xlink:href="#Безымянный_градиент_59"/><linearGradient id="Безымянный_градиент_59-5" x1="401.38" y1="-84.96" x2="96.29" y2="-125.97" gradientTransform="matrix(1, 0, 0, -0.53, 0, 63.6)" xlink:href="#Безымянный_градиент_59"/><linearGradient id="Безымянный_градиент_59-6" x1="405.43" y1="-115.13" x2="100.34" y2="-156.14" gradientTransform="matrix(1, 0, 0, -0.53, 0, 63.6)" xlink:href="#Безымянный_градиент_59"/><linearGradient id="Безымянный_градиент_62-2" x1="128.44" y1="-94.35" x2="98.71" y2="-150.05" gradientTransform="matrix(1, 0, 0, -0.53, 0, 63.6)" xlink:href="#Безымянный_градиент_62"/><linearGradient id="Безымянный_градиент_62-3" x1="68.69" y1="-62.45" x2="38.96" y2="-118.15" gradientTransform="matrix(1, 0, 0, -0.53, 0, 63.6)" xlink:href="#Безымянный_градиент_62"/><linearGradient id="Безымянный_градиент_62-4" x1="147.95" y1="-97.28" x2="118.21" y2="-152.98" gradientTransform="matrix(1, 0, 0, -0.55, 0, 75.38)" xlink:href="#Безымянный_градиент_62"/><linearGradient id="Безымянный_градиент_63" x1="53.09" y1="-789.13" x2="431.96" y2="-746.88" gradientTransform="matrix(1, 0, 0, -1, 0, -599.07)" gradientUnits="userSpaceOnUse"><stop offset="0" stop-color="#4d912b"/><stop offset="0.54" stop-color="#85b736"/><stop offset="1" stop-color="#cacb3a"/></linearGradient><linearGradient id="Безымянный_градиент_64" x1="177.96" y1="-609.69" x2="177.82" y2="-612.61" gradientTransform="matrix(1.14, 0, 0, -2.12, 52.69, -1132.97)" gradientUnits="userSpaceOnUse"><stop offset="0" stop-color="#dee0e8"/><stop offset="1" stop-color="#9dba43"/></linearGradient><linearGradient id="Безымянный_градиент_65" x1="417.63" y1="-694.31" x2="415.51" y2="-711.92" gradientTransform="matrix(1, 0, 0, -1, 3.41, -543.44)" gradientUnits="userSpaceOnUse"><stop offset="0" stop-color="#b8b715"/><stop offset="1" stop-color="#c8cb3a"/></linearGradient><linearGradient id="Безымянный_градиент_66" x1="391.04" y1="-697.23" x2="377.66" y2="-716.25" gradientTransform="matrix(1.06, 0, 0, -1.06, -17.07, -576.51)" gradientUnits="userSpaceOnUse"><stop offset="0" stop-color="#cbd73f"/><stop offset="1" stop-color="#b5c539"/></linearGradient></defs><title>hills</title><g id="Layer_2" data-name="Layer 2"><g id="Layer_1-2" data-name="Layer 1"><g id="g4815"><path id="path4692" class="cls-1" d="M0,187.63H450V72.23c-7.64-1.88-17.79-4.19-26.5-3.66-4.14.25-6,2.35-10.77,3.2-38.62-.83-72.3-1.63-114.25-4.67-9.84,0-34.33,3.47-44.49,6.36-17.51-2.46-28.05-2.08-42-1.32l-37.35-.27-8-4.21-33.52,6c-13.88-1.27-22.22,2-22.22,2-7.83-2.17-10.87-.14-16,.07l-46.38.62L0,82.36Z"/><g id="g4755"><path id="path5203" class="cls-2" d="M46.9,76.9c-3.43,0-6.87.08-10.28.17C24.45,79.5,12.12,69.6,0,71.33v24.1c13.16-2.26,26.61-2.83,39.44-7.8a87,87,0,0,1-9.16-2.11c9.2-.92,16.92-2,26.06-4.93C62.78,80,70,79.94,76.76,79.18,67.46,77.32,57.2,76.86,46.9,76.9Z"/><path id="path5284" class="cls-3" d="M133.8,73.55c7.74-1.92,20.3-.1,28.17-1.41h11.27c10.94,1.18,27,3.52,35.91,3.52,20.4,2,82.09,15.41,100.71,25.35-10.2-1.13-55.12-10.67-80.28-16.9A62.65,62.65,0,0,1,206.34,82C186.61,75.12,149.49,75.11,133.8,73.55Z"/><path id="path5288" class="cls-4" d="M111.61,75c6.66-1.65,13.15-2.86,18.67-1.43,6.38-.71,12,1.8,17.61,2.81,4.39,3,50.77,17.17,54.93,19-6.42.59-55.47-13.63-61.27-14.79C130.39,75.8,122.93,77,111.61,75Z"/><path id="path5290" class="cls-5" d="M104.23,75c7.87-.51,14.77,5.71,19.71,8.45,7,3.48,17.49,9.33,19.72,10.57-7.81-2.77-14.69-6.31-21.83-8.45C113.17,83.11,108.27,80.35,104.23,75Z"/><path id="path5292" class="cls-5" d="M87.32,76.36c1.78-1.24,3.76-.47,5.64-.7,3.93.23,4.7,3.76,7,5.63,5,4.65,7.13,9.87,9.86,14.79a85.31,85.31,0,0,0-9.16-8.45A37.17,37.17,0,0,1,87.32,76.36Z"/><path id="path5308" class="cls-6" d="M171.13,82c9.5.62,19.17,2.93,28.17,5.63,19.1,5.43,36.92,8.75,53.52,14.79-5.8-.28-11-.71-16.9-.71-5.21,1.1-9.6-.51-14.09-1.4C205,92.28,186.3,86.55,171.13,82Z"/><path id="path5310" class="cls-7" d="M126.06,82a44.48,44.48,0,0,1,17.58,5.63c10.7,5.43,22,8.75,30.3,14.79-4.28-.28-8-.71-12.58-.71-4.87,1.1-7.05-.51-9.85-1.4C144.52,92.28,134.38,86.55,126.06,82Z"/><path id="path5312" class="cls-7" d="M99.3,82c4.25.62,7.81,2.93,10.85,5.63,6.62,5.43,13.6,8.75,18.72,14.79a68.14,68.14,0,0,0-7.77-.71c-3,1.1-4.35-.51-6.09-1.4C110.7,92.28,104.43,86.55,99.3,82Z"/><path id="path5314" class="cls-8" d="M211.27,75.66c17.12.82,34.54,3.84,50.75,7.38,34.43,7.12,66.53,11.47,96.43,19.38-10.45-.37-19.73-.92-30.45-.92-9.38,1.44-17.28-.67-25.38-1.85-30.36-10.51-64-18-91.35-24Z"/><path id="path5316" class="cls-9" d="M180.28,73.55c10-1.92,26.26-.1,36.44-1.41H231.3c14.15,1.18,34.88,3.52,46.46,3.52,14.23-1.18,43.69,13,62.94,9.24,24.89-4.89,65.14,12.71,73.38,13.29-13.19-1.13-77.35-7.85-109.9-14.08A104,104,0,0,1,274.11,82c-25.51-6.88-73.53-6.89-93.83-8.45Z"/><path id="path5318" class="cls-10" d="M350,79.88c1.76-1.19,19.25-.47,21.13-.7,2.74-1,13.39-2.82,14.08-2.82,8.53.26,21.57.51,29.58,2.11,8.7.32,25.88,9.11,33.1,11.27-5.77-.41-16.08-4.4-21.83-4.93-2.85,4.45-11.79.5-28.17-1.41C365.31,79.46,359.2,81.21,350,79.88Z"/><path id="path5378" class="cls-7" d="M81.69,81.29c-.41,7.38,1,14.66,2.11,20.42-3.44,2.49-6.46-.53-8.45-.7-1.25-8.29,4-11.91,6.34-19.72Z"/><path id="path5582" class="cls-11" d="M274.47,94.71a4.17,4.17,0,0,0-.42,1C274.19,95.35,274.32,95,274.47,94.71Zm-.42,1a16.1,16.1,0,0,0-1.68,6.54c-.22-1.88-.24-3.27-1.45-4.69v3.94a27.23,27.23,0,0,1-5.92,1.12,26.51,26.51,0,0,0-3.55-.93,15.06,15.06,0,0,0-3.42.75c-.77-1-1.49-2.13-2.76-2.25-.8.57-1.7,1.24-2.61,1.82-1.29-1.18-3.15-.07-4.43.48-.5-.08-.65-.74-1-1.1a10.64,10.64,0,0,0-3.87,1.79c-.16-.38.14-1.07-.48-1.1-1.86.2-3.62,1.21-5.51,1.1a5.38,5.38,0,0,0-.49-2.07,2.69,2.69,0,0,0-1.93,1.79c-.38-.8-.46-1.4-1.16-1.37a15.48,15.48,0,0,1-1.55,1.1,3,3,0,0,0-1.73-1.38,5.52,5.52,0,0,0-1.84.28c.64,1.22,2.11,1.69,2.7,2.06a3.62,3.62,0,0,0,2,.28,6.28,6.28,0,0,0,1.75-.14,2.8,2.8,0,0,0,3.18,0,29.1,29.1,0,0,0,4.84.14c3,2.15,5.2.19,7.74-.77a4.55,4.55,0,0,0-.54.46c1.62.23,4.76,1.25,7.37,1.5,1.48-.94,3-.9,4.6-1.5,1.29.5,2.92.65,4.34,1.13,1.4.19,3,.47,4.21-.38.94-.74,1.45-1.32,3-.37.43.13.72.45,1.19.37,2.74,0,5.52.52,8.28,0-2.42-.94-5-2.08-7.89-1.5a7.66,7.66,0,0,1-.65-3.93c-.33.42-.48,1.85-1.32,1.68a16,16,0,0,1,.5-4.85Zm-76.61,2.06a33.73,33.73,0,0,0-.33,3.69c-1.4.22-2.52-.09-3.49,1.85a28.73,28.73,0,0,1,4.47-.17c2.7,0,4.65.89,7.42.67a13.5,13.5,0,0,0,5.23-.67c.38.21.83.22,1.2.67a39.34,39.34,0,0,0,5.34-.17c1.32,0,2.28.06,3.38-1a6.78,6.78,0,0,1,1.53,1.17c1.65,0,3.28,0,4.91-.17a23.77,23.77,0,0,1-4.69-2.68,3.59,3.59,0,0,1-1.85.5,17.59,17.59,0,0,0-.66-2.52c-2,.93-3.51,3.8-5.56,4.37-.88-1.93-1.87-4.37-3.49-4.37a4.9,4.9,0,0,1-1.31,1.68c-1-.72-1.7-1.6-2.83-1.17-.37.5-.62,1.31-1.09,1.51-.52-1.06-1-2.3-2.07-2.69a8,8,0,0,0-1.2,3,5.59,5.59,0,0,0-3.06-3.19,5,5,0,0,1,.44,3,12.38,12.38,0,0,1-2.29-3.36ZM158,98.11V102a6,6,0,0,1-3,.42c-.53,0-1-.09-1.52-.14a8.77,8.77,0,0,1-2.11,1.38,6,6,0,0,1-2.45-.83,11.32,11.32,0,0,1-2-1.66c-1.36.13-2.17.88-3.39,1.52a15.08,15.08,0,0,1-4,0c-2,.56-4,.31-6,.69a28.41,28.41,0,0,1,7.13,1.1c1.13-.39,2.32-.92,3.39-1.24a14.77,14.77,0,0,0,3.15.83,30.92,30.92,0,0,1,3.86.55,18.83,18.83,0,0,1,4.91-.82,45.5,45.5,0,0,1,5.49.13,7.39,7.39,0,0,1,1.41.69,4.79,4.79,0,0,1,.82-1.93,1.66,1.66,0,0,1,.22,0c-.74.57-.09,1.19,12.2,1.49,0-.47.23-1,0-1.42.68.37,1.33.62,2,.9a11.35,11.35,0,0,0,5.56-.12,3.74,3.74,0,0,1,2.07,0,37.29,37.29,0,0,1,4.8.38,13.49,13.49,0,0,1,1.86-2.19c-2.4,0-4.71.65-7.09.65-.29-.38-.64-.53-.77-1-.3.32-.82.45-1,1a13.4,13.4,0,0,1-2.83-.13c-.38-.51-.88-1.17-1.31-1.67-.26.35-1,.19-.87,1.15-.4-.7-.87-1.08-.87-2-1.77-1.29-1.34-1.37-2.4,0a10.13,10.13,0,0,1-2.73,1.41c-2.51.27-5.08.29-7.62.74a14.05,14.05,0,0,1-.39-2.83,14.69,14.69,0,0,1-.7,2.62c-1.29.19-1.69-1-2.34-1.93a14.9,14.9,0,0,1,.24,1.65c.24,1.13-.36,1.11-.7,1.66-.53.24-1-.21-1.29-.28-1.52-1.41-1.75-2.41-1.75-4.55ZM285.2,99c-.5,1.19-1.12,2.57-1.51,3.77-.34-.39-.56,0-.76-.9-.89.24-1.85.29-2.73.54a9.18,9.18,0,0,0,4.7,2c4.42,1,10.15,1.22,14.26-.9a28.28,28.28,0,0,1-6.82-.36,3.91,3.91,0,0,1-.91-.71c-.37.36-.82.49-1.07,1.07a9.7,9.7,0,0,1-2-.89c-.05-.15-1.05-.56-.45-1.44a12,12,0,0,0-1.52,2.15A29.8,29.8,0,0,1,285.2,99Z"/><path id="path5664" class="cls-12" d="M298.4,102.6c4.61.33,9.53-.51,13.59-1.13,1.31-.33,1.6.48,2.34.71,1,.29,1.6-.43,2.12-.57.85-.39,1.58.47,1.91.57,1.46-1.15,1.61-2.6,2.34-3.81,1.45.6,1.77,1.92,2.34,3,1.4,0,2.62-.2,4-.28.59.16,1,.18,1.49.28a14.18,14.18,0,0,0,4.25-2.12,9.79,9.79,0,0,1,2.76,2c.81-.3,1.7-.47,2.55-.71a58.72,58.72,0,0,1,6.37-.14c1.58,0,2.19-.89,3-1.41,1.6.17,2.44,1.11,3.4,1.69a19,19,0,0,0,4.67-.7,11.22,11.22,0,0,1,4.25,1.55h5.31c1.47-.83.85-1.57.85-2.26,1,.62,1,1.31,1.49,2a6.06,6.06,0,0,0,2.76-1.27,6,6,0,0,0,.21,2.26c3.06-.26,6.24-.14,9.34-.14.92.26,1.9.73,2.55,1-4.8,1.35-9.47.55-14-.28a39.67,39.67,0,0,1-4.67.14c-3.48-.78-7.44-.58-10.83-1a51.78,51.78,0,0,1-5.73-.14c.85,0,.75.6,1.06.85-3.11.31-5.37-.42-8.28-.42-2.31.13-4.62.14-7,.14a42.65,42.65,0,0,1-5.31.14c-1.59-.93-.7.35-.85.42a27.26,27.26,0,0,1-4.67-.14,7.57,7.57,0,0,0-2.77.42h-6.58c-5.51-.74-10.68,1.8-14.23-.56Z"/><path id="path5670" class="cls-8" d="M381.94,102.49c1.29-.24,3.79-1,4.58-1.23.86,0,.85.53,1.41.88a7.07,7.07,0,0,0,.71-2.47c.76.54.92,1.27,1.41,1.94a7.38,7.38,0,0,0,1.59-1.94c-.39.72.29,1.59.35,1.94a7.34,7.34,0,0,0,3.53-.53h3c.93-.3.86-1.34,1.24-1.94.44,0,.59.48.88.71a5.28,5.28,0,0,0,2.82.35c.72-.21,1.42-.47,2.12-.7,1.26-.33.6,1,.88,1.41,3.18,0,6.26.26,9.17.53,1-1.3.65-2.49.53-3.88.24,1.16.75,3.39.88,3.88a11.71,11.71,0,0,1,2.29-3.71,13.39,13.39,0,0,1,.18,3.35,15.67,15.67,0,0,0,1.59-1,5.51,5.51,0,0,0,.88,1.58c2.1-.53,2.54-1.71,3.35-3.52.53,1.15,0,2.51-.18,3.35.88-.46,1.64-1,2.47-1.41v1.23c1.67-.28,3.17-.55,4.94-.71,5.35,2.17,11,1.61,16.57,2.12-3.77,1.8-9.57,1.17-13.22.18h-4.41A13.44,13.44,0,0,0,429,103a14.47,14.47,0,0,1-4.58-.35,15.21,15.21,0,0,1-5.65-.53c.58.73-.29.88-.35,1.06a10.75,10.75,0,0,1-4.41-.53,48.61,48.61,0,0,0-8.29-.35v1.23c-2.34.33-3.4-.75-5.29-1.59-1.52.18-2.71.56-4.23.71a23.92,23.92,0,0,0-5.11.71c-.95.59-1.44-.44-1.76-.53a36.26,36.26,0,0,1-7.41-.36Z"/><path id="path5672" class="cls-13" d="M136.93,103c-1.15-.72-1.19-1.29-1.19-2.56a4.79,4.79,0,0,0-.73,2A31.64,31.64,0,0,1,132.54,96c.1,1.78.09,3.58.09,5.39-.51-.77-1.22-1.5-1.73-2.19a18.73,18.73,0,0,1,.09,2.38,3.43,3.43,0,0,1-1.65-.46c.16.64-.13,1-.27,1.56a2.85,2.85,0,0,1-1.83-2.38c-.15.56-.3,1-.46,1.55A14.4,14.4,0,0,1,125.23,99a13.82,13.82,0,0,1-1.38,3.2c-.47-.45-.32-.91-.36-1.47-.24.77-.69,1-1.28,1.56-.44,0-.73-.36-1-.64a3.91,3.91,0,0,1-1.37,1.37c-1.17-2.41-3.44-3.37-5.4-4.94a43.16,43.16,0,0,1,1.56,4.85c-.54-1.42-2.1-2.23-3.11-2.84a8.24,8.24,0,0,1,1.83,2.84,4.36,4.36,0,0,0-3.3-1c.48.16.76.63,1,.92a17.38,17.38,0,0,1-5.67-.09,5.48,5.48,0,0,1,1-3.48c-1.47.46-1.67,1.88-2.19,2.93-.47-2.31.27-3.87,1.37-5.76-1.76,1.27-2.36,3.65-3,5.12a9.61,9.61,0,0,0-1.46-2.65,8,8,0,0,1-.18,3.2,14.7,14.7,0,0,1-2.57.09c.43.57-.36.58-.45.73a7.58,7.58,0,0,1-4-1.74v1.65c-1.76.12-3.62-.14-5,.64,2-.34,3.79.73,5.76.73,2-.87,4.37-.74,6.32-1.1a31.69,31.69,0,0,0,8,.83c-.07.43,0,.35.1.64a10.06,10.06,0,0,1,4.57-1.47,11.77,11.77,0,0,1,2.93.83,8,8,0,0,0,.55-.92,4.2,4.2,0,0,0,2.74,1.1c-.2-.44.34-.75.46-1,.47,1.67,2.33,2,3.93,1.47.11-.33-.06-.65-.09-.92a9.09,9.09,0,0,0,4.57.18c2.44.27,5.64.68,7-.82Z"/><path id="path5674" class="cls-14" d="M91.47,102.26A11.81,11.81,0,0,1,91.28,97c-.61,1.46-1.8,2.64-2.3,4-.52-.26-1.11-.57-1.44-.77-.08.63-.13,1.3-.19,1.92a5.44,5.44,0,0,1-2.78-.58,11.3,11.3,0,0,1-.1-2.4A7.91,7.91,0,0,0,83,101.88a14.42,14.42,0,0,0-3.45-2.69A7.19,7.19,0,0,1,80.64,103a68.72,68.72,0,0,0-7-3.16c1.52.41,2.87,2.2,3.35,3.06a6,6,0,0,1-2.2.2,3.07,3.07,0,0,1-.58-2,5,5,0,0,1-.29,1.92c-1.4-1.94-2.72-3.8-5.08-4.51a6,6,0,0,1,2.4,4.41c-.49-.17-.89-.41-1.25-.57a3.19,3.19,0,0,1-.09-1.15,5.92,5.92,0,0,0-2.11,2.11c-1-.91-1.84-1.88-2.88-2.69,0,.79.1,1.51.1,2.3a39.35,39.35,0,0,1-4.32-.19,2.44,2.44,0,0,0,0,1.34,12.74,12.74,0,0,0-4.79-.86,15.08,15.08,0,0,1-1.44.86,6,6,0,0,1,.38-3.45,8.42,8.42,0,0,0-3.16,2.3c-1,.08-2.3.44-3.16.58a3.57,3.57,0,0,0-2.4-1.82,9.77,9.77,0,0,1,.38,3,31.44,31.44,0,0,0,4.7.58c.48,0,.59-.42,1-.68a20.36,20.36,0,0,1,2,1.44,6.35,6.35,0,0,1,2.88-1,45,45,0,0,1,5,1.44,3.49,3.49,0,0,0,1.54-1.15c1,.07,1.81.28,2.78.28a7.29,7.29,0,0,0,3.55-.76,3,3,0,0,0,1.82.86c.17-.3.45-.74.57-1a16.27,16.27,0,0,1,2.69.77,3.24,3.24,0,0,0,1.44-.87c1.66.52,3.54.35,5.17.68a1.93,1.93,0,0,0,.48-1.44,3.9,3.9,0,0,1,1.44.86,18.56,18.56,0,0,0,2.3-.86,7.78,7.78,0,0,1,2.11,1.34,12.09,12.09,0,0,0,1.44-2.21,8.55,8.55,0,0,0,3,1.54,5.59,5.59,0,0,0-.86-2.21Z"/><path id="path5676" class="cls-2" d="M47.54,104.8c-.57-3.57-1.46-3.72-3.81-5.38a12.37,12.37,0,0,1,.21,3.33c-1.17-1.44-1.06-3.31-1.06-5.39-2,1.17-3.66,3.77-4.87,5.65-.68-.37-1-1.37-1.48-2.05a12.94,12.94,0,0,0-2.32,1.79c-2.66.06-4.91-1.19-7.41-1.79-1,.82-.14,1.48-.21,2.31-3.2.08-6.06-1.11-8.89-1.8-.05,2.53-1,.51-1.48.77a10.78,10.78,0,0,1,.64-6.16A40,40,0,0,0,14.32,101c-.34-1.93-.48-4-.64-5.9-1,2.43-1.41,4.48-2.11,6.41-1.21-.26-.29-1-.43-1.54-.74-.8-2-2-2.11-2.05a19.3,19.3,0,0,1,1.05,4.1,17.24,17.24,0,0,1-2.32-1.28c-.8-1.27-1.13.91-1.27,1-2-.68-4,.76-4.45,1,1.56,1.94,4.45,1.54,5.93,1.54-.72,1.51.89,1.73,1.06,2,1.49,0,2.77-.93,4-1.54.9,1.86,2,1.27,3.17,1.8.66,0,.85-.83,1.06-1a9.89,9.89,0,0,1,3.81-1c1.2-.32,2.31.3,3.17.51-.35,1.62.69,1.34,1.06,2,1.77,0,3.26-1.3,4.87-2a10.39,10.39,0,0,1,3.38-.26c1.18-.15,2,.55,3,1a7.77,7.77,0,0,0,2.54-.51c1.13-.18,1.68.34,2.54.51,0-.64.57-.86.85-1.28,2.06.87,3.4.46,5.08.25Z"/></g></g><path id="path4910" class="cls-15" d="M279,104.94c-38,.59-57.26-1.61-142.72-.21-22.87,0-45.41.15-68.09,1.46-17.38,0-34.33-.45-51.61-.73A125.23,125.23,0,0,1,0,104.07v56.8H450V104.5c-24.44-1.15-48.21-.73-72.17.23-22.86-4.22-46.95,1.85-70.24,0C300,103.18,286.9,106.94,279,104.94Z"/><path id="path6449" class="cls-16" d="M156.51,133.7c-36.57,3.49-73.12,4-110.09,4H0v7.52c33.88-2.59,58.53.88,111.81,2.26,116,1.17,257.88-3,338.2-3.86C345.83,133.51,213.77,136.85,156.51,133.7Z"/><path id="path6469" class="cls-17" d="M29.58,120.48c103.18-3.11,246.88-6.37,290.32-3.26,37-1.31,72,5.7,109,5.7-48.06,2.56-191.13,12-236.85,2.81C167.24,116.43,189.34,126.59,29.58,120.48Z"/><path id="path6479" class="cls-18" d="M14.08,124.25c20.75,1.69,41.8-1,61.27-2.82h38c26.71-1.89,57.88,2.49,81,6.34C133,136.51,66.84,139,7.75,139c2.92-1.19,5.3-3.38,7.74-4.93,1.66-5-.15-5.67-1.41-9.86Z"/><path id="path6510" class="cls-19" d="M0,104.07v16.66c36.33-11.53,108.38,3.56,136.62-13.38-4.29-.22-14.33-1.24-27.07-2.49-13.8.17-27.55.53-41.35,1.33-17.38,0-34.33-.45-51.61-.73A125.23,125.23,0,0,1,0,104.07Z"/><path id="path6531" class="cls-20" d="M270.73,124.27c10.86,2.39,8.95-3.36,39.44-2.82,30.07-1.06,59.53,1.41,89.44,1.41,4-.63,9.83.42,12.67.7-31.8,2.46-91.09-.92-141.55.71Z"/><path id="path7068" class="cls-21" d="M353.06,107.39C210.85,107.33,108,109.52,0,109.9v1.15c131.18-.47,254.61-4,450-1.21V108.1q-35-.5-67.12-.64-15.19-.06-29.82-.07Z"/><path id="path5095" class="cls-22" d="M0,148.81v3.12c142.25-2.94,267.39-4.93,450,1V151C298.84,144.27,144.58,145.89,0,148.81Z"/><path id="path6543" class="cls-23" d="M0,139.89v19.57a15.71,15.71,0,0,0,1.7,1.41H113.83c20.22-1.62,46.11-4.06,50.25-9.16C129.26,148.92,72.82,147.58,0,139.89Z"/><g id="g5729"><path id="path5643" class="cls-24" d="M315.09,79.64c0-15.37,1.44-32.61.9-48.21.58-1.43.52-2.52,2.41-1.85-.41-.33-1.24-1-1.81-1.47.23-1.82.89-1.81,3.17-1.72a6.88,6.88,0,0,0-.3-2.34c-1.65-.54-4.08-3.05-.76-2.71-1.15-.94-1.64-1.86.31-2.46-.72-1-1.38-2.45.9-1.72-.67-2.72.77-5.46,1.21-1.1,0-5.63,1.82-1.78,1.5,1.84.32.46,1.29.94.3,2.21.32.65,1.43.76,0,2.1.17.27,1.74-.25.76,1.23.07.63.64,1.38,0,2.33a3.31,3.31,0,0,1,.3,2.58s2.07,1.44,1.81,2.83a5.67,5.67,0,0,1,1-2c-1-1-1.33-1.15.46-2.46-1-1.11-1.32-1.54.15-2.09-.66-.72-1.41-.71-.15-1.73-.44-.78-1.69-1.56.45-1.47-.28-2.25,1.23-5.47,1.51-1.36a2.71,2.71,0,0,1-.16,2.71c.55.6,1.49.8,0,2.21,1.11.68,1.47.56,1.21,2.22.21.35,1,.87.91,1.47,0-1.35-.37-1.93,1.2-2.33a5.54,5.54,0,0,0-1.2-1.48c.55-.56-.29-1.08,1.2-1.23-.44-.39-.74-1.15-1.51-1.35.41-.44.25-1.11,1.81-1-.16-.27-.72-.5-.6-1s-1.87-.92.9-1.48c-.1-.86-.59-1.55.76-1.59-1.07-.88-1.57-2.2.3-1.6-.92-1.13-1.57-1.94.45-2.09,0-4.95,2.1-2.28,1.51,1a2.58,2.58,0,0,1,.3,2.58c.07.58.55,1.18-.3,1.85.28.52,1,.73.3,1.84,2.44-.59,3.93,1.08.3.86,1.05.09,1.42-.19,2,.74-.71.45-1.65,1-2,1.72,1.47.36,2.6.46,1.51,2,0,.27.48,1.12-.15,1.72,1.1.9,1.41,1.05-.15,2.46,1.07.4,2.11.72,2.56,1.72.18-.73,0-1.36.75-2-1.21-1-2-1.88,0-2.09-1.47-.9-1.68-1.22,0-1.6V25c-1.19-.72-1.75-.84.16-1.72-1.19-.73-2.15-1.78.6-1.47-1.31-1.07-3.09-1.9-.6-2.09a7.06,7.06,0,0,1,.15-2.34c-1.08-1.46-2.29-3.57.45-2.95-.65-2.65,2.15-1.59,1.51,1.1.21.18,1.83-.06.75,2.22a2.2,2.2,0,0,1,.15,2.58,2,2,0,0,1,.9,2.46c.11.41,1.24.59.46,1.72.08.66.51,1.47,0,2,.84.69,1.65.51.15,2.09.45.5,1.38,1,.75,2.46.56.52,1.4.59,1.51,1.85.16-1.43,0-2.88,1.36-3.82-1.58-.25-2.29-1.65,0-1.72.1-.5-.22-1.05.3-1.47-1.45-.53-1.9-.94-.3-1.48-1.14-.81-1.92-1.15,0-1.85-.08-.65-.09-1.18-.16-1.84-.57-.84-1.38-1.18.31-1.72-.8-1.17-1.25-2.08.75-1.48-.15-.63-.58-1.2-.15-2-.44-.89-1.25-1.86.45-2.46.39-3.17,2.43-1.42,1.51.87a10.78,10.78,0,0,1-.15,2.82c1,.84,1.63,1.14.6,2.22.18.32,1,.69.45,1.84,2.37-.86,1.58.91-.3,1.36,1.22.66,2.1.5.3,1.84,1.1.67,1.5.41.76,1.72.3.57,1.09.86.15,2,1.34.55,2.09,1.05,1.2,2.71-.2.57.08,1.5-.6,1.72,0,.37.73.68.15,1.47.86.07,1.09-.94,2.11.74-.26-.7-.81-1.27,0-2.21-.88-1-1.36-.88.15-1.48.45-3.66,2.3-.67,1.06,1.36.2.53.89,1,.45,2a2.89,2.89,0,0,1-.15,2.71c.21.24.93.67,1,1.23.7-1.89.25-1.84,1.21-3.2-.59-.64-1.43-.67-.3-1.47-.05-.29.12-.6-.15-.87-.58-.63-1.27-.38-.61-1.72-.12-1-.41-1.81,1.06-2.33-1.07-.88-1.41-1,0-1.85,0-3.79,2.64.16,1.06,2.34.57.35,1.24,1.08.9,1.6.41.6,1.4,1.09,0,2.21v1.48a2.48,2.48,0,0,1,.9,2.82c0-4.25,2.21-.7,1.21,1.73,0,0,1.12.92.75,2,.31.57,1.28,1.18,0,2.59.4.57,1.31.65.31,1.72,0,.26.67.89-.16,1.48.57.82,1.64.68-.15,2.09,1,.8,1.64,1,1.06,2.33.35.37,0,1.11,1.05,1.11a11.07,11.07,0,0,0,0-3.2c-.12-1-.73-1.87.91-2.21-.23,1.82.95,3.46.15,5.29.24,1,.11,1.75,2,1,.11-.44.32-1.23.45-1.84-.85-.7-1.82-1,.15-1.73-2.22-1-2.3-2.45.6-1.47a4.69,4.69,0,0,1,.31-1.11c-1.88-.61-2.1-.65-.61-1.35-.44-.82-1.4-.85.3-1.11,0-3.88,1.74-6.64,1.06-1.6a6.57,6.57,0,0,1-.3,1.85c.23.65,1.34.39.6,1.72L373,47.54c.3.44,1.34,1,.6,2.59-.2,1.62,1.22,2.08,1.06.12-.31-.77-1-1.74-.15-2.58a4.43,4.43,0,0,0,.3-2.1c-1.25-5.61,3.55,2.91.9,3.94,1.59.57,1.15,0,.76,1.23,1,.62,1.74.65.6,2.09.76.62,1.73-.17.45,1.35.35.63,1.45.44.15,2,.51-.2,1.44-.16,1.51-.61,0-.62,1.35-1.6,1.81-1.11.5.29,1.45.36,1.51.86.17-.71.16-1.81,1-2.21-1.22,0-1.52.1-2.11-.86a5.79,5.79,0,0,0,3.17-.86c-1.79,0-3.92.3-3.32-1.6,1.78,0,3.22-.31,3.32-2.34-2.53,2.06-4.21.51-1.66-.74-.41-.74-1.5-1.3.75-1-.7-1.29-.8-1.71,1.36-1.6a3.78,3.78,0,0,1,.3-1c-3.47,0-4.14-1.81-.6-2,.1-.33-.27-.74.3-1-1.67-1-2.82-1.78.45-1.6-1.31-.59-3-1.73-.3-2.21a3.11,3.11,0,0,1,2.26-1.6c-1.07-1-2.38-2.15.15-2.34.22-.45-.74-1.2.76-1.59-.65-1.06-1.4-2,.9-2.22-1.15-3.12,2-2.89.75-.12,0,0,1.14,1,.76,1.72,1.1.9,1,.7.15,1.85,2.17.17,2.25.87.15,1.35,0,.33.62.8.15,1.35.05.33-.11.68.15,1,1.06.87,2.59,1.76-.15,2.59.34.24.89.32,1.21.86-.41.29-.69,1-1.21.86v.61c.76.47,2.64,2-.15,1.6-.05.33.1.68-.15,1,.73.47,1.51-.4,1.51,1a5.18,5.18,0,0,1,2.86.86c.31-.29,0-1.09,1.06-1-3.26-.27-3.37-1.59.15-1.72-2.35-.39-4.22-2.09-.91-2.71.16-.28-.78-1.26,1.51-1.11.1-.28.18-.57.3-.86-3-.22-2.8-2-.15-1.47.05-.29-.11-.6.15-.86-1.23-.76-1.7-.93.3-1.6-.67-1-1.1-1.6,0-2.46,0-.61-.83-1.14.61-1,.34-2.82,1.51-4.34,1.2-.61,0,.21.34.95.15,1.35l.15,1.23c1.3.32,2.4,1.25-.45,1.11.06.14,2.1.42.3.74V35c.9.55,1.43.56,1.21,1.84-.35.29-.58,1-1.06.86-.05.21.22.44-.15.62.71.51,1.47-.48,1.36,1,3,.25,2.3,2-.45,1.23v1.11c2.17-.89,3.94.12,1.35,1.35-.15.58.13,1.38-.45,1.72.51.46,0,.76,1.36,1.23.49.36.35.88,1.51,1.11.28-2.36,1.4-1.29,1.2,1.11,1.56-1.7,2.18-.92,1.36.86.51-.06.44-.77,1.05-.12a12.86,12.86,0,0,1-.9,2c1.69-1,2.39-.78,1,.86V53.2c1.86.45,2.3.66.46,1.72.05.25-.27.52.15.74,1.9,0,1.83.17.75,1.6,1.12-.09,1.08-.75,1.51.61-.37.66-.66,1.5-1.06,2.22.25.27,1.13.21.91,1,0,0,1,.72.75,1.48,0,.23.78,1.29-.3,2.21.18.23,1.4,0,.9,1.11-.14.3.54,1.21-.75,1.6.28.26.71.27.9.86a4.32,4.32,0,0,0-1.05,1.47c.24,0,.74-.48,1.36-.24,0,0-.1,1.82-1.36,2.21,1.49,1-15.49-2.1-15.87-.57-.91,1.16-1.88.11-2.11.12.28,1.76-2.1,2.05-2.26,2.1-.19-.44-1.11-.17-1.66-.25-.37,1.2-11,2.44-2.26,1.72Z"/><g id="g5629"><path id="path5552" class="cls-25" d="M312.79,0c-.34,0-.5,1.28,0,3.36A5.66,5.66,0,0,1,313,5c-1.81-.45-3.19-.21-1.76.93-2,.41-.35,1.2.49,1.78-.17.42.13.82.19,1.08-2-.07-1.67,1-1.26,2.17-2,.26-1.43,1,.09,1.39-.64,1.1-.29,1.39.78,1.86C308.6,13.83,307.68,16,311,16c.35.32.37,1.24.39,1.4-1.35.48-.73,1.07.2,1.62a3.86,3.86,0,0,1,.1,1.31c-2.42-.24-3.48,1.48-.49,1.48-2.86.86-2.88,2.42.39,2.16.12.67-.25.88-.49,1.32-2.9-2.15-5.44,1.85-.58,1.46.36.57.13.87,0,1.4-1.93.2-3.71,1.15-2.24,2.32-1.17,1.58.88,1.59,2.14,1.39-.08.88.2.83,1.27,1-1.56.53-.91,1.22,0,1.94.24,1.45.31,3,.49,4.41-.74.52-3.53,2.26-.88,2.47-1.56.56-1.17,1-.88,1.47H308.5c.12-1.29.11-1.73-1.17-2.24,1.19-.77,3-1.78.78-2.48,1-.74.13-1.34-.58-1.7.92-.71.7-1.19.39-2,.14-.5.84-.63,1.46-.93A5.85,5.85,0,0,0,306.16,32c.34-1.3,1.26-2.44-.09-3.25,1.2-.94,1-.94,0-1.7a1.38,1.38,0,0,0,.09-1.55c1.1-.84.6-1,0-1.47.73-1.16.85-1.79-.39-2.09.75-1.17.66-2.14-.39-2.86.25-1.27,0-2-1.26-1-1-3.68-2.16,0-1.76,1.55-1.72-1-1.26.48-.87,1.16-1.51,0-.82.76-.3,1.32-.28.46.26.61.39.92-3-.31-3.17,1.4-.09,1.4-.69,0-.26.46-.39.69-1.85-.66-3.52.22-1.37,1.16-2.69-.54.54,1.95,1.17,2.32.07.31-.19.52-.29.78-.78-1.35-1.36-.76-1.36.46-1.25-1.27-3.65-1.56-2.34,0,.41.55,1.22.67,1.85,1,.09.34-.06.37-.1.62-1.86-1.32-5.62.43-2.14.86a3.22,3.22,0,0,1,.09,1.16c-3.63-.19-2.22.6,0,1.31-3.78.48-1.24,1.9,1.07,2.4.27.32,0,.64,0,.93-1-.26-2.72-1.44-2.72.15a3.4,3.4,0,0,0-1.95,0c-.3-3.73-1.27-7.53-1.27-11.29-1.92,2.38-.18,7.43.2,10.75-.88.93-.51,1.09.29,1.93-.56.94-.22,1.57.49,2.32a11.18,11.18,0,0,1,.09,2.25H292c-.3,1,.59,1.19,1.37,1.47a4.75,4.75,0,0,0-.1,2.47c1.16,1.33-1.15,2.43-1.95.85a1.36,1.36,0,0,0,.68-1.54c-.09-.59-.58-.46-.78-.62.18-.32,0-.53,0-.85.41-.92.14-1.23-.38-1.78.55-.93.14-1.33-.49-1.7.43-1.62.23-1.6-.2-3.48a1.42,1.42,0,0,0-.39-1.86c.68-2.16-1.08-2.66-.78-.23-1.51-.3-1.1,1-.39,1.85-1.2.92.59,2.19.39,3.79-1.13-1-3-1.33-1.95.31-1.79.33-1.44,1.43-.19,2.09-.05.94.1,1.85.1,2.79-1.83-1.82-3.72-.23-1.47.77-.23.11-.06.26-.09.38-2.76-.51-1,1.08.39,1.47-2.88.18-2.3,1.32-.1,2-4-.21-4.52,2.25-.1,1.55v.78c-1,.8-1.62.89-3.21.77-1.7.55,0,1.46.87,1.93-5-.07-.61,1.36,1.46,2.09-1-.29-7.67,2.4-2.82,2.78a2.26,2.26,0,0,0-.29,1.86,6.48,6.48,0,0,0-1.46-.85c-.1-.91-.32-.85-1.37-.93.52-1,.28-1.4-.49-1.86.33-2.68-1.56-2.64-1.26-.07-1.37.26-1.39,1.18-.88,2.09-1.89.36-3.27,1.68-.78,2.47-.93,1.38-2.46,2.34-.39,3.33-1,.88-.55,1.58,1.07,1.7-3,.51-2.72,2.37-.19,3.48-3.22.13-1,2.33-.2,3.09,1.64-.6,3-1.24,4.19-.77A7.18,7.18,0,0,1,285,73.9a2.82,2.82,0,0,1,.09,1.08c1.48,0,2.56-.54,4.1-.54-.48-1,.45-1.32,1-1.55-.09-1.08-.52-1.53-1.75-1.62a2.61,2.61,0,0,1,1.75,0c1-.51,2.5-.51.88.46.66.21,1.52.3,1.56.93.28-1.1,1.83-1.4,2.14-.16,1.22-1.45,2.79-.56,1.37.93a15.45,15.45,0,0,0,4.67-.93c1.27-.67,2.63-.69,2.83.62a7.88,7.88,0,0,1,3.51-1.23c.72-.83,2-1.41,3-.08l3.31-.93c0-2.26,2.78-.28,4.09.46,1-.38,1.94-.84,3-.23.11-.31.2-.65.39-1.08a2.49,2.49,0,0,1,1.49-.15c.1.43.47.79,1.25.88,2.07.23,3.26-1.21,5-1.63.86,1.81,3.24.39,3.41.16,2.35.37,2.18-2-.1-2.09a3.63,3.63,0,0,1,.1-.93c2.55-.2,2.59-1.67.19-1.16-.06-.2-.18-.7-.29-1,2.13-.75,2.86-2.21-.58-1.16.05-.38.28-.66-.29-1-.78,0-1.55-.06-2.15-.08V59.62c2.75.65,5.16-.81.49-.85v-.54c2.84-1,4.23-1.18-.39-1.47,0-.15-.21-.58-.1-.85,1.54-.92,4.14,1.43,5.65.23.63-.49-.94-1.39-1.36-1.47a9.76,9.76,0,0,0-3.41-.38c4.34-.35,3.29-2-.49-1.09,0-.15,0-.31,0-.46,1.34-.59,2.12-1.91-.19-1.55,0-.29.27-.63,0-.93a2.82,2.82,0,0,1,.09-1.08c2,.15,2.24-.75.3-1,1-.31,2-1.53-.2-1,.07-.3-.09-.6.2-.85a2.8,2.8,0,0,1,.09-1.08c1.19-.53,1.17-1.37-.48-1.17.92-3.65-1.14-3.78-.78.24-1.55-.55-1.21.32-.1,1.16-1.87,0-2.27.74-.39,1.16a2.23,2.23,0,0,0,.1.62c-1.52-.24-3.35.5-.88.69a7.18,7.18,0,0,0-.19.93c-.54.43-1.23.72.19,1-.2.35-.51.62-.49,1.16a3.12,3.12,0,0,0-.65.13,1.47,1.47,0,0,0-2-.17,6.41,6.41,0,0,0-2.14-.69c.25-.67.16-.9,1-1,2.39,2.18,4.16-2,.88-.85-.16-1.25-.83-1.2-2.25-.93,0-.39-.13-.89-.19-1.31.29-.18.67-.21.87-.54,1.35,2.35,3.63,1.16,1.66-.55,2.14-1.27-1.83-2.63-3.41-2.55a8.48,8.48,0,0,0-2.73-1.16c-.94-3.73,4,1.54,5.36-.46a4.11,4.11,0,0,1-2.24-1.78c1.72,0,1.66-1.24.2-1.7.51-1,.85-3-1.56-1.86,0-2.14-2.24-.7-2.34-2.63,1,0,1.3.16,1.65-.54.42.6.9,3.29,2.44,1.55,1.09-.31,1.57-.53,1-1.55,1.11-.66.81-2.1-.87-1.16-.35-.37-.66-1.1-1.66-1a4.41,4.41,0,0,1-1.27-1.63c1.72.55,3.38-1.52,1.08-1.78-.48-.95-.95-1.22-1.76-.54a3,3,0,0,1-.87-1.16c.85-.37,1.27-.46.87-1.32,1.74-1,.62-1.44-.68-2.24.31-.89.12-1.16-1.37-.85a8.71,8.71,0,0,0-.09-1.62c3.27.78,3.34-1.78.39-1.94,1.27-.11,1.69-.85,0-1.31-.07-.53,0-.8-.49-1.24,3.39-.8.48-1.72-1.36-2.09,1-.37,1.41-.56,1-1.7.07-.12.64-.63.49-1.23,4.11,0,.72-1.58-1.46-.24.07-.59.07-1.18.19-1.78,2.12-.15,1.49-1.15-.29-.85.06-.26.39-.46.19-.85,2.39-.31,3.17-2.11.3-1.08.41-.82.94-2.26-.78-2C313.42.88,313.05,0,312.79,0ZM251.08,23.93c-.47-.08-1,.72-.75,1.78-1.27.75,0,.54,0,1.55-.26.46-.7.39,0,1.08,0,.08,1-.21.19.39-1.89-.13-2,1.32-.29,1.55-1.13.39-1.11,1,.29,1.46a7.27,7.27,0,0,0-.68.93c-1.37.36-1.94,1.23-.1,1.16,0,.12.06.92.29,1.16a6.31,6.31,0,0,0-1.65.54c-1-.34-3-.34-1,.93-.64.76-.65,1,1.17.93a2.93,2.93,0,0,0-.68,2.16c-2,0-1.57,1.2-.2,1.55-2.37.57-3.52,2,0,1.55-1.63.52-2.09,1.49.1,1.62-.84.06-1.17-.08-1.65.7-1.25.77-.87,1.46,1.07,1.62-.53.61-.85,1.13-1.37,1.7-2.53-1.34-4.25,1.85-.19,1.78-1.74,1-.86,2.1,1.27,1.48-.9,1.27.17,2.51,1.75,1a2.82,2.82,0,0,1-.1,1.08,25.87,25.87,0,0,0-3.7,1.47c-2.38,1-1.86,3.26,1.46,2.71-1.25.59-3.69.45-3,1.7-.49,1.94,2.16-.56,3.61,0-.29,2.28-3.63,2.08-2.83,4-2.07.66-1.55.83-1.75,2.48-.47.27-1.13.34-.49,1.31-.7,1.1.41,1.93,2.63,1.32-2.9,1.46.21,2.25,1.66.85-.58.61-.81,1.1-1.37,1.78-1.62.12-1.51,1-1.46,2.16-1.78.28-1.62,1.38-1.85,2.79a8.28,8.28,0,0,0-2,1.93c-3.21,1.91.26,2.72,3,1.62,1.51.1,2.62.08,3.61-.77a11.63,11.63,0,0,0,2.33-.15c.26,1.24,1,1.19,2.34.54,1.28,0,1.95-.17,1.46-1.24h1.57c1.19,0,3.66.11,2.14-1.39a2.56,2.56,0,0,1,1-.08c1.34.59,2.11,1,3.7.31a15.32,15.32,0,0,0,4.2.16c-.09-.44-.15-1.32-1-1.63,0-1.88-.81-1.88-2.73-2.24,0-.11-.22-.9-.78-1.16a11.55,11.55,0,0,0,.29-1.86c1.81-1,1.28-2.18-1-2.86,2-.58.9-1.35-.58-2.09,0-.45.73-.84-.88-1-.08-.29-.38-.6-.29-1,1.41-.62.74-1.36-.69-1.7,2.17,0,1.16-1.22.1-1.78,1.48-.35,1.55-1.18-.19-1.86,2.44-.19.54-1.46.19-2.63.58-.61.74-.79,0-2,2.81,0,.46-1.64,0-2.32a1.43,1.43,0,0,0-1.17-1.31c1.38-.33,1.68-.82.2-1.63,1.7-.54,1.2-1.82-.78-1.39a2,2,0,0,1,0-1.16c2.39-.84.38-1.75-1-2.55,1.71-.14,2.28-1.19-.29-1.24,1.15-1,4.68-1.85.1-1.78,0-.64-.07-1,.68-1.47.83-.66,1-1.26-.19-1.78-.14-1.08-1.38-1.82-1.37-3.09,1.29-1-.61-.6-.78-2.4a.94.94,0,0,0-.68-1.23c2.15,0,.29-1.08-.2-1.94.91-.72.9-.57.1-1,0-.21-.5-.29-.1-.62.35-.62.84-.61-.29-1.24,0-.82-.24-1.19-.51-1.24Zm68.53,27.54a11.18,11.18,0,0,1,2.24,1.47c2.07.33,1.75.92,2.63,1.85a2.57,2.57,0,0,0,.51,0c-.57.41-.78.83-.3,1.85-2.34-.18-3.19,1-.39,1.32-.58.46-1.39,1-.29,1.62a2.17,2.17,0,0,0-1.08.21,2.86,2.86,0,0,0-1.17-.16c-.48-1.27-1.18-.84-2.34,0-.27-.35-1.72-2-1.47-3.1.84.67,1.6,2.25,2.93,1.16,1.63,0,2.48-1.38,1.26-2.39.86-.69.56-2-.78-1-1-.18-1.55-.1-1.94-1.08.07-.55.07-1.15.19-1.7Zm5.87.8a2.78,2.78,0,0,0,.38.08c-.08.34-.81.44.2.85,0,.13-.28.61,0,.85l-.44.27c.21-.44,0-1.1-.55-1.77A3.64,3.64,0,0,0,325.48,52.27ZM323,60.83a2.28,2.28,0,0,0,2,.56c-.34.11-.67.23-1,.32-.09,0-.34.1-.56.2-.24-.16-.7-.07-1.4.54-.11-.46.2-.82-.29-1.24a2.83,2.83,0,0,0,1.31-.38Zm1.33,3.43c.16.18.22.51.59.7a8.83,8.83,0,0,1-.68,1,5.77,5.77,0,0,0-.71.1,6.89,6.89,0,0,0-.58-1.06,2.25,2.25,0,0,0,.93-.61h0a3.33,3.33,0,0,0,.45-.13ZM323,67.37a6.1,6.1,0,0,0,2,.68A4.44,4.44,0,0,0,324,68a2.59,2.59,0,0,0-1.08-.51l.12-.11Z"/><g id="g5683"><path id="path5623" class="cls-8" d="M328.88,68.26c-9.94-.56.21-10.14-9.47-8.08C296.48,61.77,254,76.32,234.72,83.62c8.13,1.39,19.82,5,25.57,6.93,23.43-6.75,44.44-20.23,68.59-22.29Z"/><path id="path5625" class="cls-26" d="M277.81,87.08c8.29-5.37,16.54-8.77,25.26-12.87,12.95-13.41,22.47-20,43.08-3.47,9.74,4,22.36-.74,38.77-1.83,8.86-.6,15.22,1.54,29.41,8C432,97.36,427.66,87.25,426.07,87.42c-9.56,1-43.91-5.6-58.35,3.52-23-9-47.83-9.31-49.9-8.39-13.9,4.36-27.87,10.14-40,4.53Z"/><path id="path5627" class="cls-27" d="M319.51,60.73c21.2-1.18,33.56,6.89,42.12,10.5,8-1.17,9.53-1.58,20.51-4.65,8.35,1,25.94,5.58,39,14.27-7.54-5.59-36.7-12.4-46.44-7.37-2.71,1.4,4.15,10,3.6,12.16-7.06-3.48-30.95-5.22-38.61-6,8.45-10.48-9.16-19.14-20.2-18.92Z"/></g></g></g><path id="path5748" class="cls-8" d="M362.2,71.55A54.17,54.17,0,0,1,371,77.82c.93-.35,7,9,7.67,8.42,27.22,9.18,8.36,1.3-.27-5-6.21-4.75-.53-11.14,4.05-14.56-2.63-1.69-17.18,3.94-20.23,4.86Z"/><path id="path5750" class="cls-8" d="M394.37,69.21c6.06.54,12.46-.81,18,1.64-.11-.19,6.33-2.82,11.64-2.43-1.36,3.24-7,7.16-5.5,9.54-10.52-4-16.74-6.74-24.11-8.75Z"/><path id="path5752" class="cls-10" d="M431.66,72.65c0-1.94,2.44-2.15,4.3-2.93,3.82,1,8.31,1.52,11.7,2.54,3.25,4,1.84,10.45,2.34,15.41-.29-8.88-14-10.69-18.34-15Z"/><path id="path6481" class="cls-28" d="M298.59,113c61.84-6.54,115.46.71,149.3.71,1.23,1.75.47,3.75.7,5.63C424.18,113.6,366.2,117.69,298.59,113Z"/><path id="path6483" class="cls-29" d="M449.3,128.47c-24.49,3.77-49.73,1.1-73.95,3.53,39.69,2.84,56.5,4.38,66.9,4.22C449.74,135.43,447.14,133.86,449.3,128.47Z"/><path id="path6493" class="cls-30" d="M176.76,132c11.77,1,23,1.05,34.51-1.41,24.49-5.68,49.55.7,73.24.7-18.37.67-38-2.26-54.93,2.82-23.32.86-23.88,1.73-71.83,3.52,6.61-1.47,12.1-3.75,19-5.63Z"/><path id="path7078" class="cls-31" d="M116.49,110c-39.38.06-77.44.11-116.11.12v.21c40.93,0,81.31-.07,123.15-.13Z"/><g id="g7080"><path id="path7066" class="cls-32" d="M284.52,122.22l-22.21,0c-10.54,0-22.09.1-32.32.17.45.61,1,1.34,1.45,2.12,21.51-.14,44.94-.21,68-.19-1.26-.72-2.6-1.45-4-2.15Z"/><path id="path7064" class="cls-33" d="M304.89,122.23a39.59,39.59,0,0,1,3.49,2.15c22.8,0,44.27.17,69.1.42-4.11-.77-6.12-1.52-10.24-2.25Q334.89,122.27,304.89,122.23Z"/><path id="path7062" class="cls-34" d="M222.38,122.51c-20.85.16-41.16.39-61.14.66a9.77,9.77,0,0,1-1.77,2.16c20.4-.28,41.16-.51,62.47-.68C222.05,123.94,222.22,123.22,222.38,122.51Z"/><path id="path7060" class="cls-35" d="M380,122.76c3.33.66,6.65,1.43,10,2.24h0c16.87.21,42,.47,60,.79v-2.13c-21.57-.38-50-.68-70-.9Z"/><path id="path7076" class="cls-36" d="M154.9,123.27c-21.91.31-43.51.66-65,1-3.08.8-6.55,1.58-10,2.31,23.57-.41,47.14-.82,71.07-1.16C152.22,124.72,153.57,124,154.9,123.27Z"/><path id="path7072" class="cls-37" d="M79.44,124.5,8.11,125.76,0,127.12V128c22.76-.38,45-.78,67.25-1.18,4.07-.81,8.18-1.6,12.19-2.35Z"/></g><path id="path6497" class="cls-38" d="M209.29,146.9C138.75,147,69.9,146.69,0,148v2.74c86.82-1.58,167.32-2.84,258.34-2.4-3.24-.95,1.21-.11-2-1C240,146.22,223.69,146.79,209.29,146.9Z"/><g id="g6558"><g id="g4775"><path id="path4897" class="cls-39" d="M55.7,140.18c-2.33,3.7-1.74,8.34-4.16,12-.28-.14-.56-.28-.83-.44h0c-.68-1.56-1.66-3.25-3.05-3.82a9.25,9.25,0,0,1-.16,2.52,22.91,22.91,0,0,0-1.26-2.18,28.79,28.79,0,0,1-.71,3l-.56.51v-7.07c-1,2.56-2.43,5.22-2.77,8.08-1-1.6-1.5-3.45-4.13-3.89-.55,1.27-1,2.5-1.65,3.87-.26-.18-.53-.36-.8-.52a5.19,5.19,0,0,1,.78.56c-.15.34-.27.65-.44,1H34.68c-.62,1.39-1.45,2.43-2.15,4.16a41.89,41.89,0,0,1-1.33-4.16h-.15c-.74,1.58-1.77,3.11-2.48,4.76.39-1.43.94-2.8.59-4.37a24.13,24.13,0,0,0-3.57,4.17c0-1.51,0-3,0-4.53l-1.33,0c-1.64,2.76-3,5.77-4.64,8.47,0-2.83.18-5.65-1.65-7.94l-.19,0c-.29,1.46-.64,2.88-.94,4.35a17.1,17.1,0,0,0-1.39-4l-.43.08a15.52,15.52,0,0,0-1.75,4.69,34,34,0,0,1-.95-4.1c-.42.1-.85.21-1.27.33a12.25,12.25,0,0,0-.36,4.36A6.93,6.93,0,0,0,8.13,157c.47,1.55,1.36,2.92,1.19,5a15.61,15.61,0,0,0-5-3.75A45.8,45.8,0,0,0,0,160.45v34.93H450V161.89c-4.18-2.31-8.59-4.38-13.38-4.54-5.8,0-10.48-5.2-16.2-4-3.29.33-7.62,5.18-11.27,5.42-3.1-.47-6.5,1.11-9.15-1.4-1.53-.16-10.09-1.45-13.38-2.12H385a2.26,2.26,0,0,0,.2-.52c-1.07-.83-2.41-1.48-2.92-.55-.06.23-.13.45-.2.67a1.66,1.66,0,0,1,.2-.67,1.78,1.78,0,0,0-.95-2.07c-.57.78-1,1-.74,2.25-.27-.4-.77-1.66-2-1.5a3.42,3.42,0,0,0-.49,1.75,2.35,2.35,0,0,0-2,.62v-2.49a21.12,21.12,0,0,0-1.56,2.51h-.32a17,17,0,0,1,.64-6.12,41.37,41.37,0,0,0-1.91,6.12h-.11c-.23-2.62-.14-5.43-1.1-8-1.39-.93-3-2.07-5.35-1.87a3.19,3.19,0,0,1-1.09,1.65,4.43,4.43,0,0,0,1.46-.78c1.39,1,3.12,1.64,4.36,2.74v1.91a6,6,0,0,0-3.11,1.2,33.59,33.59,0,0,0-1.33,3.14h-.4c0-1.95.07-3.88-1-5.38a35.7,35.7,0,0,1-.08,5.38H364a15.67,15.67,0,0,0-2.1-4.89c.22-.49.45-1,.7-1.48-.33.34-.66.69-1,1a65.91,65.91,0,0,0-5.25-6.78,48.83,48.83,0,0,1,4.76,7.38,13.14,13.14,0,0,0-2.41,4.72h-.71a53.8,53.8,0,0,1-1.52-7,38.39,38.39,0,0,0,.14,7H356c-.74-2-1.6-4.08-3.06-5.38a23.83,23.83,0,0,1,1.81,4c-.64.44-1.29.87-1.93,1.33a5.87,5.87,0,0,1,.49-3.12,21.83,21.83,0,0,0-2,3.14h-.16c-.24-.77-.47-1.59-.67-2.44a17.65,17.65,0,0,1,0,1.92,16,16,0,0,0-3.36.25,3.06,3.06,0,0,0-.62-2.37c-1-.09-1.39-.31-2.25.5l-2.24-.25c-.57-1.14-.5-1.58-1.87-1.37-.73.33-1.56.86-.49,2.49a2.78,2.78,0,0,0-2.62-.74c-.9-.9-1.47-1.4-2.86,0a2.93,2.93,0,0,0-3.32-.15l-.05,0c-.07-.79.12-1.37-.62-2a10.86,10.86,0,0,0-1.94,1.31l-.48-.09a2.62,2.62,0,0,0-.94-1.35c-.09.14-.89.48-.62,1-.61-.81-.44-1.16-1.75-1.12-.06.37.15.73,0,1.08-.56,0-1.12-.05-1.69-.06a9.21,9.21,0,0,1,.17-1c-.26.34-.55.69-.83,1-.69,0-1.38,0-2.09.06a11.73,11.73,0,0,1,.52-2.65,9.44,9.44,0,0,0-1.79,2.72l-2.85.21a10.37,10.37,0,0,0-1.56-2.93,9.67,9.67,0,0,0-.8,1.9c-.78-1.21-1.7-3.27-3.4-4.15a15.27,15.27,0,0,1-.73,4.8l-.68-.19a9.83,9.83,0,0,0-.79-4.09,16,16,0,0,0-2.37,3.36l-.34,0a18.69,18.69,0,0,1-.89-5.94c-.73,1.43-1.63,3.5-2.6,5-.34-1.49,0-1.93-1.6-2.59a7.77,7.77,0,0,0-1.2,2.94v-3.64c-.87.57-3.84,2.56-4.6,4.15a17.87,17.87,0,0,0-2.2-5.88c-.57,1.83-.72,3.78-1.8,5.54-.34-1.08-.26-2-1.2-2.94-.43.92-.56,1.64-1.6,2.25a10.62,10.62,0,0,1-.4-4c-.86,1.33-2.51,2.4-3,4a11.81,11.81,0,0,1-1.3-1.65c.19.78.34,1.52.47,2.24a4.58,4.58,0,0,0-.56-.14,3.33,3.33,0,0,0-2.94,2.94c-1-1.28-2.51-.71-3.39.63h0a5.62,5.62,0,0,1,.58-2.59A10.3,10.3,0,0,0,273,153.3a10.39,10.39,0,0,0-.49-2.75,23.36,23.36,0,0,1-.69,2.85,9.75,9.75,0,0,1-2.16-.1c1.11-3.06,3.79-5.36,4.52-8-2.38,2.08-5.09,5-6.09,8a11,11,0,0,1,1.08-4.7,4.5,4.5,0,0,0-2.35,3.13c-.34.1-.54.59-1.08.3a4.29,4.29,0,0,0-.19-2c-.2.13-1,.11-.89,1.08-.48-1.21-1-2-2.45-2.16a3.39,3.39,0,0,0,1.08,2.55,2.22,2.22,0,0,0-.88,1.57c-.41-.61-.4-.95-1.18-1-1.09.48-1.11.77-1.47,2.06a7.48,7.48,0,0,0-3-.1c.66-.3.91-.19,1-1.18a3.07,3.07,0,0,0-3.34-.39,5.76,5.76,0,0,0,.2-2.26c-.93.42-1.81.52-2,1.87a4.08,4.08,0,0,0-2.45-2.75,7.47,7.47,0,0,0-.4,2.26c-.92-.09-1.49-.24-2.25.58a3.27,3.27,0,0,0,.19-2.64,2.63,2.63,0,0,0-2.35,1.66,3.06,3.06,0,0,0-1-2.74c-.14.25-.93,1.48-.69,2.35-1.54-.61-2.83-1.49-3.16.08-1-.84-2-1.2-3.1-.06a4.44,4.44,0,0,1,2.39-2.39c-1.88.58-3.51,1.17-4.3,2.63l-.38,0a18,18,0,0,0,.24-4.16c-.16,1.53-.55,3.77-2.78,4.42l-.28,0a7.47,7.47,0,0,1,.9-4.08,11.67,11.67,0,0,0-3.48,4.34l-.18,0a11.12,11.12,0,0,1,2.58-5.44c-2,1.48-4.72,2.48-4.67,5.39-.32-1.59-.33-3.43-1.26-4.85,0,1.92.18,3.63-.66,5.3l-.51.05c-.24-.54-.28-1.2-1.34-1a17.28,17.28,0,0,0-1.53,1.33l-2.59.26a3.16,3.16,0,0,0-1.09-1.77c2.18,1,2.71.62.18-1.07.67-.9,1.36-1,.9-2.52-1.59.48-1.9.2-2.16,2.34-1.28-2.89-.26-1.13-2.69-.72.29.38.73,1.82,2.15,1.79,0,.43-.45,1.09-.18,1.62-.66.2-1.24.21-1.81.41l-2-.35a.72.72,0,0,1-.13-.42c-.6-.27-.63-1.49-2-.9.64-.84,1.56-.58.9-2.33-1.43.65-2,.26-2.33,2.33-.76.31-1.34.08-1.81.72-.42,0-.85,0-1.26-.06-.77-.52-1.56-.62-3.22-.48l-.47.59c-.73.05-1.59.11-2.34.19a3.74,3.74,0,0,0-.78-1c-.23.38-.5.73-.76,1.1l-.52,0a31.41,31.41,0,0,0,.38-3.48,26.65,26.65,0,0,0-2.3,3.65l-.76.07a14.27,14.27,0,0,0-.53-4.26,13.3,13.3,0,0,1-1,4.35h-.11c-.15-.31-.16-.82-.84-.95-.25.35-.45.7-.67,1l-1.31.06a5.28,5.28,0,0,0-1.07-1.28c-.36.4-.79.86-1.25,1.32-.51,0-1,0-1.55,0a13.3,13.3,0,0,1-.26-4,30.38,30.38,0,0,0-1.53,4H184c-.44-1.47-.91-2.93-1.47-4.41a10.18,10.18,0,0,1-.94,4.42h-1.15a9.78,9.78,0,0,0-.78-1.55c-.33.33-.89,1-1.51,1.61l-1.84.05a10.53,10.53,0,0,1,2.63-5.25,27.86,27.86,0,0,0-4.19,5.3h-.57c-.07-.17-.14-.35-.22-.52v-.08l0,0a6.92,6.92,0,0,1-.74-2.94c0,1.29-.14,2.37-.25,3.57l-1.83.08a3.22,3.22,0,0,0-1.63-.9,3.32,3.32,0,0,0-.54,1l-.46,0-1.14-1c-.22.34-.49.72-.74,1.13l-1.31.06c-.18-.24-.36-.48-.54-.75-.22.29-.4.56-.61.81l-1,0a2.92,2.92,0,0,1-.16-1.23c-.6.46-1.24.91-1.88,1.33l-.37,0a4.82,4.82,0,0,1-.18-1.79,6.08,6.08,0,0,0-1.48,1.95,1.06,1.06,0,0,1-.3.16,9.16,9.16,0,0,0-.73-3.88c-.15,1.46-.12,3-1.11,4l-.72,0c-.06-.6-.08-1.21-.17-1.82-.27.55-.53,1.13-.77,1.71l-.35,0a10,10,0,0,0-.52-2.18,8.69,8.69,0,0,1-.92,2.86c-.39.8-2.6-.05-3.3.69-.38-.3-.68-1-1.38-1.1-.5.66-.84,1.68-1.79,1.51v-2.2c-1,1.33-1.47,2.25-2.48,3.58.18-1.84,0-3.2,1-4.68a13.27,13.27,0,0,0-3.3,5.37,52.08,52.08,0,0,0,.13-5.51,28.66,28.66,0,0,1-2.34,6.2,16.84,16.84,0,0,0,.55-5.92c-.47,1.72-1.29,3.5-1.92,5.37a62.36,62.36,0,0,1,.13-6.27l-.15,0c-1.76.88-2.58,2.91-3.29,4.87v-2.89c-.56,1.22-1,2.54-2.48,3.17v-3.77h-.28a8.85,8.85,0,0,0-2.89,4.45c-.35-1.3-.57-2.94-1.51-4-.23,1.11-.61,1.92-.83,3-.55-1.1-.83-2.56-2.07-2.89a16.88,16.88,0,0,0-.13,3c-.77-1.09-1.51-2.14-2.34-3.15a15.06,15.06,0,0,1,.73,4.14c-1.27-1.63-1-3-3.16-2.92-.16.37-.74.75-.7,1.52-.26.05-1.39,0-1.87.7-.53-.71-.18-1.16-1.63-.93,0-.23-.11-.5.12-.7.39-.08.85.17,1.16-.24a3.08,3.08,0,0,0-.35-2.57,5.5,5.5,0,0,0-2.92,1c-.6-.6-.32-1.09-1.75-.81A5.25,5.25,0,0,0,111,155c-.72-1.43-1.33-2.29-3-1.29,0,.23-.4,1.06.12,1.41-.77.34-1.35.43-1.87,1.28-.37-.49-.33-1.11-1-1.4.29-1.07.61-1.82-.47-2.12l-.7.08a4.76,4.76,0,0,0-.82,1.69c-1,.54-1.39.72-1.28,2-.46-.52-.64-1.1-1.64-1.05-.22-.81.07-1.2-.93-1.28a11.29,11.29,0,0,0-2,2.8,6.63,6.63,0,0,0-1.52-1.52c-.65,1.18-.9,2.64-2.22,3.28a8.86,8.86,0,0,0-.58-2.58,6.05,6.05,0,0,0-1.4,1.64A10.8,10.8,0,0,1,92,155.5l-.48,0a34.11,34.11,0,0,0-3.7,3,3.55,3.55,0,0,0-1-2.1c-.3.59-.38,1.15-1.17,1.63a15.29,15.29,0,0,0-.76-2.59l-.39-.32a5.09,5.09,0,0,0-.6,2.68c-.31-1.55-1-3-1.35-4.53a16.38,16.38,0,0,1-1.32-1.59,10.83,10.83,0,0,1-2.37,1.84c-1.08-1-2-2.37-3.49-2.51a5.09,5.09,0,0,1-1.27.84c-.29-.74-.4-1.95-1.42-2.52-.9.72-1.59,1.19-2.7,2,.66-2.33,2.32-4.25,3.33-6.87-2.91,2.17-6.28,3.95-7.76,7.7-.36-.43-.43-1.21-1.11-1.34-.41.78-.54,1.59-1.43,2.18-.91-1.44-1.3-3.21-2.37-4.52-1.22,1.28-2.74,2.52-3.17,4.35a20.29,20.29,0,0,1,.79-5.19c-1.75.82-2.22,2.45-3.8,3.69-.36-3.74-.28-7.84,1.26-11.23ZM173.94,152.5l.32-.24C174.06,152,174,152.15,173.94,152.5Zm176.52.29a10.62,10.62,0,0,0-.39-2.44A14.75,14.75,0,0,0,350.46,152.79ZM365.29,147l-.65.22A1.52,1.52,0,0,0,365.29,147Zm5.82,4v4.17h-2.73a8.16,8.16,0,0,1,.49-2.27A7.26,7.26,0,0,1,371.11,151.07Zm-9.58.16c.26.58.51,1.17.72,1.76-.37.74-.76,1.49-1.15,2.25h-.79A17,17,0,0,1,361.53,151.23Zm-72.66,1.69a6.56,6.56,0,0,1,2.35.49c-.79.08-1.58.15-2.38.21,0-.23,0-.45,0-.7ZM355,154.81c0,.14.08.28.12.43H355c0-.15.06-.29.08-.43Z"/><path id="path5753" class="cls-40" d="M208.73,178.75a15.22,15.22,0,0,1,1-8.46,16.81,16.81,0,0,0,1.91,5.27c1.71.74,3.64,1.95,6,1.88-.83-2.19-1.78-4.43-4.78-5.08,3.84.6,5.9,3.56,9.09,4.14-2.48-2-4.63-5.22-3.35-8.47,1.53,3.13,3.64,7.5,8.13,8.84,1.06-1.1,2.05-2.15,1.92-3.76.45.89.93,1.72,1.43,2.63,2.53,0,3.94.12,5,2.07a6.89,6.89,0,0,1,.24-2.63,21,21,0,0,0,6.94,1.69c-1.54-1.61-2.8-3.22-5.51-3.76a10.32,10.32,0,0,1,4.31-2.82c-3.21.42-5.95.63-8.61,2.07a9.72,9.72,0,0,0,.48-3.77c-.91,1-1.67,2.15-3.35,2.64-.59-2-1.16-4.23-3.11-5.84,0,.34-.14,3.66-1,5.08a12.9,12.9,0,0,0-4.79-8.65,20.26,20.26,0,0,0-.95,2.44,6,6,0,0,1-.72-4.89,23.65,23.65,0,0,0-4.55,5.65,21.51,21.51,0,0,1-.24-4.71c-.89,1.92-2.12,3.82-2.15,6-.78-1.82-1-4.14-3.59-4.7a11.49,11.49,0,0,1-2.39,5.27c-.16-1.45-.11-2.85-1.2-4.14-.5.88-1.34,2.45-1.91,3.57a19.67,19.67,0,0,1-.48-6,11.15,11.15,0,0,0-1.44,7.34,14.78,14.78,0,0,0,.24,6.59c-1.41-6-5.05-13.53-11.24-16.94A21.77,21.77,0,0,1,197,172.92c-1-2.44-4.13-5.55-5.26-7.15,1.19,3.33,1.2,6.79,1.2,10.35a23.08,23.08,0,0,0-3.11.19c.49,2,2.42,1.88,5,1.88-.61,1.17.83,1.57,1.2,2.26a5.07,5.07,0,0,0,2.63-1.32c-.49-2.26.33-2.42,1.44-3.57,3-.25,3.4,1.45,4.06,3.19.22-1.42.94-2,1.68-3,2.76.25,2.39,1.12,2.87,3Z"/><path id="path5685" class="cls-41" d="M256.55,151.37c-.69-1.6-.22-3,.28-4.47a11.11,11.11,0,0,0-5.53,4.3c-.42-1.53-2.11-2.75-3.6-3.64a8.37,8.37,0,0,1-.55,3.81,11.07,11.07,0,0,0-3.32-3.64c-1.65.18-1.91,2.05-1.94,2.15-2.53-1-2.49-2.15-2.49-4-1.87,1.74-2.51,4.35-3.32,6.12-1.69-1.46-4-1.95-6.36-2.65,1.09,1.24,1.1,2.69,1.1,4.14-.93-.81-2.39-.77-3.59-1.16-1,.39-.37,1-.55,1.49-3-.11-6.31,0-9.13.17a17,17,0,0,0,2.21,1c-4.91-.12-11.72-.12-15.49.49,1.4.39,2.5.81,3.59,1.16-6.54,1.7-12.24,4.32-18.81,5.63,5.34,1.16,9.59-.41,14.11-1.49,1.59-.46,3.06-.77,4.7-1.16a9.43,9.43,0,0,0,1.66,3c1.82-.07,3.92-1.47,5.54-2.15v1.65c4.24-3,6.76-3.82,13.27-4.46-4.16.64-6.08,2.75-7.19,5a15,15,0,0,0,4.15-1.32c.37,1.11.75,2.06,1.11,3.14,2.9-2.27,4.93-5.68,6.36-7.61.59,2.93-.7,5.64-1.94,8.11,1.67-.83,3.05-1.83,4.43-2.65-.15,1.06-.11,2.07-.28,3.14a9.61,9.61,0,0,0,5.54-7.77,14.47,14.47,0,0,1-1.39,8.27c3.15-2.89,6.37-5.56,11.07-7.12-4.5,1.31-4.54,4-5,6.62a18.15,18.15,0,0,1,5.26-1.32,5.57,5.57,0,0,1,3.31,1.82c.77-1.7.14-3.09-.55-4.47,2.3.82,3.24,2.45,4.15,3.81,1.31-1.65,1.11-3.36,1.11-5.13,2,1.67,2.1,3.41,3,5.29,1.53-1.65,4.23-3.05,6.09-4.3a24.44,24.44,0,0,0-1.11,4.63c2.95-1.2,4.83-2.29,8-3.14-1.16-.71-2.39-.11-3.59-.17,2.92-3.44,3.81-7.11,2.49-11.08.73,2.85-.85,4.91-2.49,7.11-.39-4.14-1.7-8.9,1.66-12.24-4.58,2.6-3.43,6.33-5,9.43-1.35-1.77-1.92-3.46-3.32-5.13,0,1.75-1.64,3-3.05,4.3,1.32-1.85-1.33-6.6-1.93-3-.7,1.08-2.58,1.93-3.05,2.32Z"/><path id="path5761" class="cls-42" d="M195.76,160.88l-.15,0c-1.76.88-2.58,2.91-3.29,4.87v-2.89c-.56,1.22-1,2.54-2.48,3.17v-3.77h-.27a8.8,8.8,0,0,0-2.9,4.45c-.35-1.3-.57-2.94-1.51-4-.22,1.11-.6,1.92-.83,3-.55-1.1-.82-2.56-2.07-2.89a16.88,16.88,0,0,0-.13,3c-.77-1.09-1.51-2.14-2.34-3.15a15.06,15.06,0,0,1,.73,4.14c-1.27-1.63-1-3-3.15-2.92-.17.38-.75.75-.7,1.52-.27.05-1.4,0-1.87.7-.54-.71-.19-1.16-1.64-.93,0-.23-.11-.5.12-.7.39-.08.85.17,1.17-.24a3.12,3.12,0,0,0-.35-2.57,5.53,5.53,0,0,0-2.92,1.05c-.61-.6-.33-1.09-1.76-.81a5.35,5.35,0,0,0-1.4,2.1c-.71-1.43-1.32-2.29-3-1.29,0,.23-.4,1.06.12,1.41-.76.34-1.35.43-1.87,1.28-.37-.49-.33-1.11-1-1.4.29-1.07.61-1.82-.47-2.12l-.7.08a4.76,4.76,0,0,0-.82,1.69c-1,.54-1.38.72-1.28,2-.46-.52-.64-1.1-1.64-1-.22-.81.07-1.2-.93-1.28a11.29,11.29,0,0,0-2,2.8,6.58,6.58,0,0,0-1.51-1.52c-.66,1.18-.91,2.64-2.23,3.28a8.72,8.72,0,0,0-.58-2.57,5.86,5.86,0,0,0-1.4,1.63,11.42,11.42,0,0,1,.44-2.37l-.47,0a33.27,33.27,0,0,0-3.71,3c0-.16-.09-.31-.13-.47.08,1.42.08,2.9.19,4,.89-1.15,1.72-2.66,2.42-3.72a24.89,24.89,0,0,0,2.24,6.33,6.18,6.18,0,0,0,1.67-3c.51,1.26.88,2.38,1.31,3.35,1-2.7,2.08-5.47,3.35-8-1.48,4.8-2.08,9.83-.37,14.53,2-1.73,3.42-4.19,5-6.33-.13,1.48-.32,3.21-.56,4.66a21.52,21.52,0,0,0,1.67-2.8,13.14,13.14,0,0,1,.56,3c1.43-.11,2.29-1.78,3.17-2.79.1,1,.53,1.93.74,3a11.69,11.69,0,0,0,.94,2.61,38.26,38.26,0,0,1,2.3-4.28,6.63,6.63,0,0,1,3.1-3.73,16.73,16.73,0,0,0-3.1,3.73,18.66,18.66,0,0,0-.63,6.14c1.59-.47,2.41-2,3.36-3a16.52,16.52,0,0,0,.55,2.05,17,17,0,0,0,4.66-6.9,33.76,33.76,0,0,1,.19,5.78c2.29-2.63,3.29-6.84,3.54-9.5.21,1.78.63,3.59.93,5.21a35.33,35.33,0,0,1,3.54-6.51,21.73,21.73,0,0,0-1.68,9.5c1.39-.27,1.87-1.13,2.79-1.68a11,11,0,0,1-.74-4.47c1.14,0,1.67.74,2.42,1.3-1.23-1.71-.6-3.26-.19-4.65,1.33.23,1.65,1.36,2.24,2.23a20.28,20.28,0,0,1,1.49-3.54c1.39.58.93,2,.93,3.73.56-.77,1.35-.74,2.05-1.12-2.27-1.69-2.1-3.57-1.86-6,1.76,0,1.4.51,2.42,1.86.43-1.23.78-2.4,1.08-3.51-.3.77-.61,1.55-.88,2.35,0-2.09-.07-4.2.13-6.27Z"/><path id="path5594" class="cls-43" d="M175.56,160.86c1.06-4.92,1.32-.56,1.91,0,1.29-1.21,1.37.06,2.05,1,.06,3.65-.24,2.71-1.37,1.78a3.36,3.36,0,0,1-2.87,1c-.28,2.72-1.45,2.29-3,2.29-.11-1.43-.76-1.43-1.09-2-.9,2.5-2.12,2-3.69,2-1-.14-.37-1.53-.55-2.29-.55,6.54-4.86,5-6.84,2.55.45-2.93-.34-2.55-2-2.55-.34-3.65.67-3.57,2.33-3.57,1.75-.19,1.62-3.66,4.1-4.58,1.06.38,2.08,1.93,3,2.8a10.54,10.54,0,0,0,1.64-1.53c-.07-5,2.14-4,4-3.31,1.07.84.78,1.85.69,3.56.61.28,1.19.95,1.78,2.81Z"/><path id="path5596" class="cls-44" d="M164.17,160.09c-2.08-4.23.29-2.67,1.34-1.81.35-2.56,1.07-2.58,1.83-2.72,1-3.78,3-3.71,3,.68,1.68-3.79,3.15-2,3.77,2.26-.77.59-1.42,0-2.07-.22-.26,2.85-1.28,2.52-2.68,2.26-1.08,3.56-2.69,1.62-2.06-2.26-.87,4.11-2.2,2.71-3.17,1.81Z"/><path id="path5680" class="cls-43" d="M168.64,172.73c2.77-1.11,1.73-1.42,4.63.88.52,2.26-1.29,1.13-2,1.75,2.34,2.15,0,2.65,0,3.5-1.12,4.72-2.59,3.9-5.08,2.91-4.18,1.35-6.56.37-4.2-3.79-3.51,3.88-6.52,1.87-4.63-2.62.41-4.47,2.05-2.86,4-1.17,1.07-2.48,2.28-.27,2.43-.29,2-2.27,2.47-2.57,4.86-1.17Z"/><path id="path5741" class="cls-45" d="M319,165.75c.53-.42,2-.1,1.66-1.29,1,.12,4.29.58,6.16-.11-1.29-1.57-2.76-3-5.29-2.9,2.41.15,4.65.63,4.84-1.34a12.22,12.22,0,0,0-4.72-1.34,6.26,6.26,0,0,0,0-1.73c-1.93.19-3.28.15-4.19,1.81a19.35,19.35,0,0,1,.84-7.1,33.85,33.85,0,0,0-3.26,6.82c-.43-4-.67-7.22-3.15-10.81a8.26,8.26,0,0,1,.16,10.86,8,8,0,0,0-1.67-.75c.18-1.28,0-2.58.59-3.79-1.05.63-2.67,1.22-2.9,2.72-.23-2.17-.35-3.88,1.19-5.68-1.94.74-2.83,1.91-3.56,4-.18-1.68-.72-4.82.08-6.77-1.94,2.8-2.95,4.89-1.72,8.22-.54.47-1.63.32-1.64,1.44-.69-1.2-.69-2.27-2.84-2.31-.44.53-1.66.79-.94,2.38,1.34,1,1.79.58,1.44,2.34-1.87.16-3.12.26-4,1.48-.72-1.36-1.22-2.58-3.13-3.25.22-.57,1.27-2.11.24-3.31-1.73.45-2.78.57-4.17,2a14.75,14.75,0,0,0-3.9.86l-.15-1.42a19.06,19.06,0,0,0-4.41,1.65c-.28-1.27,0-1.54-1.61-2-.48,1.06-.91,1.91-1.47,3,.69.4-2.77-4.76-6.41-5.87,1.84,2.07,2.2,3.81,2.46,6.25-.91-.38-1.68-.72-2.7-1-1.71-.32-2.39.45-3.3.84.72,1.4,3.08,1.52,3.76,1.67-2,.55-1.82,1.32-2.12,2.55a16.12,16.12,0,0,0,5,.23c-4.09-.56-5.4,1.65-5.08,4.66a9.63,9.63,0,0,0,5.93-2.31c.1,1,.22,2.07.23,2.2,2.21,0,3.68-1.46,4.86-3.08.17,1.22,1.29,1.45,2,2,.34-.83,1.83-1.74,2.55-2.25.41-1.65-.19-1.53-1.84-2.33,4.68.32,7.57,2.92,9.62,6.13a10,10,0,0,1,.46-3.16c.33,1.21,1.79,2,2.49,2.79-.59-1.91.52-3,1.72-4.43-.08,1.17.74,2.08,1.33,3.12.43-2.81,3.15-4.32,5.38-5.6-1.78,1.61-1.44,3.28-1.22,5.37,1.08-2.13,3-3.33,5.1-4.49a8.66,8.66,0,0,0,1.95,3.27,7,7,0,0,0,3.69-2.74c.48,2.35,3.24,2.06,5.66,2.58Z"/><g id="g5558"><path id="path5530" class="cls-46" d="M224.22,158.07c-.53-2.24-.61-2.33-2.09-1.83a12.59,12.59,0,0,0-.25-2.52c-.18.07-1-.95-1.23.46-3.1-2.65-1.47,2.75-1.47,2.75-.63-.42-1.6.36-1.84.46-1.5-.94-1.48-.87-1.48,1.83.41.64.91.61,1.35.92a9.79,9.79,0,0,0,1.11,1.6,19.41,19.41,0,0,1,1.84-1.15,19,19,0,0,0,2.09,1.38,4.27,4.27,0,0,0,3.2-1.38c.48,1.6.93,1.38,2,1.38a15.56,15.56,0,0,0,2.09-2.06l1.23,1.14c1-.43.65-2.63.73-3-1-1.57-1.81-1.35-2.95-1.14-1.55-3-3-1.26-4.3,1.14Z"/><path id="path5540" class="cls-47" d="M261.82,164.34c-.49-.9-.84-1.83-1.54-.64-.49-1.68-.8-3-1.88-3-.06-1.08.09-1.61-.42-2.22-.62-.23-1.66-.81-2.31.79-.47.59-.75-.63-1,1.28-.41-.35-.57-.93-1.19-.64-.17-.62.13-1.7-.52-1.91-.49.19-.82-.16-1.28,1-.42.57-1.57.25-1.28,2.54-.76-.13-1.76,1.27-1.87,1.43-1,.39-1.3.05-1.71,1.75.4,1.64.61,1.75,1.45,2.06s1.32-.26,2-1.11a3.28,3.28,0,0,0,1.8,1.59,4.49,4.49,0,0,1,2.81.16,3.31,3.31,0,0,0,3.58-.32C260.08,171,266.37,166.89,261.82,164.34Z"/><path id="path5544" class="cls-48" d="M239.61,165.08c.47-1.16,1.1-.65,1.88-.56.88-1.18,1.78-.19,2.64.56.29-3.42,2-.1,2.48.84-.36,1.54-.87,1.4-1.65,1.4-1.29,1.67-2.23,1.64-3.24,0a6,6,0,0,1-4.44.42c-1.24.45-2,1.52-2.48-.7.26-2.15,1.21-1.72,2.18-1.54C237.32,162.74,238.65,164.28,239.61,165.08Z"/><path id="path5546" class="cls-48" d="M241.57,160.31c.14-3.35,1.4-1.79,1.58-1.68a2.17,2.17,0,0,1,2,1.68c1.39-.12,1.44,1.17.15,1.82-.08,1.88-.68,1.56-1.58,1.4-1.18,1.39-1.44,1.27-1.88-.56-2.26,1.56-2.22-1.23-.3-2.66Z"/><path id="path5548" class="cls-48" d="M252,162.93c.48,1.93,1.11,1.3,1.93.9.5,1.31,1,1.79,1.72,2s1-.66,1.45-1.28a16.66,16.66,0,0,0,1.94,1.15c.65-.15,1.05-1.19,1.38-1.8.66-4.29,3.09-.4,1.79,1.42,1.11,2.25.49,5-1.17,2.31-.19,1.66-.92,1.11-1.52.77-.33-.61-.8-.81-1.17-1.15-.23,2.77-2.14,4.38-2.14.9-.62.28-1.11-.14-1.59-.39-.75.2-1.17-1-1.24-1.16-1,2.81-3.73-1.8-1.87-1.8-.42-1.76-.1-1.59.49-1.92Z"/><path id="path5550" class="cls-49" d="M223.24,164.06c.8.66,1.32,1.43,2.21,0,.84,0,1.1,0,1.65-1,.05,0,.43,1.11.66.62,1.15,0,1,.31,1.22-1.65.49-.14,1,.31,1.43-.41a9.15,9.15,0,0,0-1.1-2.26,1.75,1.75,0,0,0-1.66,0c-1.13-.58-1.32-1.14-1.76,1.44-.77-2.62-1.16-.93-1.66,0-2.14.19-1.44,1.78-1,3.29Z"/><path id="path5556" class="cls-46" d="M212.42,166.75c.56-.65,1.18.44,1.43.53.9-1.06,1.5-.29,2.29,0,.27.1.28.89.43,1.33,1.59-.44,2,.58,2.86,2.4a5.37,5.37,0,0,1-1.72.27c-.5,1.49-1.06,1.06-2,1.06-1,1.74-1.44-.19-2-.26-.8.52-.76-1-1-1.34-.82,3-1.2,2.68-2,0-2,3-5,.84-1.36-1.33.45-3.76,1.35-3.63,3.08-2.66Z"/></g><path id="path5567" class="cls-50" d="M196.72,156.61c-.49,0-.39.73-.76,2.62-2.14-1.78-3,.71.83,2.46,1.37-.25,2,.43,2.32-2.15.83-1.11,1.33,1.6,1.16-1.54-.35-.12-1.06-2.07-1.82-.62a6.58,6.58,0,0,0-1.73-.77Zm6.73,3.15a.33.33,0,0,0-.2.09c-1.44.27-1.9-.19-2.32,2.46-4.21.79.71,5.53,1.49,2.16,1.09,0,1.39.39,2-1.23,1.31,0,1.52,1.06,1.82-1.54-.4-.23-.9-1.64-1.66-.93C204.39,160.64,203.91,159.72,203.45,159.76Z"/><path id="path5572" class="cls-49" d="M208,163.31c.16-3.27.29-3,2-3.34a1.37,1.37,0,0,1,1.16-1.43c1-.43.74,1.23,1.15,1.91a2.49,2.49,0,0,1,2.3-.72c1.37,2.27,0,1.39,0,2.39,1.72-.63,1.71-.08,2.3,2.14a7.52,7.52,0,0,1-2.81-.24c-.68.85-1.38.36-2.05.24-2.36,1.35-2-.14-2.43-1.67-.63,1.93-.9.39-1.66.72Z"/><path id="path5574" class="cls-50" d="M239.36,151.63c1-.72,1,.28,1.66,1,1-.34,1.5,1,1.92,1.43-.14,1.84-1,1.52-1.41,1.67-.68,1.39-1.25.84-1.92.72-2.08,1-1.74-.62-2.05-1.91.27-2.31.55-2.16,1.8-2.86Z"/><path id="path5576" class="cls-51" d="M291.77,170.88c-.75-.94-1.3-1.76-2.26-1.73,0-.44.48-1.23.1-2.11-1.88-1.27-3.28-2.16-5.25-.76-.13-.32.4-1.27-.41-1a2.3,2.3,0,0,0-2.47.57c-2.17-1.47-.37-.82-1.13.77-.89,0-1.17,1.64-1.23,1.73-.12,1.3.56,1.63.72,2.11-1.52-1.86-2.09-.78-3,1.72.78,2.63,1.91,2.83,3,1.34.77,1.11,1.25,1.73,2.36,1.73,1.36-1.39,1.36-2.16,1.24-4.41.36-.08.67-.13,1-.19.07,2.52,0,2.77,1,3.64.77,0,1.35-1.11,1.95-1.92.79,3,1.74,2.5,2.78,1.92,2.09.24,2.37-1.13,1.54-3.45Z"/><path id="path5578" class="cls-51" d="M295.17,165.13c1.27-1.87,1.12-2,2.16.38,1.2-.57,1.42,0,2.05,1.53-.1,1.41-.57.59-.92,1-.72,1.43-.66,1.05-1.55.39-.54,2-2.58.43-2.67.38-.15-1.31.28-1.41.31-1.53-1.31-2.06-.9-2.88.62-2.11Z"/><path id="path5580" class="cls-48" d="M267.66,173.73c-.35-2.22.5-2.38,1.5-2a2.73,2.73,0,0,1,1.73-1.85c.89-.06.85.9,1.16,1.85,0-2.14.65-2,1.58-2,.3-2.5,1.15-2,2.4-2,1.07.64,1.15,2.26,1.4,3.86.87-.53,1.5.26,1.91.77-.17,2.85-1.47,3.14-2.65,2.16-.63,3.34-2,.64-2.15-1.85h-.75c1.28,4.2-1.76,4.59-2.81,2.62-1.38,2.42-3.16,1.41-3.32-1.54Z"/><path id="path5584" class="cls-52" d="M138.21,169.37c1.13-2.26.57-1.55,2.1-1.83.47-.73.93-.86,1.41-1.31,1.56-2.06,1.92-.56,2.81,1.57,1.07-1.71,2.2-.89,2.81-.79,1.13.91.73.84.84,2.88.72-1.19,2.24-.55,2.39-.52.15,2.3.09,1.2-1,2.09-1.05,3.38-2.63,1.93-3.51-.26.13,4-1.34,2.76-2.53,2.1-1.62,1.25-1.69.8-1.83-2.1-.22,3.61-1.17,2.92-2.67,2.36-3.17.82-3.92-2.47-.84-4.19Z"/><path id="path5588" class="cls-53" d="M264.91,158.31c1-.87,1.32,1.11,1.7,1.9a5.4,5.4,0,0,0,2,.21,2.09,2.09,0,0,1,2.37-1.26,8.56,8.56,0,0,1,.56,2.1c1.3.18,1.66.06,2.15,2.1a2.76,2.76,0,0,1-2.82,1.69c-.27.06-.53-.28-.79-.42-1.47,2.76-2,1.25-2-.85a11.88,11.88,0,0,1-1.35-.84c-.26,2.24-.86,2.13-1.92,2.53-.81-.83-.27-1.82-.34-2.32-2.18-1-2.36-5.31.45-4.84Z"/><path id="path5590" class="cls-48" d="M266.49,156.63c-.08-4.31,1.09-1.72,1.81-.63,1.27-3.35,2.48-2.05,2.48,1.26,2.17.28.69,2.38,0,3-.75,2.1-1.5,1.15-2.48.42-2.12,1.81-3.94-1.35-1.81-4Z"/><path id="path5598" class="cls-44" d="M181.82,155.56c.4-2.82.66-1.41,1.46-1.14,1.42-1.24,1.8-.4,2.67.68.22.91-.25,1.39-.36,2,2.82.94,3.47,3.6.85,4.08-1.13,1.69-1.43.74-2.19-.68-2,.41-1.74-.4-2.31-1.81-2.41,1.68-2.55-3.17-.12-3.17Z"/><path id="path5678" class="cls-43" d="M180.56,180.31c-.82-3.51-.83-3.92,1.77-4.95,2.12-1.63,1.92-.5,3.31.87,1.94-1.08,3.11.24,4.19.88,1.4,1.63-.2,2.62-.22,2.91-1.91,2.07-2.45.77-3.75,0-.24,2.88-1.22,2.18-3.09,2.92-3.5,4.53-6.88.8-2.21-2.63Z"/><path id="path5756" class="cls-54" d="M136.43,157.94c0,7.51.41,14.61-2.17,21.63-.6-3.45-1.09-7.07-1.9-10.51-.9,3.36-2.33,7.17-2.71,10.82,0-7.41-.13-15,1.36-21.63a155.68,155.68,0,0,0-6,24.1c-1.45-5.52-.61-13-.81-19.47-.46,6.23-1.65,12.68-2.08,19.2a49,49,0,0,1-.09,7.38,62.62,62.62,0,0,1,.09-7.38c-.41-6.62-2.22-13.26-6.06-18.27,2.74,7.49,2.39,17.55.82,25.65,0-5.69.17-11.18-1.63-16.38a43,43,0,0,1-.81-6.18c-1,3.27-2.59,6.82-3.26,10.2a73.6,73.6,0,0,1,.54-10.2c-3,5.68-5.78,11.93-6.5,18.54-.17-.21-2.36-3.74-3.53-3.71a34.28,34.28,0,0,1-1.36,6.8c-.62-3.88-1.25-7.95-3-11.43,0,4.11-.69,5.62-3,9a73.39,73.39,0,0,1,2.17-17.92c-3.73,7.27-4.91,16.33-7.87,23.48A48.61,48.61,0,0,1,88.43,179c-1.3,5.19-2.1,10-3,15.14-1.68-3.19-2-6.78-4.34-10.19a38.54,38.54,0,0,1,2.45,11.48h87.82a16.24,16.24,0,0,1,2.48-6.23,18,18,0,0,0-8.14,3.09c.74-1.16,1.26-2.22,2.17-3.4,3.75-5.7,8.49-3.59,13.56-2.47-6.65-4.21-12.16-6.22-18.44-.31,3.52-5.34,9.22-7.09,14.37-10.2-6.89,0-13.1,2.53-18.71,7.42a22,22,0,0,0,4.88-10.51c-2,3.47-5,6.95-8.67,8a14.24,14.24,0,0,1,2.71-4.95c-1.79.82-4.1,1.19-5.43,3.4.87-3.29,2.3-4.87,2.44-8.34-2.31,2.15-6.7,5.16-9.22,8.34a45.19,45.19,0,0,0-1.08-8.65c-.9,3.41-2.34,7.28-3,10.82,0-6.94-.49-16.56-4.89-23.49Z"/><path id="path5777" class="cls-43" d="M56.18,159.18c.47-2.43,1.72-3.35,3.49-1.58.92-.71,1.74-.42,2.7-.32.76-1,1.8-.56,2.7-.48,1.57,1,.66,1.77.47,2.38,2.95.31,1.8,1.67.64,2.54.2,2,.06,2.47-1.11,3.65-1.87-.21-2.48-1.55-3-3.33-.35,1.76-1.1,2-2.85,2.54-1.24-1-.84-1.81-1-3-2.51,4-5.78-2.38-2.06-2.38Z"/><path id="path5779" class="cls-55" d="M57.17,171c-1-2.77,1-2.86,3.18-2.86.09.3.41,1,.47,1.11,1.11-2.91,3.2-2.77,4.45-1.11,1.91.54,2,.88,2.38,2.54,2.32-.17,1.87,1.49,1.74,2.86a5.44,5.44,0,0,1-2.7.31c1.27,2.59-.82,2.38-3,2.38-2,2.21-3.23,1.79-4.13,0-3.66,1.45-5.89-.56-2.7-2.69C54.59,173.18,54.09,170.39,57.17,171Z"/><path id="path5785" class="cls-43" d="M84.08,166c.7-2.14,1.14-1.91,3.33-1.11.64-2.53,1.59-1.82,2.86-1.11,2.9.24,3,2,2.38,4,3.48,2.18,2.29,4.68-1.59,4.29-1.76,1.77-3.91,2.45-5.39.47-2.62,2.36-5.89.17-5.08-2.54,0-2,.77-2.21,2.54-2.53-1.5-1.6.69-1,1-1.43Z"/><path id="path5787" class="cls-56" d="M21,158.23c3,7.76,6.9,20.89.95,27.92,0-3.63.38-7.37-.95-10.74,0,4.37-.33,8.85-2.36,12.62,0-3.71-.17-7.39-.47-11-.61,3.82-.75,7.82-2.13,11.55,0-7.8-.57-14.71-4-21.75.6,7.46,1.09,16.87-3.31,22.55-.28-1.75-.82-3.26-1.18-5.1-.65,1.79-1.82,4.16-1.65,6.44-.54-.81-1.65-2.4-2.36-3.49-1.12,1.63-2.39,3.27-3.55,4.91v3.25H57.89a8.22,8.22,0,0,0,1-2,29.31,29.31,0,0,0,.71-4c-1.42.54-2.92,1.07-4.49,1.61.69-1.95,1.2-4.25,2.13-6.44h3.54c-1.43-.74-2.4-1.92-4.25-1.61-2.64,1.33-5.71,3-7.09,6.44,1.07-6.05,5.32-10.25,3.78-17.18-1,6.08-3.27,11.16-7.8,15v-5.09c-.92,1.39-2.12,2.41-3.07,4,.81-4.61,1.55-7.61,4.7-10.29-2.46,1.62-5,2.55-6.83,5.46,0-3.19.59-5.34.48-8.59-.88,1.12-2.47,2.39-2.84,4.56,0-4.47-.17-9.12.24-13.42a39.42,39.42,0,0,0-3.55,7.52c-.79-2-1-4.06-1.89-6.18-.31,1.77-.56,3.73-.94,5.64-1.43-4.21-2.41-8.75-4.49-12.62.66,7.52,5.49,16.37,1.42,25.5A45.83,45.83,0,0,0,21,158.23Zm26,17.63a13.79,13.79,0,0,0,1.68-1.25A17.07,17.07,0,0,0,47,175.86Z"/><path id="path5792" class="cls-57" d="M46.41,164.8c.75-2.4,1.29-.25,1.87,0,2-1.45,2.06-.81,3.52,0,.34.72-.13.77-.21,1.25,2.92-.31,3.55.85,4.35,3.52a15.18,15.18,0,0,0-2.28.41c1.1,1.77-.35,2.42-.62,2.9-1.25.14-2.21-.78-2.9-1-1.1.83-2.63.05-3.11,0V170.4c-4.69,2.41-4.48-.11-2.69-2.49-1.38-1.88.33-1.82.41-2.28-.55-1.78,1.29-.64,1.66-.83Z"/><path id="path5794" class="cls-43" d="M110.43,157.55c.84-2.18,1.73-1.6,3.32-.41,2.44-1,1,.85,1.65,1.45,3.74-2.52,2.66.6,2.28,1.45.43,3.29-1.19,2.63-2.69,2.9-.09,4.57-4,2.51-4.76-.42-2.45,1-2.26,0-3.32-.82-.37-1.55.74-1.82,1.24-2.49C108.52,157.2,108.17,157.33,110.43,157.55Z"/><path id="path5796" class="cls-58" d="M86,168.81c-2.26-2.05.87-5.83,1.28-1.79-.18-2.68,3.06-3.61,3.06-.64,1.32-2.27,4.76,1.79.64,1.79,2.56,1.3.24,2.92-1.79,1.4C89.39,172.07,86.71,170.31,86,168.81Z"/><path id="path5798" class="cls-58" d="M114.67,158.07V160c-.64.45-1.17-.1-1.66-.13.26,3.38-5.75,2.68-2.94-.13-2.18-2.77.82-2.47,2.3-1.66,1.24-1.13,1.19-.61,2.3,0Z"/><path id="path5800" class="cls-45" d="M351.21,152.88c.32-.95.94-1.63.92-2.76-1.23,1.41-2.59,1.23-2.14,4.29,0-2.73.1-5.07-1.23-7.35,0,2.48.48,6.31-2.14,6.74-.35-.28-3.26,1.65-1.54-1.23.73-.54,1.15-1.67,2.46-1.83-1.43.32-3-.69-4,.91-.51-.8-1-2.56-2.14-3.37-.56,1.24.52,2.82-1.53,3.37-.72-1.6-.72-3.26-2.45-4.59v5.82c-.91,0-1.07.74-2.15,0,0,0-1.52-1.77-3.37-.92-.68.88-2.78.66-2.14,2.76-.48-.21-1.84-1.2-2.76-1.23.1-.51.16-1,.3-1.53-.33-.22-.69-2.09-1.83-1.22-.42,1.25-2.37,1.54-1.23,3.67-1.23-1.23-2.11-2.92-4-3.67-1,2.41.53,2.6,1.22,4-2.47-.9-1.87,1.31-3.06,2.14,1.44,1.41,2.54,0,4,0h2.15c-2.73.54-1.36,1.74-2.15,2.76,1.94.37,3.09-.56,4.6-1.22-.08.95.62,1.45.92,2.14.38-2.35,1.5-3,3.06-4.6,1.7-.57,1.75,1.32,2.45,1.84v-4.59c.82,1.35,1.52,2.38,2.15,3.37-2.45-3,.2-.82.3-1.23,1.59-.3,1.9.38,3.07.61,2.43-2,1,1,1.22,1.23,2,.93,4.47.53,6.74.31a29.27,29.27,0,0,1,3.68-1.54c4.49-.13,3.1-1.19.61-3.06Z"/><path id="path5802" class="cls-59" d="M268.44,176.45c-1.1-1.35-2-3.8-2.8-4.8a13.52,13.52,0,0,1,.8,4.26c-1.27-.57-2.55-.94-3.74-1.46,1.37.79,1.8,2.33,2.27,3.73a13.32,13.32,0,0,0-7.47.27,12.32,12.32,0,0,1,4.4.93c-2.19.3-4.36,2-5.73,3.07a26.17,26.17,0,0,0,7.06-.8,3.71,3.71,0,0,1,.14-1.47,20.15,20.15,0,0,1,1.6,1.33c1.39-.77,1.3-2,1.6-3.46.89,0,1.65.18,2.53.26C269.32,177.26,268.82,177.22,268.44,176.45Z"/></g><path id="path6007" class="cls-60" d="M421.51,155.46c-2.17-.87-4-1.66-6.4-1.1a26.7,26.7,0,0,1-.37-7.68c-1.32,2.65-2.53,5.24-2.56,8.23a4.9,4.9,0,0,0-3.84-2.38,7.15,7.15,0,0,0-1.46,1.65c-.57-1.41-1-2.8-2.57-3.3a11.47,11.47,0,0,0-1.28,2.75,23.62,23.62,0,0,1-.18-7.32,44.1,44.1,0,0,0-3.11,8.05c.77-3.08.08-7.58,2.74-10.43a18.69,18.69,0,0,0-3.84,5.12c.23-2.49.64-4.91,2.38-7A22.69,22.69,0,0,0,394.43,154a19.24,19.24,0,0,0-.54-6.58,11.41,11.41,0,0,1-2.2,5.49,15.74,15.74,0,0,0-.18-7.14c-.15.55-.83,2.91-1.28,4,0-2.72-.05-5.44.18-8a15.2,15.2,0,0,0-3.48,11.34c-1.11-3.56-2.43-7.21-4.57-10.06,2.19,4.06,2.43,8.33,3.29,12.62a16.48,16.48,0,0,0-3.84-2.56,5.34,5.34,0,0,0-.37,2.74c-.2.59.37.61.55.92a4.68,4.68,0,0,0-6.77-.73c.77,1.74,2.68,2.51,4,3.11-2.58-.35-2.56,1.09-2.56,3.29,2.61-.41,4.75-.4,7.13-1.83.57,1.67,2.11,2.8,3.3,3.84,3.9.46,6.44-3.85,10.42-4.57.15,1.36,1.11,2.11,1.83,3.11A19.76,19.76,0,0,1,412,158.39a18.42,18.42,0,0,1,9.51-2.93Z"/><path id="path5754" class="cls-61" d="M446.34,164.49c1.37-.14,2.44.22,3.66-.74a12.27,12.27,0,0,1-.73-3.17,11.17,11.17,0,0,0-5.38-1.22,13.76,13.76,0,0,1,2-2.93c-1.52,0-3.41-.52-5.13,1a30.31,30.31,0,0,1,1.22-6.35c-1.16,1.94-3,4.24-3.18,6.84a23.65,23.65,0,0,0-1.46-11.73,19,19,0,0,1-.25,6.84c-1.14-.22-2.74-1-4.4-.24a10.53,10.53,0,0,1,1.23-2.44c-1.27.39-2.68,1.16-4.16,1,.24-1.16.52-2.62.74-3.9-.82.6-2.32,1.09-2.69,2.68a61.09,61.09,0,0,1,1-7.33,19.64,19.64,0,0,0-4.89,9.29,29.76,29.76,0,0,0-3.18-14.9,72,72,0,0,1,.49,12,10.61,10.61,0,0,1-1.95.24c-.2-2-.58-3.93.24-5.86-.17.23-2.39,4-2.2,6.35-.81-1.82-1.3-3.59-2.93-5.13a20.44,20.44,0,0,1-.24,10.63c-.88-5.29-2.24-8.58-6.6-11.85,4.51,3.65,3.91,8.18,3.91,13.19a36.8,36.8,0,0,0-2.93-7.82c.92,3.06.48,6.66,0,9.29-4.3-2.46-5.62-8.39-5.62-13.44a23.3,23.3,0,0,0,1.47,11.73,8.58,8.58,0,0,0-5.62-3.18c1.81.53,3.27,4,3.91,5.13a13.52,13.52,0,0,0-6.11.24c.64.93,1.86,1.19,2.68,1.71-5.25-.13-7.59,1.71-10.5,5.87,4.14.44,8.36-1.5,12.46-2.45a13.47,13.47,0,0,0-.24,3.91,23.71,23.71,0,0,0,6.84-6.35,10.39,10.39,0,0,0,.73,3.67,28,28,0,0,0,3.91-4.65c-1.27,1.77-.85,3.11-.49,4.89,2-.44,1.3-1.95,1.95-2.93,1.52-.21,2.49,1,3.42,1.71a17.94,17.94,0,0,1,2.69-9.77,14.5,14.5,0,0,0-1,8.79,14.54,14.54,0,0,1,2.94-4.88c-.94,1.71-.39,4.34-.25,5.86,1.52-4,4.59-6.45,8.31-8.31-2.12,1.65-2.41,5-2.69,6.84h3.66a16.11,16.11,0,0,0,.49-5.13,45.27,45.27,0,0,1,1.22,5.38,26.08,26.08,0,0,1,6.6-3.42c-1.47.87-1.72,2.81-2.2,4.39a14.24,14.24,0,0,1,4.16-1.71c2.2,1.22,3.89,2.22,5.61,3.18Z"/><path id="path5759" class="cls-62" d="M420.78,171.3a84.31,84.31,0,0,1,10.34-3c-4.2-.32-8.57-.72-12.73.91,1.32-3,2.29-6.18,6-8.15-3.92,1.65-8.25,4.66-9.55,8.75,1-7.83,3.95-14.95,6-22.63-1,8-6.29,15.27-11.13,22.33a37.33,37.33,0,0,1,2.78-8.45c-2.8,2.12-5.37,4.63-6,7.85.89-3.38,1.34-7.6,6-10.27-2.43.74-4.88,1.11-7.16,2.42.81-1.83.6-3.76,3.18-5.13-2.64,1.34-5.5,2.71-7.16,5.13a88.68,88.68,0,0,1,1.2-10.26,28.73,28.73,0,0,1-6.36,9.66c-.14-1.42.29-2.86-.4-4.23-1.81.59-3.3,2-5.57,1.81-.13-1.31.31-2.66-.4-3.92-.7.47-2,1.46-3.18,2.11a35.23,35.23,0,0,1,.8-5.43c-2.22,1.68-4.9,3.56-4.77,6.34v-.31l-6-4.83c4.55,2.82,4.19,6.46,4.77,10.87-4.68-4.31-11.68-8.87-16.7-10.56,5.9,3.64,9.31,7.87,10.74,13.28-4.15-4.17-8.11-8.49-15.11-10.27,5.21,2.63,8,6.72,10.34,11.17-2.63-1.05-5.11-.9-8-.9,1.2,1.14,1.89,1.83,2.79,2.71-7,.1-10,5.26-11.53,10,6.93-.69,12.13-3.85,17.09-7.24-.51,2.11,1.36,3.72,2.39,5.13,3.11-1.64,6.31-4.06,9.15-5.74a21.21,21.21,0,0,0,1.59,2.42c.47-4.65,3.65-8.38,7.15-11.77-2.66,2.65-2.78,6.22-2.78,9.66.21-2.37,2.65-3.94,4.37-5.44a23.67,23.67,0,0,0-.39,6.34c.72-1.32,2.75-3,3.58-3.92-.22,1.38.8,2.63,1.19,3.92a15.77,15.77,0,0,0,5.17-1.21c.67,2.46,2.89,4.14,4.77,6,1.46-1.8,1.33-3.5,1.59-5.43,2.92,6,11.48,5.73,17.1,5.73-.45-3-2.22-3.75-5.17-5.43Z"/></g></g></g></svg>