<svg xmlns="http://www.w3.org/2000/svg" xmlns:xlink="http://www.w3.org/1999/xlink" viewBox="0 0 451 336"><defs><style>.cls-1{fill:url(#Безымянный_градиент);}.cls-2{fill:url(#Безымянный_градиент_2);}.cls-3{fill:#e5d9de;}.cls-4{fill:url(#Безымянный_градиент_3);}.cls-5{fill:#9cc4eb;}.cls-6{fill:#8bb5d6;}.cls-7{fill:#f4e8e2;}.cls-8{fill:#f3e8e3;}.cls-9{fill:url(#Безымянный_градиент_4);}.cls-10{fill:#709fc6;}.cls-11{fill:url(#Безымянный_градиент_5);}.cls-12{fill:url(#Безымянный_градиент_6);}.cls-13{fill:#f1e9e5;}.cls-14{fill:url(#Безымянный_градиент_7);}.cls-15{fill:url(#Безымянный_градиент_8);}.cls-16{fill:url(#Безымянный_градиент_9);}.cls-17{fill:#7fa9d1;}.cls-18{fill:#feead3;}.cls-19{fill:#71a1ce;}.cls-20{fill:#88b0d5;}.cls-21{fill:#9cc6dd;}.cls-22{fill:#90bcd9;}.cls-23{fill:#6393c0;}.cls-24{fill:#729dc7;}.cls-25{fill:#7dacd3;}.cls-26{fill:url(#Безымянный_градиент_10);}.cls-27{fill:url(#Безымянный_градиент_10-2);}.cls-28{fill:url(#Безымянный_градиент_10-3);}.cls-29{fill:url(#Безымянный_градиент_10-4);}.cls-30{fill:#5481be;}.cls-31{fill:#6698cf;}.cls-32{fill:#6692bf;}.cls-33{fill:#84aacb;}.cls-34{fill:#cec0c4;}.cls-35{fill:#c9c8ca;}.cls-36{fill:#e7e0e2;}.cls-37{fill:#ddd3d6;}.cls-38{fill:#d9cec8;}.cls-39{fill:#dfd1d1;}.cls-40{fill:#5d8cd0;}.cls-41{fill:#5481ac;}.cls-42{fill:#6e94b2;}.cls-43{fill:url(#Безымянный_градиент_36);}.cls-44{fill:#95a9c4;}.cls-45{fill:#628fbe;}.cls-46{fill:#618fbe;}.cls-47{fill:url(#Безымянный_градиент_51);}.cls-48{fill:#6490bf;}.cls-49{fill:#5d8bbc;}.cls-50{fill:url(#Безымянный_градиент_37);}.cls-51{fill:url(#Безымянный_градиент-2);}</style><linearGradient id="Безымянный_градиент" x1="111.12" y1="-362.1" x2="285.34" y2="-609.41" gradientTransform="matrix(1, 0, 0, -0.7, 0, -234.86)" gradientUnits="userSpaceOnUse"><stop offset="0" stop-color="#82a5ef"/><stop offset="0.6" stop-color="#fae4c5"/><stop offset="1" stop-color="#fef7f7"/></linearGradient><linearGradient id="Безымянный_градиент_2" x1="211.6" y1="-430.3" x2="136.7" y2="-494.58" gradientTransform="matrix(0.94, 0, 0, -1.19, -4.29, -440.97)" gradientUnits="userSpaceOnUse"><stop offset="0" stop-color="#fce2e2"/><stop offset="0.37" stop-color="#fee5c3"/><stop offset="1" stop-color="#aacceb"/></linearGradient><linearGradient id="Безымянный_градиент_3" x1="60.48" y1="292.74" x2="208.92" y2="304.59" gradientTransform="matrix(1.23, 0, 0, -1.32, 19.52, 500.33)" gradientUnits="userSpaceOnUse"><stop offset="0" stop-color="#a8cbed"/><stop offset="1" stop-color="#efdbdb"/></linearGradient><linearGradient id="Безымянный_градиент_4" x1="201.53" y1="-285.34" x2="196" y2="-290.21" gradientTransform="matrix(1.2, 0.1, 0.14, -1.63, 30.53, -357.34)" gradientUnits="userSpaceOnUse"><stop offset="0" stop-color="#77a3c8"/><stop offset="1" stop-color="#8bb5d6"/></linearGradient><linearGradient id="Безымянный_градиент_5" x1="200.65" y1="-288.2" x2="181.29" y2="-274.96" gradientTransform="matrix(1.2, 0.1, 0.14, -1.63, 30.53, -357.34)" gradientUnits="userSpaceOnUse"><stop offset="0" stop-color="#f4e8e2"/><stop offset="1" stop-color="#8bb5d6"/></linearGradient><linearGradient id="Безымянный_градиент_6" x1="194.19" y1="-289.28" x2="189.2" y2="-294.02" gradientTransform="matrix(1.2, 0.1, 0.14, -1.63, 30.53, -357.34)" gradientUnits="userSpaceOnUse"><stop offset="0" stop-color="#77a3c8"/><stop offset="1" stop-color="#92b4cf"/></linearGradient><radialGradient id="Безымянный_градиент_7" cx="355.36" cy="-174.43" r="7.64" gradientTransform="matrix(0.05, 0.66, 1.92, -0.41, 552.02, -168.88)" xlink:href="#Безымянный_градиент_4"/><linearGradient id="Безымянный_градиент_8" x1="191.68" y1="-295.44" x2="198.79" y2="-294.57" gradientTransform="matrix(1.2, 0.1, 0.14, -1.63, 30.53, -357.34)" gradientUnits="userSpaceOnUse"><stop offset="0" stop-color="#f1e9e5"/><stop offset="1" stop-color="#8bb5d6"/></linearGradient><linearGradient id="Безымянный_градиент_9" x1="421.67" y1="298.74" x2="150.53" y2="291" gradientTransform="matrix(1.09, 0, 0, -1.63, -34.31, 654.42)" gradientUnits="userSpaceOnUse"><stop offset="0" stop-color="#5a91c3"/><stop offset="0.46" stop-color="#76a4d0"/><stop offset="1" stop-color="#98bce1"/></linearGradient><linearGradient id="Безымянный_градиент_10" x1="376.58" y1="-426.41" x2="390.42" y2="-426.26" gradientTransform="matrix(1, 0, 0, -1.35, 0, -420.02)" gradientUnits="userSpaceOnUse"><stop offset="0" stop-color="#5d8fbe"/><stop offset="1" stop-color="#4e85b8"/></linearGradient><linearGradient id="Безымянный_градиент_10-2" x1="406.91" y1="-432" x2="421.18" y2="-431.84" xlink:href="#Безымянный_градиент_10"/><linearGradient id="Безымянный_градиент_10-3" x1="429.3" y1="-440.52" x2="440.44" y2="-440.4" xlink:href="#Безымянный_градиент_10"/><linearGradient id="Безымянный_градиент_10-4" x1="364.48" y1="-434.29" x2="365.91" y2="-434.28" xlink:href="#Безымянный_градиент_10"/><linearGradient id="Безымянный_градиент_36" x1="112.98" y1="-374.07" x2="106.46" y2="-375.94" gradientTransform="matrix(1.07, 0, 0, -1.38, 3.18, -354.06)" gradientUnits="userSpaceOnUse"><stop offset="0" stop-color="#dfdbd2"/><stop offset="0.54" stop-color="#d3c9c8"/><stop offset="1" stop-color="#bab7cd"/></linearGradient><linearGradient id="Безымянный_градиент_51" x1="227.1" y1="-429.14" x2="206.55" y2="-420.19" gradientTransform="matrix(1, 0, 0, -1, 0, -259.38)" gradientUnits="userSpaceOnUse"><stop offset="0" stop-color="#6698cf"/><stop offset="1" stop-color="#9fbdd7"/></linearGradient><linearGradient id="Безымянный_градиент_37" x1="24.22" y1="-436.56" x2="50.27" y2="-428.81" gradientTransform="matrix(1, 0, 0, -1, -0.7, -259.38)" gradientUnits="userSpaceOnUse"><stop offset="0" stop-color="#2f4b70"/><stop offset="1" stop-color="#694b59"/></linearGradient><linearGradient id="Безымянный_градиент-2" x1="151.35" y1="373.26" x2="264.02" y2="213.33" gradientTransform="matrix(1, 0, 0, 1, 0, 0)" xlink:href="#Безымянный_градиент"/></defs><title>mountains-full</title><g id="Layer_2" data-name="Layer 2"><g id="Layer_2-2" data-name="Layer 2"><path id="rect12320" class="cls-1" d="M450,271.12V0H0V268.77"/><g id="g5057"><g id="g5014"><path id="path4598" class="cls-2" d="M69,33.69a19,19,0,0,0-4.94.57C58,36.05,52.89,36.37,47.22,41.54c-3.75-1.21-8.09-4-13.49-2.73-1.08,1.36-7.86-.05-5.06,6.38-3,1.19-8.08.55-11,5.48A7.71,7.71,0,0,0,15,53.16,20.9,20.9,0,0,0,1.7,51.34v92.07a20.41,20.41,0,0,0,15.21-2c1.06-.15,1.81-1.76,2.37-2.3,4.28,2.51,9.11,2.06,13.52,1.15,1.77-1.4,3.75-1.68,5.74-2.29,2.23,2.59,4.9,2.06,7.78,2.29,2.22.45,3.84-.67,5.74-1.53,50.28,1,107.36,11.05,156.14,0,22.57,0,107.17,12.75,127.55,3.12-.94-5.31-2.87-7.41-7.78-8-1.77-5-4.75-7.66-10.14-6.89-1.66-2.52-2.15-3.45-5.41-3.45.17-1.89.54-4.41.68-6.51-2.46-2.78-4.67-7.57-8.45-8.42.19-2.38,1-5-.67-7.27a14.79,14.79,0,0,0-9.13-2.3c-1.43-.65-3.05-2.66-6.08-1.53-1.68-2.53-1.08-3.33-4.4-2.68,2.92-4,3-3.81-18.71,1.84-1.38-12.5-15.61-12-17.65-6.38-.59-2.19-3.07-18.43-31-12.35-2.25-.43-5.73-1.62-8.45.76-1.28-1.64-2.44-4-4.39-5,1.6-1.21,3.19-.62,3-3.82-7.11-3.72-13.37-6.75-21.3-4.22V62.54c-2.47-.76-4.85-2.07-7.77-.38-1.41-1.12-2.64-3.34-5.07-3.06-2.26.42-4.43.39-6.42,2.29-8.35-5.51-17.06-7.43-26.7-5.74a15.71,15.71,0,0,0-17.57-2.29c-2.14-1.35-4.23-2.89-6.42-4.22-3.46-.32-6.7-1.07-9.8,1.15-3-.69-4.77-1.41-7.44,1.53a43.87,43.87,0,0,1-6.84-3.18l.87-.72c-1-1.61-1.11-2.83-3.37-5.47-1.69-.91-5.24,5.47-5.06-2.73C80.63,37.52,75.72,33.8,69,33.69Z"/><path id="path4812" class="cls-3" d="M197.33,93.35c-.82-5.78,2.35-12.22,11.42-9.22,3.63-10,12.64-4.39,14.26-1.89,7.4-2.87,11.7,3.13,10.58,6.32C239,84.83,244,90.44,245.12,97c-6.66-5.13-8.62-3.13-19.28-.62-2.71-13-18.83-5.07-28.51-3Z"/><path id="path4625" class="cls-4" d="M91.15,79.93a9.69,9.69,0,0,0-1.52,0c-1.23,1.81-1.21,5.8-4.78,7-5,2.12-8.92,4-14.36,3.2-3.54-1.72-7.14-1.72-9.57-6.39-2.59,2.55-6.14,3.14-7.77,7.67-5.19-.51-10.85-.11-15-3.84-3.65.26-8.61,2.17-12.56-1.91C18.1,88,8.87,91.55,1.7,88.51v55.13a31.31,31.31,0,0,0,20-2.23c1.39-.17,2.38-2,3.11-2.56,5.64,2.79,12,2.29,17.79,1.28,2.34-1.56,4.94-1.87,7.57-2.55,2.93,2.88,6.44,2.29,10.23,2.55,2.93.49,5.06-.74,7.56-1.7,29.63.51,61.05,3,92.49,4.53,6-3.06,10.63-6,13.5-8.72,5.36,1,9.28,1.6,14.65,6.07,8-.26,14.37-.75,19.44-6.7,2.88-1.1,5.53-.85,8.38-3.2.59,3.51-2.19,3.64,1.19,7,6,.49,9,.83,10.23,1-1.58-.33-4.43-1.26-.36-2.93,7,0,8,.59,9.87-5.75,5.52-1.07,8.94-3.51,13.76,2.56,8.31.8,13.83-2.29,19.14-10.22,3.78.8,7.22,1.79,11.37-1.92-1.35-5.74-2.29-11.4-7.18-15.33-4.41.43-8.29.3-12,3.83-3.42-1.62-5.71-1.27-7.17-5.75-6,4.81-13,8.35-18.55.64-4-.84-8.54-2.25-13.16-.64-.72-3.87-.56-7.08-4.18-8.3-4.07-.4-7.48-1.08-11.37,1.92-3.11-4.43-4.88-7.47-12-7-1.44-.26-3.4-3.51-7.18-1.28-.54.43-6.83-1.54-4.79,3.83-6.7.72-12.47,2.22-10.76,10.86-1.91.62-4.19.53-6,1.92-1.21-1.55.19-3.17-3-3.83-1.74,1.16-4.89-1.79-4.79,3.19-4.13-.4-8.55.24-11.37-3.19-1.14-2.25-.21-5.71-3.58-7-5.38-1-10.86-2.37-16.16,0a29.36,29.36,0,0,1-10.76,5.11c-9.23-.76-19-4.43-18-16-2.31-1-5.2-3-8.65-3.21Z"/></g><path id="path4892" class="cls-5" d="M40.92,66.43a13,13,0,0,0-4.16.83C33.31,69,25,63.53,26.94,72.13c-2.43,2.41-3.46,4.44-7.36,7.3-1.83-2.17-.34-7.66-6.14-7.3C7.69,75,4.08,76.4,1.7,78.74v23.49c12.82,20,45.72-7.25,73.09,6.42,2.29-3.64,5.36-4.41,6.14-9.74-6.19-2-9.57,1.81-14.72-4.87-2.47-1.75-9,.46-8.6-6.09,4.11-1.81,5.39-4.79,11-4.87-4.09-1.21-8-4.19-12.27-3.65C58,77,60.23,74.85,61.3,72.13a72.59,72.59,0,0,1-7.37-1.22C51.07,70.06,46.63,66.28,40.92,66.43Z"/></g><g id="g4945"><g id="g5166"><path id="path4863" class="cls-6" d="M270.65,137.59c-20.41-9.52-14.63-12.36-20.41-9.52-2.8-.5-5.74-1.59-8.36-2.18-.83-.88-1.46-1.66-2.11-2.35a5.46,5.46,0,0,0-3.41.42c-1-.83-.91-.43-1.88-.88-.22-.68-.7-.23-1-.34-.56-.38-.59-1.18-.76-1.51-.53-.4-1,.08-1.43.12-2-2.65-2.72-3.7-5.62-2.91-1.21-2.3-1.08-2.87-3.35-2.46-3.78-.41-3.69-2.71-7.34-3.54-.76-.6-1.24.38-1.83.57-6,3.17-14.06,7.2-17,8.89-4.81-.18-9,4.28-12.72,7.1,7.15,30,54.86,62.91,73.6,27.42,3.2-6.07,25.59-5.83,20.71-10.22Z"/><path id="path4888" class="cls-7" d="M232.52,121a3.46,3.46,0,0,1-1.81.32c.59,1.25,1.1,2.52,1.63,3.76.76-.3,1.33.45,1.91.65,1.85,2.51,2.76,4.76,5.13,6.48-1.84-3.24-3.35-4.46-3-8.94-.63-.67-2.77,0-2.79,0C232.43,122.88,233,121.73,232.52,121Z"/><path id="path4884" class="cls-8" d="M240.87,125.32a10.75,10.75,0,0,0,2.49,4.08,20.57,20.57,0,0,1,2,.9,39.29,39.29,0,0,0,4.77,4.52,39.8,39.8,0,0,1-3.36-6.33c-1.5-.44-1.4-1.57-1.62-1.82A6.25,6.25,0,0,1,240.87,125.32Z"/><path id="path4927" class="cls-9" d="M224.61,117.3c.43,1.76,1.14,3.4,1.52,5.06a4.3,4.3,0,0,0,1.44-2.54c1.23-.35,1.64.28,2.48,1,.92,3.29,3.12,4.35,4.92,6,2,3.62,5.25,5,8.42,9.8-5.63,2.59-28.38-13.31-18.78-19.32Z"/><path id="path4900" class="cls-10" d="M245.09,132c-.18,1.27,2.17,6.86,2,8.13-1.23.66-7.14-4.24-7.51-4.64,2.85-2.13,4-3.42,5.55-3.49Z"/><path id="path4902" class="cls-10" d="M214.39,112.63c.07,1.36.46,2.13.44,3.5,4.42,3.05,6.59,8.55,9.92,12.59.51,1.49,3.61,6.19,3.92,7-2.07-2.88-7.67-6.48-10.06-8.23,3.23-4.39-.87-6-3.32-6.8.13-1.15-.6-.39-.85-.56-.76-.13-1-1.37-1.26-1.8-6.21-.43-12,3.51-17.59,3.78,5.84-1.59,13.43-9.93,18.8-9.47Z"/><path id="path4904" class="cls-10" d="M209.59,124.77a23.08,23.08,0,0,0,5.25-2.63c2.74,6.57,3.58,5.34,6.14,10.59-1.82,1.3-5.4-.54-19.67,10-.83-.47,11.26-11.81,10.65-12.41l.1-1.2c-3,.48-5.15,2.94-7.72,4.88,1.6-4.33,4-4.9,6.81-6.64.46-.3.19-.79.28-1.19-5.08.57-9.5,3.48-14.05,6,3.78-3.92,7.51-7.79,12.21-7.38Z"/><path id="path4890" class="cls-11" d="M214.16,112.71c-.33,2.35,2.69,8.52,8.93,14.44,2.28,4.24,5.73,10.37,9.43,10.23.24-.12,2.78.69,3.63.79l1-2.16c-4.63-4.17-11.51-10-16.64-14.39-.52-1.69-.19-3.9-1.33-5.19Z"/><path id="path4906" class="cls-12" d="M220.73,132.34c4.57,2.11,5.46,3.44,6.82,6.75-3.29.19-8.68-1.16-15.29-3.28,4.06-.85,6.07-1.42,8.47-3.47Z"/><path id="path4886" class="cls-13" d="M214.79,122.32a49.89,49.89,0,0,1-.36,8.18c.44-.78,1-.56,1.5-.84l1.42,2.06a17.33,17.33,0,0,0,3.47,1,20.9,20.9,0,0,1,6.25,5.86l2.12.18c-3-4.81-6.91-7.64-10.12-10.53-.85.37-1.13-.83-1.5-1.1A12.92,12.92,0,0,0,214.79,122.32Z"/><path id="path4878" class="cls-14" d="M227,139.56c3.51-.36,7.42-3.76,9.7-5.19,1,.26,1.34,1.1,1.78,2.09,1.74,3.3,4.39,4.92,6.59,8-5.53.82-8.63-1.54-14.11-1.47-3.38-1.18-3.42-1.18-4-3.48Z"/><path id="path4882" class="cls-7" d="M245.38,132.71c-1.65,1.08,1.38,5.22,1.75,6.43-4.69-2.71-7.31-2.94-9.73-4.71l.67.54a40.69,40.69,0,0,0,7.9,9.38c2.75-.74,5.62-2.86,8-4.37-1.07-4-3.79-3.93-5.9-5.82A8.48,8.48,0,0,0,245.38,132.71Z"/><path id="path4865" class="cls-15" d="M218.63,136.82a6.21,6.21,0,0,0-1.37,0l-5.83-.51c1.57,1.9,2.58,4.07,4.75,4.76,1.76,2.13,4.39,2.68,6.56,4.43,1.53,2.51,3.15,4,4.77,6.45a33.86,33.86,0,0,0,.63-7.18c-2.22-1.79,3-4.68-5.82-6.79A17,17,0,0,0,218.63,136.82Z"/></g></g><path id="path4685" class="cls-16" d="M451,210.48V146.15c-12.83-5.79-26.61-14.87-39.55-19.68h0c-7.06,0-13.78,7.83-20.41,11-4.65-2.35-9-2.19-11.17-5.81-5.89,2.3-9.3,10.56-23.26,15.48-4.25-.64-10.07.12-14.88,1.29a48.89,48.89,0,0,1-8.08-3.87c-4.48.53-9,0-13.18,2.58-9.19-2.19-17.49-8.42-28.59-12.79-2.09,1.4-2.28-1.2-4.3,1.11a29.19,29.19,0,0,1-7,7.41c-1.19-.8-10.21-1.72-10.21-1.72-6.81-1-10.41,8.63-17.95,9.21-2.66.37-5.09.4-7.65,3.23a59.68,59.68,0,0,0-5.53-5.16c-3.7,1.29-7.26,3.46-11.05,4.51-1.62-1.33-2.5-4.34-4.68-3.87-3.22.49-6.82.59-10.2,1.29-2.59.36-8.56,11.75-11.62,10.46,0,0-3.55-2.82-6.8-1.93-5.77,0-10.73-6.77-17.72-6-1-.21-2.07.69-3-.64-6,0-12.18-.89-17,3.22-3.1-1.41-5.22-2-7.65-3.87-3.31-1-6.49-1.79-9.78,1.29-2.81-1.27-4.57-3.06-7.66-.64-2.65.67-9.5,4.22-13.6,1.93-2.4,9.4-7.85,18.45-11.48,25.78"/><path id="path4742" class="cls-7" d="M292.57,136.55c.14,1.84,2.46,10,2.88,11.54.28,1.08,7.56-4.06,7.68-2.91.46-.57-2.56,6.11-2.39,5.35l17.78-2.79C315,145.1,295.29,135.74,292.57,136.55Z"/><path id="path4754" class="cls-17" d="M411.94,134.68a38.37,38.37,0,0,1,1.75,5.21c3,3.35.59-.24.88-.37.58,2,1.6,2.38,2.5,3.73-.06,3.07-.59,5.92-.75,8.94a8.41,8.41,0,0,1,3.25-3.91c1.27-.26,2.52-1.87,3.76-2.61,1.6.42,3.09,1.66,4.5,2.61a12.62,12.62,0,0,0,1-1.68c7-.7,15.58-1.35,22.15-.37-5.37-1.53-38.3-20.8-39.56-19.42A12.36,12.36,0,0,0,411.94,134.68Z"/><path id="path4756" class="cls-18" d="M386.19,140.62a28.11,28.11,0,0,1-4,3.66,8.54,8.54,0,0,1-4,3.5,14.71,14.71,0,0,0,.82-2.59,31.69,31.69,0,0,0,.21-5.79c1-1.36.89-3.2,1-5.18a10.24,10.24,0,0,1,.1-2.13,2.85,2.85,0,0,1,3.27.46c.93.23,1.7.68,2.56.91.91-.1,1.74.6,2.56,1.07a4.44,4.44,0,0,1,2.14,3c-1.68,1-3.22,2.12-4.7,3.12Z"/><path id="path4758" class="cls-19" d="M361.94,146.32c2-.84,3.94-2.81,5.72-4.48a84.58,84.58,0,0,1,7.42-6,20.44,20.44,0,0,0-1.22,7.69,17.8,17.8,0,0,0-2.8,1.06c-.47.48-1,.9-1.45,1.28.78-1.69-.4-.69-.49-.85a4.46,4.46,0,0,0-1.83.43c-1.86,1.62-3.56,1.79-5.35.85Z"/><path id="path4762" class="cls-19" d="M348.86,162.86a26.36,26.36,0,0,1,1.74-3,2.41,2.41,0,0,1,2.25-1.42c.94.49,1.63,2.13,2.25,3.36a35.66,35.66,0,0,0,2.69-6.84,44,44,0,0,1,1.38-4.26,24.82,24.82,0,0,1,4.33-3.48,25.38,25.38,0,0,1-4.94-.26h0a8.49,8.49,0,0,0-2.16,1.68c-1,.26-1.85,1.7-2.6,2.58-1.68,3.47-4.44,5.2-6.84,7.35-.74.37-1.62.74-2.25,1-1.62,2.68-3.1,5.77-4.77,8.26"/><path id="path4764" class="cls-20" d="M377.94,147.52c-1.19.84-2.56.6-3.87.72H371l-2.58,2.16a29.46,29.46,0,0,1-2.09,2.88c-1.17,1.78-2.19,3.84-3.23,5.76,1.55-1.1,3-2.61,4.52-3.6.86-1.19,2.94-1.74,3.54-1.92,3.28-.68,5.05-3.07,6.77-6Z"/><path id="path4768" class="cls-21" d="M239.49,148.91c.73.79.27,1.87.4,2.81a18.59,18.59,0,0,1-.4,5.22c-.06,1.55-.22,4.37-.27,5.22a9.71,9.71,0,0,1,1.48-4.42c2.12-2.12,2.65-3.36,4.45-4.82a43.31,43.31,0,0,0-5.66-4Z"/><path id="path4770" class="cls-22" d="M270.26,141.46l1.44,4.15,2.12,6.51a26.84,26.84,0,0,0,2.66-4.56c.34-.78,3.88-4.13,4-4.83C279.37,141.43,271.65,141.67,270.26,141.46Z"/><path id="path4772" class="cls-23" d="M328,165c-.11-.91-2.52-6.49-2.52-6.49,0,2.09-19.49,9.52-19.8,11.36"/><path id="path4772-2" data-name="path4772" class="cls-23" d="M337.2,169.27c1.89-2.6,4-4.91,5.9-7.36.89-3.19,3.38-5.3,4.8-6.94-1.18.63-2.49,1.31-3.71,2-1.51,1-.64-7.21-2.14-6.76a85.47,85.47,0,0,0-2.79,11.87,31.36,31.36,0,0,1-4.53,4.49"/><path id="path4774" class="cls-24" d="M257.86,168.93c4.11-3.57-.58-10.2-.58-10.2s12-1.54,15-4h0c-3.91,2.86-1.24,2.15-2.14,3.72a109.56,109.56,0,0,0-7.65,9.81"/><path id="path4810" class="cls-22" d="M249.55,151.63a4.22,4.22,0,0,1,3.95,2,14.4,14.4,0,0,1,1.71,2.31,7.46,7.46,0,0,0,2.78,2.16c.53-.89,1.37-1.06,2-1.44,2.84-3.07,6.31-.54,9.52-.29-2.56-1.2-5.17-2.32-7.7-3.46h-3.53c-3-.61-6.06-.94-8.76-1.3Z"/><path id="path4836" class="cls-25" d="M305.23,169.17a63.6,63.6,0,0,0-1.41-8.56c.19-4.41,3.4-7.23,4.93-10.46-5,1.65-6.38,3.52-10.57,6.66h0c-1.43,7,.68,4.08,1.41,8.55"/><path id="path4887" class="cls-26" d="M388.17,165.68l3.6-20.3-25.72,20.26"/><path id="path4887-2" data-name="path4887" class="cls-27" d="M420.7,168.34l1.87-15.7-26.51,21.18"/><path id="path4887-3" data-name="path4887" class="cls-28" d="M440.33,192.11l1.12-35L420.7,168.34"/><path id="path4887-4" data-name="path4887" class="cls-29" d="M366.05,165.64l-2.7-3.28.81,8"/><path id="path5294" class="cls-30" d="M397.94,167.87l10.85-18.52-5.68,17"/><path id="path5294-2" data-name="path5294" class="cls-30" d="M389.36,169.9l8.8-9.34-.22,7.31"/><path id="path5294-3" data-name="path5294" class="cls-30" d="M420.6,168.92l20.94-11.61,3.81,26.77"/><path id="path5294-4" data-name="path5294" class="cls-30" d="M403.11,166.31l19.11-12.47-1.62,15.08"/><path id="path5465" class="cls-18" d="M411.56,126.38c6.4,4.92,13.57,12.55,19,18.07,4.62-.41,8.59-.95,13.38-.95-11.15-8.14-20.74-14-32.4-17.12Z"/><path id="path4931" class="cls-31" d="M1,218.85,1.43,122c4.23,0,7-.49,10.59-3.64,2.07-.58,3.62-1.73,6-.9,3.93,1,6.47,2.91,10.59,3.63,1.65-1.28,2.32-2.5,4.53-2.12h1.3c.65-.91,1.46-2.2,2.59-2.42.56.9.25,1.79,1.3,2.12,1.83-1.72,3.65-4.1,5.83-5.45.4,0,1.79.73,2.81,0a8.67,8.67,0,0,0,4.1-2.12,40.4,40.4,0,0,1,7.56-6.36A9,9,0,0,1,63.21,102a20.56,20.56,0,0,1,2.59.31c2.9.4,6,1.69,8.86.6,2-2.16,4.32-5.38,6.69-7h4.54a18.22,18.22,0,0,0,2.59,3c3.28,0,6.34-1.08,9.72-.6a39.21,39.21,0,0,1,3.24-4.24c2.3-.06,2.42,1.64,4.52,3.47a16,16,0,0,1,3.48-2.86c2.17-2.38,3.86-3.61,5.83-5.45,2.76-.65,4.35.93,6.26,2.11.08,1.06.73,1.64,1.08,2.43,1.51.47,4.11,0,5,0,1.35-.27,1.79.77,2.81,1.21,1.61.28,3.32.37,5,.6,1.18.67,1.35,1.72,2.16,2.73h2.59c1.57.09,2.4,1,3.45,1.82h4.11a12.88,12.88,0,0,0,5.4,4.84c.69.45,3,.3,3,.3,2,.75,4.81,3.92,6.27,5.15,4.75,3,4,3,4.75,3,4.65,3.48,6.22,6.56,11,10.29,6.4,5.39,12.66,9,17.49,10.3,3.72,8,13.35,14,19.66,16.65,21.42,22.43,58.72,34.83,74.08,47.75"/><path id="path5074" class="cls-32" d="M145.73,136.75c2.94-1.4,6.28-8.22,6.6-8.63,6.28-6.27,12.06,2.65,17.14,7.39,7.17,5.47,12.05,3.44,14.94,13.56-5.58.9-8.39-2.77-12.75-6.16-.56,1.76.3,3.32.44,4.92-2.92-3.31-4.66-6.28-7.47-9.24-.86,4.32.13,5.75.88,9.24-2.41-2.48-3.46-6-4.39-9.24C167.17,172.3,145.73,142.77,145.73,136.75Z"/><path id="path5076" class="cls-32" d="M89.48,97.93a32.56,32.56,0,0,1,7.47.62c2.11-3.7,3.1-2.69,6.16-3.08.49,6.44,5.53,6.32,9.23,8.63.3,3.52-.76,1.76-1.32,3.08,2.62,3.36,4.64,3.85,7.91,4.31,4.16,4.31,8.53,6.86,12.3,7.39,1.52.57,2.86,3.5,4,5.54,1.7,2.21,5.57,4,6.15,4.32a21.12,21.12,0,0,1-3.08,1.85c4.11,5.75,5.94,6.87,10.55,10.47,7,5.35,7.94,8.24,11,17.86-3.37,2.94-6.56,1.61-10.11.62-4.16-8-7-10.34-12.74-13.55.05-3.8-1.67-8-2.2-10.48-2.78-2.62-6-3.53-8.79-4.31,1.4,5.66,2.69,11,5.71,16.63-6,.33-8.88-6.8-11.86-10.47-.57-3.51-3.8-8.13-4.4-9.24-5.87-7.43,4.36,1.83,8.35,4.31-5.92-5.47-7.68-8.15-11.42-16-1.66-17-15.88-7.3-22.86-18.49Z"/><path id="path5078" class="cls-32" d="M126.4,169.4c-5.83-4.61-10.85-12.61-15.82-17.25-8.14-10.86-12.66-22.09-17.58-34.5,3.15,5.93,7.76,11.49,10.11,16,2.06,3.72,5.71,6.36,7,7.39,3.3,3.82,6.22,4.9,9.23,6.77,5,8.62,13.78,11,18.45,19.72"/><path id="path5080" class="cls-33" d="M116.25,89.11a5.93,5.93,0,0,0-1,.14c-2,1.85-3.66,3.08-5.83,5.46A16,16,0,0,0,106,97.57c-.15-.13-.27-.26-.4-.39a6.53,6.53,0,0,1-.49.75c6.77-.34,10.26,6.15,14.29,11.09.87,6.18,4,7.42,7.91,11.09,2.47-1.18,3.36-.72,5.71-1.23,3.48,2.47,7.19,8,8.35,9.86,4,2,8-.17,10.55-1.23,2.54-.67,4.76.35,7,.61,9.83,10.29,20.79,16.63,32.52,21.56a51.78,51.78,0,0,0,14.49-4.22c-4.22-3-8.21-6.9-10.31-11.39-4.83-1.36-11.09-4.91-17.49-10.3-4.8-3.73-6.37-6.81-11-10.29-.7,0,0,0-4.75-3-1.46-1.23-4.26-4.4-6.27-5.15,0,0-2.33.15-3-.3a13,13,0,0,1-5.4-4.84h-4.1c-1.06-.82-1.89-1.73-3.46-1.82h-2.59c-.81-1-1-2.06-2.16-2.73-1.65-.23-3.36-.32-5-.6-1-.44-1.45-1.48-2.81-1.21-.86,0-3.46.47-5,0-.35-.79-1-1.37-1.08-2.43C119.86,90.33,118.43,89,116.25,89.11Z"/><path id="path4960" class="cls-34" d="M82.54,109.75a7.6,7.6,0,0,1,2.82,3c-.34.31-.63.53-.88.75a15.91,15.91,0,0,0-.09,2.59,5.5,5.5,0,0,0,1.94,2.34c-.59.74-1.27.66-2,.87a6.12,6.12,0,0,1-.62-1.85c-.17-.57-.52-.49-.79-.74a6.44,6.44,0,0,1,.26-2.1c.28-2.23.09-3.58-.88-4.94Z"/><path id="path4962" class="cls-34" d="M93.55,132.47a60,60,0,0,0-3.08-6.17c-.38-.08-.76-.15-1.15-.25a8.4,8.4,0,0,0-1.85-4.69,11,11,0,0,0-2.91.86,6.66,6.66,0,0,1,1.24,3.71,3,3,0,0,1,1.85,1.73,3.44,3.44,0,0,1,1.32,1.6v4.08a4.7,4.7,0,0,0,4.58-.87Z"/><path id="path4966" class="cls-34" d="M93.81,138.15a10.27,10.27,0,0,0-1.32-3.45c.43-.8.7-.71,1.32-.87,1.37,1.24,2.33,3.42,3.26,4.57,2.64,3.16,4.46,7.16,6.52,10.87a8,8,0,0,0-4.4-3.21,13.73,13.73,0,0,0-2.56-4.7c-.06,1.2-.09,2.37-.09,3.58-1.34-1.07-2.69-2-3.87-3.08a38.81,38.81,0,0,0-3.44-8,16.59,16.59,0,0,0,2.29,1.73c.9,1.06,1.28,2,2.29,2.59Z"/><path id="path4968" class="cls-34" d="M90.2,103.21c1.69,1.37,2.9,3.93,4.14,5.68a5.25,5.25,0,0,1-1.58-.13,28,28,0,0,1-2.29-4.2,11.42,11.42,0,0,0-.36-1.85Z"/><path id="path4970" class="cls-34" d="M89.59,109.46c1-2,1.53.83,2.11,2.37,1.29,1.2,2.39,4.45,3.26,7.78H92.4C91,117.71,90.44,113.82,89.59,109.46Z"/><path id="path4976" class="cls-34" d="M98,127.53c1-.14,2.11.79,3,1.36,3.16,2.4,5.76,7.38,8,11-.94-.12-2.11-1.67-2.56-2.1a20,20,0,0,1-3-2.34c-.75-1.23-1.49-2.85-2.12-3.83A10.17,10.17,0,0,0,98,127.53Z"/><path id="path4978" class="cls-34" d="M108.79,126.92a16.33,16.33,0,0,1,2.47,1.35c1.36,1.54,2.28,3.58,3.61,5.44,1.57,1.55,3.28,2.62,4.58,4.07-1.53-1.47-3.5-1.79-5.2-2.22-.78-1.34-1.78-2.37-2.55-3.46a7.63,7.63,0,0,0-.88-2.1A25.3,25.3,0,0,0,108.79,126.92Z"/><path id="path4980" class="cls-34" d="M103.42,111a12.9,12.9,0,0,0,3.27,4.34A62.81,62.81,0,0,0,118,132.69c-2.08.31-4.65-1.44-5.83-2.05-2.12-1.77-3.6-4.43-4.92-6.89a34.94,34.94,0,0,0-1.82-7.15c-.27-2.12-1.29-3.81-2-5.61Z"/><path id="path4982" class="cls-35" d="M101.57,94.93l2.64,3.71c1.7,2.19,3.93,3.41,5.28,5.31a2.51,2.51,0,0,0,.62,1.6c2,.69,3.88,1.84,5.73,2.1-.55-2-2.35-3-3.53-3.7-1.14-1.32-2.47-2.45-3.43-3.46A15.2,15.2,0,0,0,106,97.4a8.38,8.38,0,0,0-4.4-2.47Z"/><path id="path4984" class="cls-34" d="M115.93,110.37c.89.89,2.45,2.18,3.08,2.84a8.64,8.64,0,0,0,3,.62,9.6,9.6,0,0,0-1.76-1.86,18.89,18.89,0,0,0-1.85-2.47,4.81,4.81,0,0,0-2.46.87Z"/><path id="path4986" class="cls-34" d="M114.6,118.15a14.69,14.69,0,0,0,3.88,2.71,5,5,0,0,1,1.23,2.35,10.36,10.36,0,0,1,2.73,1.48,51.08,51.08,0,0,1,2.91,6.42,26.33,26.33,0,0,0-4.58-4.32c-1.37-.53-2.39-2.12-3-3.33C116.26,122.09,115.72,119.71,114.6,118.15Z"/><path id="path4988" class="cls-34" d="M121.83,142.23a14.18,14.18,0,0,1,2.73,2.59c.32.72.51,1.4.79,2.1a11.46,11.46,0,0,1,3,3c-1.44-.69-2.78-1.25-4.06-2-.26-1-1-2.67-1.05-3C122.73,143.93,122.27,143.17,121.83,142.23Z"/><path id="path4990" class="cls-36" d="M144.73,163.22c-2.14-1-4.18-1.26-6.34-2.47a30.9,30.9,0,0,1-2.6-3.27c-1.55-1.75-3.23-4.79-5.68-5.62h0a13.75,13.75,0,0,0,1.58,3.58,5.54,5.54,0,0,0-3.43-1.23c-1.49-.84-3.55-3.21-5.38-4.33-2.07-1.29-3.72-4.63-6-5.8a14,14,0,0,0-5.55-1.73,20.79,20.79,0,0,0,6.35,5.06c1.4,3.26,3.6,4.84,5.46,6.8,1.8-.18,3.63,1.13,4.93,2.22a60.84,60.84,0,0,1,5.46,4.69c1.65,1.51,3.53,3.87,4.94,4.94"/><path id="path4992" class="cls-37" d="M113.9,90.73c.92,1.13,1.72,2.42,2.55,3.58a14.88,14.88,0,0,0,2.56,2c1.34,1.79,2.69,3.65,3.87,5.31l1.59.49c-1.54-3.59-4.14-7.86-6.78-9.5a4.67,4.67,0,0,1,2.29-.25c1,.89,2,2.21,2.73,3a8.24,8.24,0,0,0,3.61,3.58c1.75,1.34,3.4,1.54,5.29,2.6a21.52,21.52,0,0,0,4.22,3.83,15.42,15.42,0,0,0-3-4.7,9.71,9.71,0,0,1-2.29-1.48C129.38,98,128.65,96,128,94.31c-1.75.1-3.46-.12-5.19-.12a21.57,21.57,0,0,1-1.5-3.09,9.83,9.83,0,0,0-5.46-2.47c-1.85.16-1.84,1.41-1.94,2.1Z"/><path id="path4994" class="cls-38" d="M148.17,127c-3.56-2.77-5.82-7-9.52-10.5a3.78,3.78,0,0,0-2.38-1.11A11.74,11.74,0,0,1,135,112.1a2.79,2.79,0,0,1-1.67,0,20,20,0,0,0-1.76-2.47c.65-1,1.46-1.59,1.14-3.34-.5-.78-1.3-2.17-2.2-2.34a3.91,3.91,0,0,0-1,.12,27.15,27.15,0,0,1,1.67,3.7c-.17.37-.16.89-.53,1.12-.92-1.15-2.06-3.1-3.43-3.46a23.94,23.94,0,0,0-3.35-1.48,63.14,63.14,0,0,1,5.82,7.28,48.63,48.63,0,0,0,3.43,3.71c4.83,4,10.27,9.91,14.8,13.09.6,0,.37.68.53,1,1.37.26,2.46-.5,3.61-1a15.42,15.42,0,0,1,1-1.86,25.35,25.35,0,0,0,4.85,0c-.4-2.41-3-2.77-4.23-4.07-.11-.58-.18-1-.27-1.61-3.11-1.81-5.86-5.87-8.1-9a71.12,71.12,0,0,1-4-7.9c-2.16-1.82-3.71-4.54-5.72-6.43,1.55,3.69,2.84,7.94,4.93,10.87,1.26.11,1.87,1.66,2.64,2.47,1,2.22,2.7,4.12,3.62,6.42a29.18,29.18,0,0,1-3.62-3.58,16.85,16.85,0,0,0-5.11-5.68,21.33,21.33,0,0,1,1.59,4.08c3.16,3.16,6.21,6.19,8.55,10.86-.76,0-1.12-.63-1.68-1-1.49-4.63-4.74-6.12-7.31-8.53.89,4.18,3.69,5,5.29,7.29a17.6,17.6,0,0,0,3.61,4.45V127Z"/><path id="path4996" class="cls-34" d="M129.93,117.16a17.11,17.11,0,0,1,3.79,1.48,13.59,13.59,0,0,0,2.82,3.58c1.94,2.55,4.33,3.23,6.08,5.68-2.17,0-3.86-1.09-5.46-2.1a5.66,5.66,0,0,0-2-.74,26.34,26.34,0,0,0-2.56-2.84,20.54,20.54,0,0,0-2.64-5.06Z"/><path id="path5002" class="cls-34" d="M134.51,126.17a7.09,7.09,0,0,1,1.76.25,14.39,14.39,0,0,1,4,2.47c.33.57.65,1.14,1,1.73-1-.39-2.44-1.12-3-1.36s-.44.23-.7.37a11.29,11.29,0,0,1-1.68-1.48c-.59-.84-.84-1.21-1.32-2Z"/><path id="path5004" class="cls-34" d="M126.32,121a14.21,14.21,0,0,1,2.55,4.81c1.44,1.78,2.9,2.27,3.62,4.08a6.26,6.26,0,0,0-3.26-1.48,20.35,20.35,0,0,0-2.21-4.08c-.9-1.22-2-2.43-2.68-3.33Z"/><path id="path5006" class="cls-34" d="M136.19,144.57c1.81.59,3.31,2.25,5,3,.41,2.4,2.33,4,3.61,5.31a18.67,18.67,0,0,1-3.26-.74,14.39,14.39,0,0,1-2.64-4.45,27.36,27.36,0,0,0-2.73-3.09Z"/><path id="path5008" class="cls-34" d="M144.56,154.45a12,12,0,0,1,1.93,1c.93,1.2,1.49,2.45,2.21,3.46a10.42,10.42,0,0,1,2.55,2,3.07,3.07,0,0,1-2.47,0,7.65,7.65,0,0,1-2.64-4.69C145.5,155.44,145.15,155.08,144.56,154.45Z"/><path id="path5010" class="cls-39" d="M145.43,100.16c-.28.28-.57.55-.85.84a14,14,0,0,0,4.73,3.22c1.39,4.8,5.37,7.35,7.92,10.93a10.74,10.74,0,0,0,7.8,1.79c.73-.23,1.41.32,2.05.72a15.72,15.72,0,0,0,2.3,4.66c3.46,3.21,8.08,4,10.87,8.42a20.27,20.27,0,0,0,2.68,1.08c.73,2.66,2.78,4.19,4,6.09-3,0-6,.54-8.95.54-1.93-2.19-4.27-3-6.26-4.66-5.05-1-8.79-5.12-13.55-7.35,1.85,4.17,5.54,4.48,7.93,7a16.85,16.85,0,0,0,1.15,5.2,21.19,21.19,0,0,1,7.41,1.43c1.84.22,3.81.06,5.37.72a30.91,30.91,0,0,1,2,3.58,12,12,0,0,1,4.09.36,27.82,27.82,0,0,1-4.48,1.26c-2.88-2.16-4.66-4.07-8.05-5,2.37.82,3.64,4.21,5.24,6.45a28.59,28.59,0,0,0,8.18-.18c1.25.25,2.32,1.47,3.2,2.15-1.75-.31-1.89-.19-4.48.9,5.46,1.32,10.39-1.37,15.09-2.69.36,0,22.58,13,25.78,12.82-5-3.18-28.49-21-31-26.34-4.83-1.35-11.09-4.91-17.49-10.29-4.8-3.74-6.37-6.82-11-10.3-.7,0,0,0-4.75-3-1.46-1.23-4.26-4.4-6.27-5.15,0,0-2.33.15-3-.3a12.94,12.94,0,0,1-5.4-4.84Z"/><path id="path5015" class="cls-34" d="M187,177.63c-2.55-.29-31.49-20.89-33.2-23-1-.89-.78-1.88-1.22-2.93-2.45-.78-3.37-2.95-4.53-5.86a6.65,6.65,0,0,0-4.18-2.93,18.38,18.38,0,0,0-.69-2.44c-.32.55-.58,1.14-.87,1.71-3.48-1.66-5-5.41-5.92-10h0c1.1,3.3,3.64,3.46,5.22,5.13a5.06,5.06,0,0,0,.35-1.71c2,.79,3.48,2.74,5.57,3.91a17.24,17.24,0,0,0-1.57.73c.75,3.23,2.31,4.19,4,5.61.06-.32.11-.65.17-1,1.64.11,1.92,1.47,3.14,3.17a10.27,10.27,0,0,0,1-1.95c3.39,3.64,6.6,7.18,9.75,10.49-1.79.69,23.92,19.82,22.93,21"/><path id="path5336" class="cls-40" d="M6,176.51a124.09,124.09,0,0,0,12.55-23.25c-1.12.57-2.29.75-3.36,1.26,1.5-3.17,3.36-6.51,5.82-8.49,2.22-3.55,4.72-6,7.18-9.42-3.88,1.63-9.59,2.51-4.49-5.34,3.89-1.82,6.07-.86,7.62-6.28,2.65-2.48,6.16-3.53,9.19-6.29-.57-.16-1.15-.34-1.74-.52-.14.15-.29.31-.44.45a1.17,1.17,0,0,1-.83-.84h0l-1.69-.55a11.87,11.87,0,0,0-1.37,1.7h-1.3c-2.21-.38-2.88.84-4.53,2.12-4.12-.72-6.66-2.64-10.59-3.64a5.22,5.22,0,0,0-1.67-.28h0c-1.56,0-2.82.76-4.37,1.19C8.47,121.47,5.66,122,1.43,122L1,218.85"/><path id="path5043" class="cls-40" d="M27,150.74c2.7-4,3-7.12,3.66-8.29,1.18-4.58,3.81-5.14,6.27-7.82a45.78,45.78,0,0,1,3.66-8.54h1.74c2.82-2.78,4.93-5.49,5.57-10,2.57-7.1,7.7-7.94,12.19-10.74a39.2,39.2,0,0,0-5.57,7.81,4.75,4.75,0,0,0,.34,1.47c.92.28,1.42-.33,2.09-.49a27.65,27.65,0,0,1,0,4.64,32.46,32.46,0,0,1-4.87,1c-3.17,1-5.7,3.06-8.19,6.11,1.17,1.05.88,2.07.88,3.9a34.82,34.82,0,0,1-4.71,7.57A6.78,6.78,0,0,0,41,141c-1,5.45-4.35,9.76-5.74,14.65-.16-4.17-.46-9.4.35-13.18-1-.57-1.87,0-2.79.24C31.88,146.69,28.85,148.21,27,150.74Z"/><path id="path5045" class="cls-40" d="M71.45,140c1.93-1.81,3.62-4.81,4.87-7.07,1.26-2.74,2.65-5.52,3.66-8.06a24.64,24.64,0,0,0,4.35-4.15c-1.66,3.86-2.82,7.48-4.53,11.23-3.35,5.5-6,11.56-9,18.31.64-4.12,2.24-6.56,3.13-10.74C72.72,140.8,72.7,140.18,71.45,140Z"/><path id="path5047" class="cls-40" d="M73,152.45a89.49,89.49,0,0,0,6.27-9.76c1.8-1.88,2.74-4.32,3.83-7.08a56.6,56.6,0,0,0,4.18-4.88c-1,2.1-1.5,4-2.26,5.61,1.62-.93,2.35-1.87,3.66-2.68-.11.77-.24,1.47-.35,2.19-5.62,3.87-12.83,15.9-15.33,16.6Z"/><path id="path5049" class="cls-40" d="M49,163.93c1-2.61,2.11-4.64,3-7.33,1-.3.36-1.32.53-1.95a34.88,34.88,0,0,0,5.74-9.76c3.28-4.26,5.21-11.31,6.45-17.09A13.78,13.78,0,0,0,60,133.17c1.84-7,8.2-9.22,11-14.4-.43-1.87-1.47-2.71-2.43-3.91-3.25,5-11.44,11.48-14.28,16.6,4.21-8.05,10.32-14.42,12.54-18.06,5.92-2.92,9.53-18.79,15.32-16.36,0,2.45-.07,4.89-.18,7.33.35,1.16.63,2.25.88,3.41-6.49,5.36-9.62,12.53-12,17.58-.83,2.65-1.7,4.69-2.26,7.32-5,4.78-6.93,12.89-11,18.55A18.74,18.74,0,0,0,52.64,160c.24,1.37,1.11,1.73,1.57,2.44,3.69,2.64-8.46,10.69-11,12.45"/><path id="path5051" class="cls-40" d="M45.15,142.2c2.52-3.07,4.61-7.86,7.67-9.76a60.47,60.47,0,0,1-3.14,7.81c-4,5.22-7.43,11.63-10.88,16.23C40.8,150.86,42.44,145.62,45.15,142.2Z"/><path id="path5060" class="cls-40" d="M35.92,170c1.83-3.45,2.8-7.17,4.18-10.5h0c4.12-4.32,7.27-9,10.8-13.91-.78,3.27-2,5.37-2.61,8.3,1.42-1.2,2.68-2.63,4-3.66-3.78,7.21-4.37,15.34-9.75,19.52"/><path id="path5062" class="cls-40" d="M29.83,165.63c3.56-1.93,5.27-5.91,7.84-9.52.35,3-.69,5.08-1.4,7.57"/><path id="path5392" class="cls-40" d="M53.59,137.41c.31,3.2,1.14,2.6,2.76,3.87-2.45,5.58-4.13,12.82-5.52,17.18,6.1-12.87,16.48-21.21,12.11-31.79-3,4.67-6.49,6.74-9.35,10.74Z"/><path id="path5248" class="cls-41" d="M76.24,162.18c8.47-7.49,7.51-6.8,11.9-10.42,8.26-4.17,11.44-2.69,15.39-4.12a9.44,9.44,0,0,1,4.68,2.85c-2.54.26-3.08,1.19-5.29,1.9-3.8-.14-8.69.65-10.93,2-4.31,2.57-5.46,4.83-8.78,5.31Z"/><path id="path5085" class="cls-42" d="M70.76,166.08c2-2.81,3.93-3.44,6-4.64,3.22-.22,5.24-2.63,7.52-4.26,2.32-1.14,4.33-3.35,6-5,1.74.49,3.08-.41,4.51-.77a25.94,25.94,0,0,1,7.52-1.17c1.75-.16,2-.94,3.31-1.54,4.36,2.22,7.24,4.88,12.33,6.19,3.9,4.16,8.37,5.9,12,8.52"/><path id="path5105" class="cls-30" d="M105.34,164.54c-5-3.6-8.73-8.92-15.33-9.29-.69-.25-1.43-.45-2.18-.65a15.81,15.81,0,0,1-3.53,2.58c-2.28,1.63-4.3,4-7.52,4.26-2.09,1.19-4,1.83-6,4.64"/><path id="path5105-2" data-name="path5105" class="cls-30" d="M114.37,164.54c-.52-.93-2.37-2.14-2.41-4.26h-3.31c1.56,4.4.54-2.1,1.51,4.26"/><path id="path5100" class="cls-43" d="M130,163.38c-3.65-2.62-8.12-4.36-12-8.52-.21-.05-.39-.12-.58-.18-.27,2.36-1.47,4.13-2.43,6.37,3.74,1.79,7.28,6.27,9.62,8.91"/><path id="path5092" class="cls-44" d="M103.84,158.34a30.41,30.41,0,0,0-2.4-7c-4.22-1-8.5,1.93-12,1.93C94.24,153.36,101.84,157.2,103.84,158.34Z"/><path id="path5094" class="cls-44" d="M124.59,163c-3.09-2.22-4.92-5.2-6.92-8.13-4.09-2.11-8.33-2.78-12-5.42,0,2.44,1.29,4.71,2.1,7l1.5-1.94c2.66.13,4.2,4,5.72,6.58a21.46,21.46,0,0,1,6,2.71"/><path id="path5484" class="cls-45" d="M190.25,170.88c.38-7.45-1.15-11.46-1.81-18h0a68.86,68.86,0,0,0,8.12-1.8c3.25,11.18-2.61,16-3.61,28"/><path id="path5486" class="cls-46" d="M183.39,170.75v-12c-.1-6.61-2.11-7.05-6.33-10.92l7.74,1.06c-.33,3.58,1.39,4.63,2.12,7a136.82,136.82,0,0,0-3.53,14.79"/><path id="path5488" class="cls-47" d="M215.08,167.23c-5.13-4.27-8.16-10.84-11.26-15.5h0c3.43,1.1,8.42,5.09,9.15,5.64,3.17,2.37,6.27,2.41,9.16,3.52,3.05,6.39,2.21,9.68,3.52,16.19"/><path id="path7340" class="cls-48" d="M158.39,163.51c0-1.2.68-1.9,1.23-2.89,2.2,1,4.27,3.06,6.34,4.45"/><path id="path7342" class="cls-49" d="M211.34,164a59.23,59.23,0,0,0-3.88-4.92c-1.75-2-3.16-5.17-5.13-6.5,1.12,8.73-4.6,17.26-4.6,25.65"/><path id="path5738" class="cls-50" d="M21,149c.15,0,.38.32.7,1.08,1.8.2,1.55,5.34,1.7,7,.2,1.88.3,3.8.57,5.69a19.29,19.29,0,0,0,4.56,1.47c1.06,1.44-.32,1.9-1.63,1.79,1.07,1.52-.36,2-1.87,1.38A6,6,0,0,0,27.56,169c0,1.33-1.08,1.13-2,1.06a11.36,11.36,0,0,0,3.5,3.82c.33,1.93-1.58,1.33-2.6.65a6.09,6.09,0,0,1,1,3.91,1,1,0,0,1,.17.1,1.38,1.38,0,0,1,1.67-.54c.12-.67.22-1.34.37-2,0-.13-2.41-.65.36-1.55.55-.24,1-.74,1.71-.79A2.4,2.4,0,0,1,32.77,172c-3.27,0,.19-2.53,2-1.5a4,4,0,0,0-.13-1.5c-3,0-2-1.54.26-2.13.1-1.07,0-1.59,1.12-2.25a13.82,13.82,0,0,0-.12-1.87c0-1.17-.22-1.67,1-1.5-.4-1.47-.82-2.66-.12-4.13.28-.63.52-.9.74-.9.94,0,1.31,4.84,1.39,6.15a1.88,1.88,0,0,1-.13,2,5.07,5.07,0,0,1,.75,4.25,8.19,8.19,0,0,0,1.88,1,15.2,15.2,0,0,0,1.51.38c.35,1.68,0,2.42-1.76,2.25,1.52,1.38,2.89.38,3.26,2.25-.42,1.81-1,1.9-2.5,1.62-.79-.08-.93-.58-1.38-.87.27,1.67.55,2.72-.47,2.75a6.16,6.16,0,0,1-.91-.12,3.14,3.14,0,0,0,.91.12c2,.14,3.17-.59,2.47,2.88a4.67,4.67,0,0,1-2.13-.38c1.55.71,1.2,1.8,1.13,2.48-.16-.08-.19-.08,0,0v0a5.89,5.89,0,0,1,2,1.78c.15-1.09.52-1.95,1.83-1.5.07-.26-.76-1.4,1.4-1.52-.94-.18-1.73,0-2.1-.93.47-1.19,1.77-2.49,3-2.34a4,4,0,0,1,.23-1.64c-2,1.3-2.7-.46-1.05-1.75-.46-.57-1.25.31-.94-1.17.69-.38.82-1.07,2.22-.12a7.58,7.58,0,0,0,.12-1.87c-1.28.13-2.29.16-1.63-1.41a4.91,4.91,0,0,1,2.22-.81c.06-.31.63-1.06.35-1.64-.22-.17-1-.08-.94-.7.13-1.3.28-1.39,1.64-1.29,0-2.08-.58-4.37.82-5.85.75.76,1.24,3.42.94,6,.15.75.51,1.51-.24,2.34a3.4,3.4,0,0,0,.58,2c.26.22.9,0,.82.71-.07.35.19.77-.23,1,.47.3,1.17-.25,1.29.82a2.4,2.4,0,0,1-1.64,1.63c0,.43-.42.82-.12,1.29.31,0,.66-.13.94.12.06.3.94,1-.24,2.11,1.07.59,1.7.8,1.41,2.69,1.78.53,2,1.12.7,2.45,2.32,0,2.7,2.08.47,2.69A2.9,2.9,0,0,1,53,186c-.5.06-1-.35-1.28-.46a10.85,10.85,0,0,1,0,3.27c.77.36,1.58.71,2.34,1.05,2.14-.37,2.26.25,1.75,1.53,1.67.44,2.37,2.52.35,2.92a4.35,4.35,0,0,1-1.4-1.4,11.94,11.94,0,0,1,0,3.27c-1.65,2.81-8.92,1-11.93.35-.12-.3-.2-.54-.27-.77-3.69,2.63-10.73,5-15.44,4a14.26,14.26,0,0,1,0-1.73c-4.23-.08-9,.67-12.84.35-.66,1.65-4.35-1.75-6.18-1.54-1.4.15-4,.73-6.12,1.2V175a0,0,0,0,0,0,0s0,0,0-.08v-5a1.29,1.29,0,0,1,.91-.25A2.3,2.3,0,0,1,3,168c1-.46,1.08.09,1.06,1.63,1.08,1.08-.77,2.67.32,2.85,1.07.93.39,3.2.41,4.72.33.29.84.48.9,1A4.76,4.76,0,0,1,8,176.82c-3-1.33-.2-3.64,2-3a4,4,0,0,1,.08-1.14,5.78,5.78,0,0,0-.41-1.06c-.14-1.39.29-2.59,1.95-2.85-.45-.82-1.51-2.7.33-2.19-.49-4.92,1.34-5.32,1.22-.25a16.71,16.71,0,0,1,.57,2.12c1.66-.17,1.12,1.3-.08,2.12,1,.66,1.17,1.07.81,2.27a12.24,12.24,0,0,1,2.69.41,1.86,1.86,0,0,0,.73-1.79c-1.1-.6-1.29-1-.49-2-2.85,0,.88-4.35,2.85-3.1,0,0-.3-.63,0-.73s1.24-.31,1.71-.49a16.4,16.4,0,0,1-.08-3.9c-1.36-.12-.46-.94-1.71-1.06a2.26,2.26,0,0,1-2.2-.57c.42-1.14,1.65-.83,2.93-1.14,0-.24-.1-1.26-.08-1.79-.38-.51-.86-.92.65-.73,0-1.62-.25-3.2-.32-4.8C20.77,150.24,20.7,148.92,21,149Zm23,36.75c.18.38.33.76.46,1.12a6.15,6.15,0,0,1,1.47-.75C45,186.09,44.42,186.17,44,185.72Z"/><rect class="cls-51" y="200" width="451" height="136"/></g></g></svg>