<?xml version="1.0" encoding="utf-8"?>
<!-- Generator: Adobe Illustrator 16.0.0, SVG Export Plug-In . SVG Version: 6.00 Build 0)  -->
<!DOCTYPE svg PUBLIC "-//W3C//DTD SVG 1.1//EN" "http://www.w3.org/Graphics/SVG/1.1/DTD/svg11.dtd">
<svg version="1.1" id="Layer_1" xmlns:sketch="http://www.bohemiancoding.com/sketch/ns"
	 xmlns="http://www.w3.org/2000/svg" xmlns:xlink="http://www.w3.org/1999/xlink" x="0px" y="0px" width="24px" height="24px"
	 viewBox="0 0 24 24" enable-background="new 0 0 24 24" xml:space="preserve">
<title></title>
<desc></desc>
<g id="miu">
	<g id="Artboard-1" transform="translate(-755.000000, -659.000000)">
		<g id="slice" transform="translate(215.000000, 119.000000)">
		</g>
		<path id="circle-social-email-glyph" d="M767,683c6.627,0,12-5.377,12-12.01c0-6.632-5.373-12.01-12-12.01
			c-6.627,0-12,5.377-12,12.01C755,677.623,760.373,683,767,683z M761.304,666.623h11.391L767,671.386L761.304,666.623z
			 M773.546,667.334v7.254l-4.35-3.626L773.546,667.334z M772.766,675.356h-11.532l4.416-3.69l1.351,1.126l1.352-1.126
			L772.766,675.356z M760.455,674.588v-7.254l4.349,3.627L760.455,674.588z"/>
	</g>
</g>
</svg>
