<?xml version="1.0" encoding="utf-8"?>
<!-- Generator: Adobe Illustrator 16.0.0, SVG Export Plug-In . SVG Version: 6.00 Build 0)  -->
<!DOCTYPE svg PUBLIC "-//W3C//DTD SVG 1.1//EN" "http://www.w3.org/Graphics/SVG/1.1/DTD/svg11.dtd">
<svg version="1.1" id="Layer_1" xmlns="http://www.w3.org/2000/svg" xmlns:xlink="http://www.w3.org/1999/xlink" x="0px" y="0px"
	 width="200px" height="200px" viewBox="0 0 200 200" enable-background="new 0 0 200 200" xml:space="preserve">
<circle fill="#A4B8C4" cx="100" cy="100" r="99"/>
<g>
	<g>
		<g>
			<g>
				<path fill="#383E47" d="M74.373,176.863c0,1.872-1.454,3.389-3.247,3.389l0,0c-1.793,0-3.248-1.517-3.248-3.389v-8.283
					c0-1.871,1.454-3.388,3.248-3.388l0,0c1.793,0,3.247,1.517,3.247,3.388V176.863z"/>
			</g>
		</g>
		<g>
			<g>
				<path fill="#383E47" d="M132.123,176.863c0,1.872-1.454,3.389-3.248,3.389l0,0c-1.793,0-3.246-1.517-3.246-3.389v-8.283
					c0-1.871,1.453-3.388,3.246-3.388l0,0c1.794,0,3.248,1.517,3.248,3.388V176.863z"/>
			</g>
		</g>
	</g>
	<g>
		<path fill="#FFFFFF" stroke="#999999" stroke-miterlimit="10" d="M140.065,169.053c0,2.662-2.179,4.841-4.841,4.841H64.776
			c-2.662,0-4.841-2.179-4.841-4.841V29.921c0-2.662,2.179-4.84,4.841-4.84h70.448c2.662,0,4.841,2.178,4.841,4.84V169.053z"/>
	</g>
	<g>
		<path fill="#EDEDED" d="M132.179,69.891c0,1.664-1.362,3.026-3.024,3.026H69.212c-1.664,0-3.025-1.362-3.025-3.026V36.048
			c0-1.664,1.361-3.025,3.025-3.025h59.942c1.662,0,3.024,1.361,3.024,3.025V69.891z"/>
	</g>
	<g>
		<path fill="#EDEDED" d="M132.179,162.861c0,1.664-1.362,3.024-3.024,3.024H69.212c-1.664,0-3.025-1.36-3.025-3.024V83.574
			c0-1.664,1.361-3.026,3.025-3.026h59.942c1.662,0,3.024,1.362,3.024,3.026V162.861z"/>
	</g>
	<g>
		<path fill="#C7C7C7" d="M126.897,59.649c0,1.041-0.843,1.885-1.884,1.885l0,0c-1.04,0-1.884-0.844-1.884-1.885V46.29
			c0-1.041,0.844-1.884,1.884-1.884l0,0c1.041,0,1.884,0.844,1.884,1.884V59.649z"/>
	</g>
	<g>
		<path fill="#C7C7C7" d="M126.897,111.863c0,1.041-0.843,1.885-1.884,1.885l0,0c-1.04,0-1.884-0.844-1.884-1.885V98.505
			c0-1.041,0.844-1.885,1.884-1.885l0,0c1.041,0,1.884,0.844,1.884,1.885V111.863z"/>
	</g>
</g>
</svg>
