<?xml version="1.0" encoding="utf-8"?>
<!-- Generator: Adobe Illustrator 16.0.0, SVG Export Plug-In . SVG Version: 6.00 Build 0)  -->
<!DOCTYPE svg PUBLIC "-//W3C//DTD SVG 1.1//EN" "http://www.w3.org/Graphics/SVG/1.1/DTD/svg11.dtd">
<svg version="1.1" id="Layer_1" xmlns="http://www.w3.org/2000/svg" xmlns:xlink="http://www.w3.org/1999/xlink" x="0px" y="0px"
	 width="67px" height="67px" viewBox="0 0 67 67" enable-background="new 0 0 67 67" xml:space="preserve">
<path fill="#010101" d="M52.203,49.271V36.179c0-7.013-3.734-10.277-8.711-10.277c-4.017,0-5.816,2.217-6.82,3.771v-3.235h-7.568
	c0.101,2.142,0,22.832,0,22.832h7.568V36.519c0-0.681,0.048-1.362,0.25-1.85c0.547-1.364,1.79-2.775,3.88-2.775
	c2.741,0,3.835,2.093,3.835,5.162v12.216L52.203,49.271L52.203,49.271z M21.132,23.322c2.638,0,4.281-1.754,4.281-3.947
	c-0.049-2.238-1.643-3.943-4.231-3.943c-2.587,0-4.281,1.704-4.281,3.943c0,2.192,1.644,3.947,4.184,3.947H21.132z M33.438,67
	C14.972,67,0,51.986,0,33.469C0,14.949,14.972-0.062,33.438-0.062c18.467,0,33.438,15.012,33.438,33.531
	C66.875,51.986,51.904,67,33.438,67z M24.915,49.271V26.438h-7.567v22.832H24.915z"/>
</svg>
