<?xml version="1.0" encoding="utf-8"?>
<!-- Generator: Adobe Illustrator 16.0.0, SVG Export Plug-In . SVG Version: 6.00 Build 0)  -->
<!DOCTYPE svg PUBLIC "-//W3C//DTD SVG 1.1//EN" "http://www.w3.org/Graphics/SVG/1.1/DTD/svg11.dtd">
<svg version="1.1" id="Layer_1" xmlns="http://www.w3.org/2000/svg" xmlns:xlink="http://www.w3.org/1999/xlink" x="0px" y="0px"
	 width="200px" height="200px" viewBox="0 0 200 200" enable-background="new 0 0 200 200" xml:space="preserve">
<pattern  x="-24.5" y="200.5" width="34.287" height="34.287" patternUnits="userSpaceOnUse" id="XMLID_10_" viewBox="0 -34.287 34.287 34.287" overflow="visible">
	<g>
		<polygon fill="none" points="0,0 34.287,0 34.287,-34.287 0,-34.287 		"/>
		<g>
			<polygon fill="none" points="0,-34.287 34.287,-34.287 34.287,0 0,0 			"/>
			<g>
				<polygon fill="none" points="0,0 34.287,0 34.287,-34.287 0,-34.287 				"/>
				<g>
					<polygon fill="#C6C5CA" points="34.287,0 0,0 0,-34.287 34.287,-34.287 					"/>
				</g>
			</g>
		</g>
	</g>
</pattern>
<pattern  x="-24.5" y="200.5" width="34.287" height="34.287" patternUnits="userSpaceOnUse" id="XMLID_11_" viewBox="0 -34.287 34.287 34.287" overflow="visible">
	<g>
		<polygon fill="none" points="0,0 34.287,0 34.287,-34.287 0,-34.287 		"/>
		<g>
			<polygon fill="none" points="0,-34.287 34.287,-34.287 34.287,0 0,0 			"/>
			<g>
				<polygon fill="none" points="0,0 34.287,0 34.287,-34.287 0,-34.287 				"/>
				<g>
					<polygon fill="#C6C5CA" points="34.287,0 0,0 0,-34.287 34.287,-34.287 					"/>
				</g>
			</g>
		</g>
	</g>
</pattern>
<pattern  x="-24.5" y="200.5" width="34.287" height="34.287" patternUnits="userSpaceOnUse" id="XMLID_4_" viewBox="0 -34.287 34.287 34.287" overflow="visible">
	<g>
		<polygon fill="none" points="0,0 34.287,0 34.287,-34.287 0,-34.287 		"/>
		<g>
			<polygon fill="none" points="0,-34.287 34.287,-34.287 34.287,0 0,0 			"/>
			<g>
				<polygon fill="none" points="0,0 34.287,0 34.287,-34.287 0,-34.287 				"/>
				<g>
					<polygon fill="#D8D7DA" points="34.287,0 0,0 0,-34.287 34.287,-34.287 					"/>
				</g>
			</g>
		</g>
	</g>
</pattern>
<pattern  x="-24.5" y="200.5" width="34.287" height="34.287" patternUnits="userSpaceOnUse" id="XMLID_5_" viewBox="0 -34.287 34.287 34.287" overflow="visible">
	<g>
		<polygon fill="none" points="0,0 34.287,0 34.287,-34.287 0,-34.287 		"/>
		<g>
			<polygon fill="none" points="0,-34.287 34.287,-34.287 34.287,0 0,0 			"/>
			<g>
				<polygon fill="none" points="0,0 34.287,0 34.287,-34.287 0,-34.287 				"/>
				<g>
					<polygon fill="#C6C5CA" points="34.287,0 0,0 0,-34.287 34.287,-34.287 					"/>
				</g>
			</g>
		</g>
	</g>
</pattern>
<pattern  x="-24.5" y="200.5" width="34.287" height="34.287" patternUnits="userSpaceOnUse" id="XMLID_6_" viewBox="0 -34.287 34.287 34.287" overflow="visible">
	<g>
		<polygon fill="none" points="0,0 34.287,0 34.287,-34.287 0,-34.287 		"/>
		<g>
			<polygon fill="none" points="0,-34.287 34.287,-34.287 34.287,0 0,0 			"/>
			<g>
				<polygon fill="none" points="0,0 34.287,0 34.287,-34.287 0,-34.287 				"/>
				<g>
					<polygon fill="#ADACB2" points="34.287,0 0,0 0,-34.287 34.287,-34.287 					"/>
				</g>
			</g>
		</g>
	</g>
</pattern>
<pattern  x="-24.5" y="200.5" width="34.287" height="34.287" patternUnits="userSpaceOnUse" id="XMLID_7_" viewBox="0 -34.287 34.287 34.287" overflow="visible">
	<g>
		<polygon fill="none" points="0,0 34.287,0 34.287,-34.287 0,-34.287 		"/>
		<g>
			<polygon fill="none" points="0,-34.287 34.287,-34.287 34.287,0 0,0 			"/>
			<g>
				<polygon fill="none" points="0,0 34.287,0 34.287,-34.287 0,-34.287 				"/>
				<g>
					<polygon fill="#ADACB2" points="34.287,0 0,0 0,-34.287 34.287,-34.287 					"/>
				</g>
			</g>
		</g>
	</g>
</pattern>
<pattern  x="-24.5" y="200.5" width="34.287" height="34.287" patternUnits="userSpaceOnUse" id="XMLID_8_" viewBox="0 -34.287 34.287 34.287" overflow="visible">
	<g>
		<polygon fill="none" points="0,0 34.287,0 34.287,-34.287 0,-34.287 		"/>
		<g>
			<polygon fill="none" points="0,-34.287 34.287,-34.287 34.287,0 0,0 			"/>
			<g>
				<polygon fill="none" points="0,0 34.287,0 34.287,-34.287 0,-34.287 				"/>
				<g>
					<polygon fill="#C6C5CA" points="34.287,0 0,0 0,-34.287 34.287,-34.287 					"/>
				</g>
			</g>
		</g>
	</g>
</pattern>
<pattern  x="-24.5" y="200.5" width="34.287" height="34.287" patternUnits="userSpaceOnUse" id="XMLID_9_" viewBox="0 -34.287 34.287 34.287" overflow="visible">
	<g>
		<polygon fill="none" points="0,0 34.287,0 34.287,-34.287 0,-34.287 		"/>
		<g>
			<polygon fill="none" points="0,-34.287 34.287,-34.287 34.287,0 0,0 			"/>
			<g>
				<polygon fill="none" points="0,0 34.287,0 34.287,-34.287 0,-34.287 				"/>
				<g>
					<polygon fill="#ADACB2" points="34.287,0 0,0 0,-34.287 34.287,-34.287 					"/>
				</g>
			</g>
		</g>
	</g>
</pattern>
<g id="XMLID_23_">
	<g id="XMLID_24_">
		<pattern  id="XMLID_12_" xlink:href="#XMLID_4_" patternTransform="matrix(1 0 0 1 -524.0938 16453.0742)">
		</pattern>
		<path id="XMLID_168_" fill="url(#XMLID_12_)" d="M39.117,169.141l-5.008,7.132c5.392,3.771,12.07,4.359,17.813,2.175l-3.692,7.887
			l0,0c5.973,2.771,12.655,2.192,17.942-0.953l-2.276,8.399c6.369,1.689,12.855-0.038,17.52-4.056l-0.783,8.66
			c6.573,0.557,12.668-2.269,16.569-7.029l0.732,8.655c6.574-0.597,12.093-4.437,15.113-9.794l2.226,8.386
			c6.379-1.728,11.149-6.461,13.196-12.259l3.649,7.864l0,0c5.99-2.805,9.871-8.294,10.883-14.351l4.962,7.102
			c5.416-3.798,8.29-9.874,8.235-16.007l6.129,6.126l0,0c4.679-4.683,6.457-11.154,5.338-17.181l7.104,4.963
			c3.799-5.417,4.429-12.094,2.281-17.826l7.864,3.649c2.806-5.99,2.266-12.669-0.852-17.937l8.387,2.225
			c1.729-6.379,0.037-12.855-3.949-17.497l8.654,0.732l0,0c0.596-6.575-2.195-12.654-6.932-16.526l8.658-0.783
			c-0.556-6.574-4.363-12.068-9.705-15.058l8.399-2.272c-1.689-6.371-6.397-11.113-12.183-13.126l7.885-3.696l0,0
			c-2.771-5.97-8.234-9.822-14.287-10.795l7.132-5.005c-3.769-5.395-9.823-8.232-15.959-8.143l6.161-6.162l0,0
			c-4.652-4.653-11.114-6.393-17.149-5.237l5.006-7.133l0,0c-5.395-3.769-12.069-4.359-17.814-2.175l3.693-7.887
			c-5.973-2.772-12.654-2.191-17.94,0.954l2.273-8.399c-6.369-1.689-12.856,0.04-17.521,4.054l0.784-8.659l-0.001,0
			c-6.57-0.556-12.665,2.272-16.567,7.031l-0.731-8.653l0,0c-6.576,0.595-12.094,4.434-15.114,9.792L83.018,1.94l0,0
			C76.639,3.666,71.867,8.402,69.82,14.198l-3.65-7.865c-5.989,2.807-9.871,8.294-10.882,14.352l-4.962-7.102l0,0
			c-5.417,3.8-8.292,9.875-8.236,16.01l-6.126-6.126c-4.68,4.68-6.459,11.153-5.337,17.179l-7.104-4.963
			c-3.802,5.417-4.432,12.094-2.281,17.829l-7.863-3.652c-2.807,5.99-2.269,12.669,0.846,17.936l-8.383-2.226
			c-1.728,6.379-0.038,12.856,3.949,17.499l-8.654-0.733C0.542,88.91,3.335,94.988,8.07,98.86l-8.66,0.785l0,0
			c0.559,6.572,4.364,12.068,9.707,15.054l-8.401,2.275l0,0c1.69,6.369,6.396,11.113,12.182,13.126l-7.887,3.695
			c2.771,5.973,8.237,9.822,14.289,10.798l-7.13,5.003l0,0c3.768,5.396,9.824,8.233,15.958,8.143l-6.164,6.163
			C26.619,168.557,33.081,170.296,39.117,169.141z M89.1,92.672l-20.77-20.77c-1.897,0.841-4.185,0.503-5.732-1.043
			c-2.01-2.01-2.001-5.28,0.022-7.303c2.021-2.022,5.291-2.033,7.302-0.021c1.474,1.473,1.851,3.624,1.155,5.463l20.906,20.906
			c4.938-3.434,11.749-2.979,16.128,1.399c4.442,4.442,4.841,11.393,1.238,16.345l20.57,20.571c1.896-0.844,4.184-0.505,5.731,1.043
			c2.008,2.008,1.999,5.278-0.022,7.3c-2.019,2.023-5.29,2.034-7.301,0.023c-1.474-1.475-1.853-3.624-1.155-5.462l-20.648-20.648
			c-4.953,3.604-11.9,3.206-16.345-1.239C85.668,104.728,85.322,97.638,89.1,92.672z"/>
		<g id="XMLID_25_">
			<pattern  id="XMLID_13_" xlink:href="#XMLID_5_" patternTransform="matrix(1 0 0 1 -524.0938 16453.0742)">
			</pattern>
			<path id="XMLID_164_" fill="url(#XMLID_13_)" d="M62.621,63.559c2.021-2.023,5.29-2.033,7.302-0.021
				c1.474,1.474,1.851,3.625,1.154,5.463l20.906,20.906c4.938-3.435,11.749-2.979,16.128,1.398
				c4.443,4.443,4.842,11.394,1.238,16.346l20.57,20.57c1.896-0.844,4.185-0.504,5.732,1.045c2.009,2.009,2,5.278-0.022,7.301
				c-0.032,0.032-0.072,0.052-0.105,0.083l24.678,24.679c33.92-33.92,34.08-88.752,0.359-122.474
				C126.84,5.134,72.007,5.295,38.086,39.214l24.449,24.448C62.565,63.629,62.588,63.592,62.621,63.559z"/>
		</g>
		<pattern  id="XMLID_14_" xlink:href="#XMLID_6_" patternTransform="matrix(1 0 0 1 -524.0938 16453.0742)">
		</pattern>
		<path id="XMLID_162_" fill="url(#XMLID_14_)" d="M160.2,161.328l-24.677-24.68c-2.031,1.928-5.219,1.914-7.197-0.064
			c-1.475-1.474-1.855-3.622-1.155-5.464l-20.647-20.647c-4.953,3.604-11.902,3.206-16.346-1.238
			c-4.51-4.511-4.855-11.599-1.079-16.564L68.331,71.902c-1.898,0.842-4.185,0.503-5.731-1.044
			c-1.979-1.979-1.993-5.167-0.064-7.197L38.086,39.212c-33.919,33.919-34.08,88.754-0.358,122.476
			C71.447,195.409,126.28,195.249,160.2,161.328z"/>
		<g id="XMLID_163_">
			<pattern  id="XMLID_15_" xlink:href="#XMLID_7_" patternTransform="matrix(1 0 0 1 -524.0938 16453.0742)">
			</pattern>
			<path id="XMLID_170_" fill="url(#XMLID_15_)" d="M27.975,100.028c0.114-39.203,32.101-71.188,71.303-71.303
				s71,31.684,70.887,70.888c-0.114,39.2-32.104,71.189-71.304,71.305C59.659,171.028,27.861,139.229,27.975,100.028z
				 M167.151,99.619c0.111-37.541-30.342-67.994-67.882-67.882c-37.541,0.11-68.172,30.741-68.282,68.282
				C30.877,137.56,61.331,168.014,98.87,167.9C136.409,167.791,167.04,137.16,167.151,99.619z"/>
		</g>
		<pattern  id="XMLID_16_" xlink:href="#XMLID_8_" patternTransform="matrix(1 0 0 1 -524.0938 16453.0742)">
		</pattern>
		<path id="XMLID_197_" fill="url(#XMLID_16_)" d="M98.861,170.915c19.505-0.058,37.22-8.011,50.118-20.809l-2.125-2.124
			c-12.348,12.253-29.31,19.863-47.984,19.919c-37.541,0.111-67.994-30.342-67.883-67.883c0.054-18.675,7.667-35.635,19.92-47.985
			l-2.123-2.124C35.984,62.807,28.03,80.521,27.975,100.026C27.861,139.229,59.659,171.028,98.861,170.915z"/>
	</g>
	<pattern  id="XMLID_17_" xlink:href="#XMLID_9_" patternTransform="matrix(1 0 0 1 -524.0938 16453.0742)">
	</pattern>
	<path id="XMLID_201_" fill="url(#XMLID_17_)" d="M125.413,74.972l2.355-2.355l2.342,2.342c0.79,0.789,2.072,0.785,2.867-0.01
		s0.798-2.078,0.01-2.867l-2.343-2.342l2.356-2.356c0.794-0.794,0.798-2.078,0.008-2.869c-0.788-0.789-2.074-0.786-2.867,0.01
		l-2.355,2.356l-2.342-2.342c-0.79-0.79-2.072-0.786-2.868,0.008c-0.794,0.794-0.798,2.079-0.009,2.868l2.342,2.342l-2.355,2.355
		c-0.794,0.794-0.797,2.078-0.009,2.868C123.335,75.771,124.618,75.767,125.413,74.972z"/>
	<pattern  id="XMLID_18_" xlink:href="#XMLID_10_" patternTransform="matrix(1 0 0 1 -524.0938 16453.0742)">
	</pattern>
	<path id="XMLID_3_" fill="url(#XMLID_18_)" d="M63.855,130.812l5.199,5.2c0.791,0.789,2.072,0.787,2.866-0.007
		c0.794-0.794,0.798-2.078,0.009-2.867l-5.2-5.2"/>
	<pattern  id="XMLID_19_" xlink:href="#XMLID_11_" patternTransform="matrix(1 0 0 1 -524.0938 16453.0742)">
	</pattern>
	<path id="XMLID_2_" fill="url(#XMLID_19_)" d="M66.732,127.936l-2.345-2.339c-0.788-0.793-2.074-0.787-2.866,0.007
		c-0.796,0.795-0.797,2.076-0.007,2.866l2.342,2.343"/>
	<line fill="none" x1="66.732" y1="127.936" x2="69.59" y2="130.795"/>
	<line fill="none" x1="66.714" y1="133.671" x2="63.855" y2="130.812"/>
</g>
</svg>
