<?xml version="1.0" encoding="utf-8"?>
<!-- Generator: Adobe Illustrator 16.0.0, SVG Export Plug-In . SVG Version: 6.00 Build 0)  -->
<!DOCTYPE svg PUBLIC "-//W3C//DTD SVG 1.1//EN" "http://www.w3.org/Graphics/SVG/1.1/DTD/svg11.dtd">
<svg version="1.1" id="Слой_1" xmlns="http://www.w3.org/2000/svg" xmlns:xlink="http://www.w3.org/1999/xlink" x="0px" y="0px"
	 width="32px" height="32px" viewBox="0 0 32 32" enable-background="new 0 0 32 32" xml:space="preserve">
<g id="Chevron_Up_Circle">
	<path fill="#FFFFFF" d="M16,0C7.163,0,0,7.164,0,16c0,8.837,7.163,16,16,16c8.836,0,16-7.163,16-16C32,7.164,24.836,0,16,0z M16,30
		C8.28,30,1.969,23.721,1.969,16C1.969,8.28,8.28,2,16,2c7.721,0,14,6.28,14,14C30,23.721,23.721,30,16,30z"/>
	<path fill="#FFFFFF" d="M16.699,11.293c-0.384-0.38-1.044-0.381-1.429,0l-6.999,6.898c-0.394,0.392-0.394,1.024,0,1.414
		c0.395,0.392,1.034,0.392,1.429,0l6.285-6.194l6.285,6.196c0.395,0.391,1.035,0.391,1.43,0c0.394-0.392,0.394-1.024,0-1.414
		L16.699,11.293z"/>
</g>
</svg>
